<?xml version="1.0" encoding="UTF-8" standalone="no"?>
<svg
   xmlns:dc="http://purl.org/dc/elements/1.1/"
   xmlns:cc="http://creativecommons.org/ns#"
   xmlns:rdf="http://www.w3.org/1999/02/22-rdf-syntax-ns#"
   xmlns:svg="http://www.w3.org/2000/svg"
   xmlns="http://www.w3.org/2000/svg"
   xmlns:sodipodi="http://sodipodi.sourceforge.net/DTD/sodipodi-0.dtd"
   xmlns:inkscape="http://www.inkscape.org/namespaces/inkscape"
   version="1.1"
   id="svg2"
   viewBox="0 0 297.28571 111.57143"
   height="111.57143"
   width="297.28571"
   inkscape:version="0.91 r13725"
   sodipodi:docname="stratego.svg">
  <sodipodi:namedview
     pagecolor="#ffffff"
     bordercolor="#666666"
     borderopacity="1"
     objecttolerance="10"
     gridtolerance="10"
     guidetolerance="10"
     inkscape:pageopacity="0"
     inkscape:pageshadow="2"
     inkscape:window-width="1920"
     inkscape:window-height="1175"
     id="namedview4143"
     showgrid="false"
     inkscape:zoom="0.26720928"
     inkscape:cx="611.16583"
     inkscape:cy="327.91491"
     inkscape:window-x="1920"
     inkscape:window-y="0"
     inkscape:window-maximized="1"
     inkscape:current-layer="layer1" />
  <defs
     id="defs4" />
  <metadata
     id="metadata7">
    <rdf:RDF>
      <cc:Work
         rdf:about="">
        <dc:format>image/svg+xml</dc:format>
        <dc:type
           rdf:resource="http://purl.org/dc/dcmitype/StillImage" />
        <dc:title></dc:title>
      </cc:Work>
    </rdf:RDF>
  </metadata>
  <g
     transform="translate(-1.3571429,-925.14789)"
     id="layer1">
    <rect
       ry="10.7143"
       y="926.64789"
       x="2.8571429"
       height="108.57143"
       width="294.28571"
       id="rect4140"
       style="color:#000000;clip-rule:nonzero;display:inline;overflow:visible;visibility:visible;opacity:1;isolation:auto;mix-blend-mode:normal;color-interpolation:sRGB;color-interpolation-filters:linearRGB;solid-color:#000000;solid-opacity:1;fill:#ff0400;fill-opacity:1;fill-rule:nonzero;stroke:#ffffff;stroke-width:3;stroke-linecap:butt;stroke-linejoin:miter;stroke-miterlimit:4;stroke-dasharray:none;stroke-dashoffset:0;stroke-opacity:1;color-rendering:auto;image-rendering:auto;shape-rendering:auto;text-rendering:auto;enable-background:accumulate" />
    <g
       style="font-style:normal;font-variant:normal;font-weight:normal;font-stretch:normal;font-size:50px;line-height:125%;font-family:'Lexend Deca';-inkscape-font-specification:'Lexend Deca, Normal';text-align:start;letter-spacing:0px;word-spacing:0px;writing-mode:lr-tb;text-anchor:start;fill:#ffffff;fill-opacity:1;stroke:none;stroke-width:1px;stroke-linecap:butt;stroke-linejoin:miter;stroke-opacity:1"
       id="text4151">
      <path
         d="m 51.220527,985.15221 q 2.05,2.95 4.25,4.6 2.25,1.6 5.8,1.6 1.7,0 3.25,-0.55 1.55,-0.55 2.55,-1.6 1,-1.05 1,-2.5 0,-2.5 -2.15,-3.9 -2.1,-1.4 -5.95,-2.15 -4.9,-1 -7.8,-3.45 -2.9,-2.5 -2.9,-7.2 0,-3 1.65,-5.2 1.7,-2.2 4.45,-3.4 2.75,-1.2 5.95,-1.2 4.15,0 7.15,1.6 3,1.6 4.7,4.55 l -3.8,3.75 q -1.35,-2.25 -3.4,-3.65 -2.05,-1.4 -4.8,-1.4 -2.75,0 -4.65,1.3 -1.85,1.25 -1.85,3.5 0,2.55 1.95,3.75 2,1.15 5.25,1.85 2.95,0.6 5.6,1.85 2.65,1.25 4.3,3.25 1.7,1.95 1.7,4.75 0,5 -3.4,7.95 -3.4,2.95 -9.35,2.95 -4.05,0 -7.4,-1.6 -3.3,-1.6 -5.8,-5.2 l 3.7,-4.25 z"
         style=""
         id="path4156" />
      <path
         d="m 88.172871,995.70221 -5.15,0 0,-21.25 -5.45,0 0,-5 5.45,0 0,-6.7 5.15,0 0,6.7 6.1,0 0,5 -6.1,0 0,21.25 z"
         style=""
         id="path4158" />
      <path
         d="m 113.71115,975.00221 q -0.5,-0.25 -1.25,-0.4 -0.7,-0.2 -1.5,-0.2 -1.6,0 -3.15,0.85 -1.55,0.8 -2.6,2.35 -1,1.5 -1,3.6 l 0,14.5 -5.199998,0 0,-26.25 5.199998,0 0,4.95 q 1.1,-2.4 3.3,-3.95 2.25,-1.55 4.7,-1.55 1.85,0 2.85,0.5 l -1.35,5.6 z"
         style=""
         id="path4160" />
      <path
         d="m 142.50412,969.45221 0,26.25 -5.2,0 0,-4.05 q -1.2,1.65 -3.55,3.1 -2.35,1.45 -5.45,1.45 -3.3,0 -6.05,-1.75 -2.7,-1.75 -4.3,-4.85 -1.6,-3.1 -1.6,-7.1 0,-4 1.65,-7.05 1.65,-3.1 4.55,-4.8 2.9,-1.75 6.6,-1.75 2.75,0 4.8,1.2 2.1,1.2 3.35,2.8 l 0,-3.45 5.2,0 z m -13,22 q 2.4,0 4.2,-1.15 1.8,-1.2 2.8,-3.2 1,-2.05 1,-4.6 0,-2.5 -1,-4.5 -1,-2 -2.8,-3.15 -1.8,-1.2 -4.2,-1.2 -2.3,0 -4.1,1.15 -1.8,1.15 -2.8,3.15 -1,2 -1,4.55 0,2.55 1,4.6 1,2 2.8,3.2 1.8,1.15 4.1,1.15 z"
         style=""
         id="path4162" />
      <path
         d="m 158.09475,995.70221 -5.15,0 0,-21.25 -5.45,0 0,-5 5.45,0 0,-6.7 5.15,0 0,6.7 6.1,0 0,5 -6.1,0 0,21.25 z"
         style=""
         id="path4164" />
      <path
         d="m 191.19006,992.25221 -0.05,0 q -1.6,1.55 -4.4,2.75 -2.8,1.2 -5.85,1.2 -4.1,0 -7.25,-1.7 -3.1,-1.75 -4.85,-4.75 -1.75,-3.05 -1.75,-6.9 0,-4.4 1.85,-7.5 1.85,-3.15 4.9,-4.8 3.05,-1.7 6.65,-1.7 3.3,0 6,1.65 2.7,1.6 4.3,4.45 1.6,2.85 1.6,6.65 l -0.05,2.2 -20.1,0 q 0.45,3.55 2.9,5.65 2.5,2.05 6.3,2.05 2.75,0 4.45,-1 1.7,-1.05 2.8,-2 l 2.55,3.75 z m -10.75,-18.65 q -2.95,0 -5.15,1.4 -2.2,1.35 -2.9,4.7 l 14.7,0 0,-0.35 q -0.15,-1.7 -1.15,-3 -0.95,-1.3 -2.4,-2 -1.45,-0.75 -3.1,-0.75 z"
         style=""
         id="path4166" />
      <path
         d="m 201.24396,1000.0522 q 1.5,1.15 3.75,1.85 2.25,0.7 4.4,0.7 4.05,0 6.2,-2 2.15,-1.94999 2.15,-5.89999 l 0,-3.2 q -0.7,1.2 -2,2.3 -1.3,1.05 -3.05,1.75 -1.75,0.65 -3.65,0.65 -3.65,0 -6.6,-1.75 -2.95,-1.75 -4.7,-4.85 -1.7,-3.1 -1.7,-7.05 0,-4 1.7,-7.05 1.7,-3.1 4.6,-4.85 2.95,-1.75 6.55,-1.75 3,0 5.3,1.35 2.35,1.3 3.55,2.85 l 0,-3.65 5.15,0 0,24.65 q 0,4.7 -1.9,7.54999 -1.85,2.9 -4.95,4.2 -3.05,1.35 -6.65,1.35 -2.8,0 -5.6,-0.9 -2.75,-0.85 -4.45,-2.25 l 1.9,-4 z m 8.35,-26.44999 q -2.4,0 -4.3,1.2 -1.85,1.15 -2.95,3.2 -1.05,2 -1.05,4.55 0,2.55 1.05,4.55 1.1,2 2.95,3.2 1.9,1.15 4.3,1.15 2.5,0 4.35,-1.15 1.9,-1.15 2.95,-3.15 1.05,-2.05 1.05,-4.6 0,-2.6 -1.05,-4.6 -1.05,-2 -2.95,-3.15 -1.85,-1.2 -4.35,-1.2 z"
         style=""
         id="path4168" />
      <path
         d="m 255.21584,982.55221 q 0,4 -1.8,7.1 -1.75,3.05 -4.8,4.8 -3,1.75 -6.75,1.75 -3.75,0 -6.8,-1.75 -3.05,-1.75 -4.85,-4.8 -1.75,-3.1 -1.75,-7.1 0,-4 1.75,-7.05 1.8,-3.1 4.85,-4.85 3.05,-1.75 6.8,-1.75 3.75,0 6.75,1.75 3.05,1.75 4.8,4.85 1.8,3.05 1.8,7.05 z m -5.25,0 q 0.05,-2.65 -1.05,-4.65 -1.05,-2.05 -2.9,-3.15 -1.85,-1.15 -4.15,-1.15 -2.3,0 -4.2,1.15 -1.85,1.1 -2.95,3.15 -1.05,2 -1,4.65 -0.05,2.6 1,4.65 1.1,2 2.95,3.15 1.9,1.15 4.2,1.15 2.3,0 4.15,-1.15 1.85,-1.15 2.9,-3.15 1.1,-2.05 1.05,-4.65 z"
         style=""
         id="path4170" />
    </g>
  </g>
</svg>
