<?xml version="1.0" encoding="UTF-8" standalone="no"?>
<svg
   xmlns:dc="http://purl.org/dc/elements/1.1/"
   xmlns:cc="http://creativecommons.org/ns#"
   xmlns:rdf="http://www.w3.org/1999/02/22-rdf-syntax-ns#"
   xmlns:svg="http://www.w3.org/2000/svg"
   xmlns="http://www.w3.org/2000/svg"
   xmlns:sodipodi="http://sodipodi.sourceforge.net/DTD/sodipodi-0.dtd"
   xmlns:inkscape="http://www.inkscape.org/namespaces/inkscape"
   width="297.28571"
   height="111.57143"
   viewBox="0 0 297.28571 111.57143"
   id="svg2"
   version="1.1"
   inkscape:version="0.91 r13725"
   sodipodi:docname="dixit_lobby_icon.svg">
  <sodipodi:namedview
     pagecolor="#ffffff"
     bordercolor="#666666"
     borderopacity="1"
     objecttolerance="10"
     gridtolerance="10"
     guidetolerance="10"
     inkscape:pageopacity="0"
     inkscape:pageshadow="2"
     inkscape:window-width="1037"
     inkscape:window-height="411"
     id="namedview16"
     showgrid="false"
     inkscape:zoom="0.78729764"
     inkscape:cx="76.93054"
     inkscape:cy="-116.94226"
     inkscape:window-x="498"
     inkscape:window-y="403"
     inkscape:window-maximized="0"
     inkscape:current-layer="layer1" />
  <defs
     id="defs4" />
  <metadata
     id="metadata7">
    <rdf:RDF>
      <cc:Work
         rdf:about="">
        <dc:format>image/svg+xml</dc:format>
        <dc:type
           rdf:resource="http://purl.org/dc/dcmitype/StillImage" />
        <dc:title></dc:title>
      </cc:Work>
    </rdf:RDF>
  </metadata>
  <g
     id="layer1"
     transform="translate(-1.3571429,-925.14789)">
    <rect
       style="color:#000000;clip-rule:nonzero;display:inline;overflow:visible;visibility:visible;opacity:1;isolation:auto;mix-blend-mode:normal;color-interpolation:sRGB;color-interpolation-filters:linearRGB;solid-color:#000000;solid-opacity:1;fill:#ffa600;fill-opacity:1;fill-rule:nonzero;stroke:#9e6100;stroke-width:3;stroke-linecap:butt;stroke-linejoin:miter;stroke-miterlimit:4;stroke-dasharray:none;stroke-dashoffset:0;stroke-opacity:1;color-rendering:auto;image-rendering:auto;shape-rendering:auto;text-rendering:auto;enable-background:accumulate"
       id="rect4140"
       width="294.28571"
       height="108.57143"
       x="2.8571429"
       y="926.64789"
       ry="10.7143" />
    <g
       style="font-weight:bold;font-size:50px;line-height:125%;font-family:'Lexend Deca';-inkscape-font-specification:'Lexend Deca Bold';letter-spacing:0px;word-spacing:0px;writing-mode:lr-tb;fill:#000000;fill-opacity:1;stroke:none;stroke-width:1px;stroke-linecap:butt;stroke-linejoin:miter;stroke-opacity:1"
       id="text4143">
      <path
         d="m 110.02687,963.29059 q 4.05,0 7.1,1.4 3.1,1.35 5.15,3.8 2.05,2.4 3.1,5.6 1.05,3.15 1.05,6.7 0,4.8 -1.85,8.8 -1.85,3.95 -5.5,6.35 -3.65,2.35 -9.05,2.35 l -13.699998,0 0,-35 13.699998,0 z m -0.25,29.8 q 3.95,0 6.4,-1.65 2.45,-1.7 3.6,-4.5 1.15,-2.8 1.15,-6.15 0,-3.3 -1.15,-6.1 -1.15,-2.8 -3.6,-4.5 -2.45,-1.7 -6.4,-1.7 l -8.05,0 0,24.6 8.05,0 z"
         style=""
         id="path4148" />
      <path
         d="m 135.87922,966.34059 q -1.75,0 -2.6,-0.9 -0.85,-0.9 -0.85,-2.35 0,-1.25 0.85,-2.25 0.85,-1 2.6,-1 1.75,0 2.6,0.9 0.85,0.9 0.85,2.35 0,1.25 -0.85,2.25 -0.85,1 -2.6,1 z m 2.65,31.95 -5.15,0 0,-26.25 5.15,0 0,26.25 z"
         style=""
         id="path4150" />
      <path
         d="m 143.4964,998.29059 10.1,-13.15 -10.15,-13.1 6.5,0 7.1,9.25 6,-9.25 6.1,0 -9.3,12.95 10.2,13.3 -6.3,0 -7.2,-9.35 -7,9.4 -6.05,-0.05 z"
         style=""
         id="path4152" />
      <path
         d="m 177.8714,966.34059 q -1.75,0 -2.6,-0.9 -0.85,-0.9 -0.85,-2.35 0,-1.25 0.85,-2.25 0.85,-1 2.6,-1 1.75,0 2.6,0.9 0.85,0.9 0.85,2.35 0,1.25 -0.85,2.25 -0.85,1 -2.6,1 z m 2.65,31.95 -5.15,0 0,-26.25 5.15,0 0,26.25 z"
         style=""
         id="path4154" />
      <path
         d="m 196.68859,998.29059 -5.15,0 0,-21.25 -5.45,0 0,-5 5.45,0 0,-6.7 5.15,0 0,6.7 6.1,0 0,5 -6.1,0 0,21.25 z"
         style=""
         id="path4156" />
    </g>
  </g>
</svg>
