<?xml version="1.0" encoding="UTF-8" standalone="no"?>
<!-- Created with Inkscape (http://www.inkscape.org/) -->

<svg
   xmlns:dc="http://purl.org/dc/elements/1.1/"
   xmlns:cc="http://creativecommons.org/ns#"
   xmlns:rdf="http://www.w3.org/1999/02/22-rdf-syntax-ns#"
   xmlns:svg="http://www.w3.org/2000/svg"
   xmlns="http://www.w3.org/2000/svg"
   xmlns:sodipodi="http://sodipodi.sourceforge.net/DTD/sodipodi-0.dtd"
   xmlns:inkscape="http://www.inkscape.org/namespaces/inkscape"
   width="1280"
   height="422"
   viewBox="0 0 1280 422.00001"
   id="svg2"
   version="1.1"
   inkscape:version="0.91 r13725"
   sodipodi:docname="openbox.svg">
  <defs
     id="defs4" />
  <sodipodi:namedview
     id="base"
     pagecolor="#ffffff"
     bordercolor="#666666"
     borderopacity="1.0"
     inkscape:pageopacity="0.0"
     inkscape:pageshadow="2"
     inkscape:zoom="0.7"
     inkscape:cx="468.33835"
     inkscape:cy="380.12695"
     inkscape:document-units="px"
     inkscape:current-layer="layer1"
     showgrid="false"
     units="px"
     inkscape:window-width="1920"
     inkscape:window-height="983"
     inkscape:window-x="0"
     inkscape:window-y="0"
     inkscape:window-maximized="1" />
  <metadata
     id="metadata7">
    <rdf:RDF>
      <cc:Work
         rdf:about="">
        <dc:format>image/svg+xml</dc:format>
        <dc:type
           rdf:resource="http://purl.org/dc/dcmitype/StillImage" />
        <dc:title></dc:title>
      </cc:Work>
    </rdf:RDF>
  </metadata>
  <g
     inkscape:label="Layer 1"
     inkscape:groupmode="layer"
     id="layer1"
     transform="translate(0,-630.36216)">
    <rect
       style="color:#000000;overflow:visible;fill:#000516;fill-opacity:1;stroke:none;stroke-width:2;stroke-miterlimit:4;stroke-dasharray:none;stroke-opacity:1"
       id="rect4206"
       width="1280"
       height="422"
       x="0"
       y="630.36212" />
    <rect
       style="color:#000000;overflow:visible;fill:none;fill-opacity:1;stroke:#ff9d00;stroke-width:2;stroke-miterlimit:4;stroke-dasharray:none;stroke-opacity:1"
       id="rect4136"
       width="200"
       height="376.70001"
       x="12.428"
       y="650.26227"
       ry="10.7143" />
    <rect
       style="color:#000000;overflow:visible;fill:none;fill-opacity:1;stroke:#ff9d00;stroke-width:2;stroke-miterlimit:4;stroke-dasharray:none;stroke-opacity:1"
       id="rect4136-2"
       width="200"
       height="376.70001"
       x="223.856"
       y="650.26227"
       ry="10.7143" />
    <rect
       style="color:#000000;overflow:visible;fill:none;fill-opacity:1;stroke:#ff9d00;stroke-width:2;stroke-miterlimit:4;stroke-dasharray:none;stroke-opacity:1"
       id="rect4136-2-8"
       width="200"
       height="376.70001"
       x="435.28"
       y="650.26227"
       ry="10.7143" />
    <rect
       style="color:#000000;overflow:visible;fill:none;fill-opacity:1;stroke:#ff9d00;stroke-width:2;stroke-miterlimit:4;stroke-dasharray:none;stroke-opacity:1"
       id="rect4136-2-8-9"
       width="200"
       height="376.70001"
       x="646.71198"
       y="650.26227"
       ry="10.7143" />
    <rect
       style="color:#000000;overflow:visible;fill:none;fill-opacity:1;stroke:#ff9d00;stroke-width:2;stroke-miterlimit:4;stroke-dasharray:none;stroke-opacity:1"
       id="rect4136-2-8-3"
       width="200"
       height="376.70001"
       x="858.14001"
       y="650.26227"
       ry="10.7143" />
    <rect
       style="color:#000000;overflow:visible;fill:none;fill-opacity:1;stroke:#ff9d00;stroke-width:2;stroke-miterlimit:4;stroke-dasharray:none;stroke-opacity:1"
       id="rect4136-2-8-3-6"
       width="200"
       height="376.70001"
       x="1069.568"
       y="650.26227"
       ry="10.7143" />
    <g
       style="font-weight:bold;font-size:70px;line-height:125%;font-family:'Lexend Deca';-inkscape-font-specification:'Lexend Deca Bold';letter-spacing:0px;word-spacing:0px;writing-mode:lr-tb;fill:#ffa400;fill-opacity:1;stroke:#000000;stroke-width:1px;stroke-linecap:butt;stroke-linejoin:miter;stroke-opacity:1"
       id="text4233">
      <path
         d="m 120.8,715.21936 -23.38,0 0,-7.28 7.77,0 0,-32.55 -7.07,3.71 -2.03,-6.58 13.09,-7 3.64,0 0,42.42 7.98,0 0,7.28 z"
         style=""
         id="path4315" />
    </g>
    <g
       style="font-weight:bold;font-size:70px;line-height:125%;font-family:'Lexend Deca';-inkscape-font-specification:'Lexend Deca Bold';letter-spacing:0px;word-spacing:0px;writing-mode:lr-tb;fill:#ffa400;fill-opacity:1;stroke:#000000;stroke-width:1px;stroke-linecap:butt;stroke-linejoin:miter;stroke-opacity:1"
       id="text4233-0">
      <path
         d="m 336.24646,707.07498 0,7.28 -29.61,0 -2.31,-5.74 14.98,-16.87 q 2.87,-3.22 5.25,-6.44 2.38,-3.22 2.38,-6.58 0,-3.5 -2.03,-5.25 -2.03,-1.82 -5.32,-1.82 -1.61,0 -3.57,0.98 -1.96,0.98 -3.71,3.08 -1.75,2.1 -2.8,5.53 l -5.81,-3.64 q 1.89,-6.51 6.51,-9.73 4.69,-3.22 10.29,-3.22 3.99,0 7.21,1.68 3.22,1.61 5.11,4.62 1.89,3.01 1.89,7.21 0,4.83 -2.94,9.59 -2.87,4.69 -7.07,9.31 l -9.17,10.01 20.72,0 z"
         style=""
         id="path4312" />
    </g>
    <g
       style="font-weight:bold;font-size:70px;line-height:125%;font-family:'Lexend Deca';-inkscape-font-specification:'Lexend Deca Bold';letter-spacing:0px;word-spacing:0px;writing-mode:lr-tb;fill:#ffa400;fill-opacity:1;stroke:#000000;stroke-width:1px;stroke-linecap:butt;stroke-linejoin:miter;stroke-opacity:1"
       id="text4233-0-4">
      <path
         d="m 518.86353,700.98498 q 1.05,1.54 2.52,3.29 1.54,1.75 3.57,2.94 2.1,1.19 4.76,1.19 2.1,0 4.2,-1.05 2.1,-1.12 3.5,-3.22 1.47,-2.17 1.47,-5.25 0,-3.15 -1.19,-5.04 -1.12,-1.89 -3.01,-2.73 -1.89,-0.84 -4.13,-0.84 -2.17,0 -4.41,0.7 -2.17,0.63 -4.06,1.4 l -2.1,-5.53 13.16,-14.49 -17.43,0 0,-7 28.07,0 1.4,2.8 -13.72,15.19 q 4.06,0 7.35,2.03 3.36,1.96 5.32,5.39 2.03,3.43 2.03,7.7 0,5.04 -2.45,8.82 -2.38,3.71 -6.3,5.74 -3.85,2.03 -8.26,2.03 -4.13,0 -7.14,-1.33 -2.94,-1.4 -5.11,-3.78 -2.17,-2.38 -3.92,-5.25 l 5.88,-3.71 z"
         style=""
         id="path4309" />
    </g>
    <g
       style="font-weight:bold;font-size:70px;line-height:125%;font-family:'Lexend Deca';-inkscape-font-specification:'Lexend Deca Bold';letter-spacing:0px;word-spacing:0px;writing-mode:lr-tb;fill:#ffa400;fill-opacity:1;stroke:#000000;stroke-width:1px;stroke-linecap:butt;stroke-linejoin:miter;stroke-opacity:1"
       id="text4233-0-2">
      <path
         d="m 748.41722,714.70166 0,-13.3 -19.32,0 -3.22,-6.3 24.01,-29.4 5.81,0 0,28.77 8.54,0 0,6.93 -8.54,0 0,13.3 -7.28,0 z m -13.65,-20.23 13.65,0 0,-16.66 -13.65,16.66 z"
         style=""
         id="path4306" />
    </g>
    <g
       style="font-weight:bold;font-size:70px;line-height:125%;font-family:'Lexend Deca';-inkscape-font-specification:'Lexend Deca Bold';letter-spacing:0px;word-spacing:0px;writing-mode:lr-tb;fill:#ffa400;fill-opacity:1;stroke:#000000;stroke-width:1px;stroke-linecap:butt;stroke-linejoin:miter;stroke-opacity:1"
       id="text4233-0-8">
      <path
         d="m 952.66096,714.85731 q -5.32,0 -9.17,-2.45 -3.78,-2.45 -6.09,-6.09 l 4.2,-4.69 q 2.52,2.8 4.97,4.55 2.52,1.75 6.09,1.75 2.94,0 5.25,-1.26 2.31,-1.33 3.64,-3.5 1.33,-2.17 1.33,-4.76 0,-2.87 -1.33,-5.04 -1.26,-2.24 -3.5,-3.5 -2.17,-1.26 -4.83,-1.26 -3.57,0 -6.02,1.12 -2.38,1.12 -3.78,1.82 l -3.99,-5.39 2.87,-20.79 26.46,0 0,7 -20.44,0 -1.61,10.85 q 1.61,-0.7 3.71,-1.12 2.1,-0.49 4.13,-0.49 4.27,0 7.77,1.96 3.57,1.96 5.74,5.6 2.17,3.57 2.17,8.54 0,4.9 -2.38,8.82 -2.31,3.85 -6.3,6.09 -3.92,2.24 -8.89,2.24 z"
         style=""
         id="path4303" />
    </g>
    <g
       style="font-weight:bold;font-size:70px;line-height:125%;font-family:'Lexend Deca';-inkscape-font-specification:'Lexend Deca Bold';letter-spacing:0px;word-spacing:0px;writing-mode:lr-tb;fill:#ffa400;fill-opacity:1;stroke:#000000;stroke-width:1px;stroke-linecap:butt;stroke-linejoin:miter;stroke-opacity:1"
       id="text4233-0-84">
      <path
         d="m 1170.2398,715.8974 q -4.69,0 -8.54,-2.17 -3.85,-2.17 -6.16,-6.09 -2.31,-3.92 -2.31,-9.03 0,-3.15 1.26,-6.93 1.26,-3.78 3.15,-7.63 1.96,-3.85 3.92,-7.21 l 6.37,-10.78 7.35,0 0.28,0.7 -7.7,12.95 q -0.98,1.61 -1.82,3.22 1.26,-0.63 2.73,-0.91 1.54,-0.35 3.22,-0.35 4.13,0 7.49,2.24 3.43,2.24 5.46,5.88 2.03,3.64 2.03,7.91 0,4.97 -2.03,9.1 -2.03,4.13 -5.81,6.65 -3.71,2.45 -8.89,2.45 z m 0,-7 q 2.52,0 4.69,-1.19 2.17,-1.26 3.43,-3.57 1.33,-2.31 1.33,-5.53 0,-2.45 -1.19,-4.69 -1.19,-2.31 -3.29,-3.78 -2.03,-1.47 -4.83,-1.47 -3.08,0 -5.32,1.4 -2.17,1.4 -3.36,3.64 -1.19,2.24 -1.19,4.83 0,2.73 1.12,5.11 1.19,2.31 3.36,3.78 2.24,1.47 5.25,1.47 z"
         style=""
         id="path4300" />
    </g>
  </g>
</svg>
