<?xml version="1.0" encoding="UTF-8" standalone="no"?>
<svg
   xmlns:dc="http://purl.org/dc/elements/1.1/"
   xmlns:cc="http://creativecommons.org/ns#"
   xmlns:rdf="http://www.w3.org/1999/02/22-rdf-syntax-ns#"
   xmlns:svg="http://www.w3.org/2000/svg"
   xmlns="http://www.w3.org/2000/svg"
   width="297.28571"
   height="111.57143"
   viewBox="0 0 297.28571 111.57143"
   id="svg2"
   version="1.1">
  <defs
     id="defs4" />
  <metadata
     id="metadata7">
    <rdf:RDF>
      <cc:Work
         rdf:about="">
        <dc:format>image/svg+xml</dc:format>
        <dc:type
           rdf:resource="http://purl.org/dc/dcmitype/StillImage" />
        <dc:title></dc:title>
      </cc:Work>
    </rdf:RDF>
  </metadata>
  <g
     id="layer1"
     transform="translate(-1.3571429,-925.14789)">
    <rect
       style="color:#000000;clip-rule:nonzero;display:inline;overflow:visible;visibility:visible;opacity:1;isolation:auto;mix-blend-mode:normal;color-interpolation:sRGB;color-interpolation-filters:linearRGB;solid-color:#000000;solid-opacity:1;fill:#44ff32;fill-opacity:1;fill-rule:nonzero;stroke:#ffffff;stroke-width:3;stroke-linecap:butt;stroke-linejoin:miter;stroke-miterlimit:4;stroke-dasharray:none;stroke-dashoffset:0;stroke-opacity:1;color-rendering:auto;image-rendering:auto;shape-rendering:auto;text-rendering:auto;enable-background:accumulate"
       id="rect4140"
       width="294.28571"
       height="108.57143"
       x="2.8571429"
       y="926.64789"
       ry="10.7143" />
    <g
       id="text4151"
       style="font-style:normal;font-variant:normal;font-weight:normal;font-stretch:normal;font-size:50px;line-height:125%;font-family:'Lexend Deca';-inkscape-font-specification:'Lexend Deca, Normal';text-align:start;letter-spacing:0px;word-spacing:0px;writing-mode:lr-tb;text-anchor:start;fill:#000000;fill-opacity:1;stroke:none;stroke-width:1px;stroke-linecap:butt;stroke-linejoin:miter;stroke-opacity:1">
      <path
         id="path4156"
         style=""
         d="m 50.558963,989.12157 q 2.05,2.95 4.25,4.6 2.25,1.6 5.8,1.6 1.7,0 3.25,-0.55 1.55,-0.55 2.55,-1.6 1,-1.05 1,-2.5 0,-2.5 -2.15,-3.9 -2.1,-1.4 -5.95,-2.15 -4.9,-1 -7.8,-3.45 -2.9,-2.5 -2.9,-7.2 0,-3 1.65,-5.2 1.7,-2.2 4.45,-3.4 2.75,-1.2 5.95,-1.2 4.15,0 7.15,1.6 3,1.6 4.7,4.55 l -3.8,3.75 q -1.35,-2.25 -3.4,-3.65 -2.05,-1.4 -4.8,-1.4 -2.75,0 -4.65,1.3 -1.85,1.25 -1.85,3.5 0,2.55 1.95,3.75 2,1.15 5.25,1.85 2.95,0.6 5.6,1.85 2.65,1.25 4.3,3.25 1.7,1.95 1.7,4.75 0,5 -3.4,7.95 -3.4,2.95003 -9.35,2.95003 -4.05,0 -7.4,-1.60003 -3.3,-1.6 -5.8,-5.2 l 3.7,-4.25 z" />
      <path
         id="path4158"
         style=""
         d="m 82.411307,986.52157 q 0,2.6 1.15,4.65 1.2,2 3.1,3.2 1.95,1.15 4.15,1.15 2.5,0 4.35,-1.3 1.85,-1.3 3,-2.7 l 2.850003,3.5 q -0.95,1.35 -2.600003,2.55 -1.65,1.15 -3.75,1.9 -2.1,0.70003 -4.4,0.70003 -3.6,0 -6.5,-1.80003 -2.9,-1.8 -4.6,-4.9 -1.65,-3.1 -1.65,-6.95 0,-3.9 1.65,-6.95 1.7,-3.1 4.6,-4.9 2.9,-1.8 6.5,-1.8 3.65,0 6.5,1.5 2.85,1.45 4.250003,3.8 l -2.850003,3.5 q -1.15,-1.7 -3.3,-2.9 -2.1,-1.25 -4.1,-1.25 -2.35,0 -4.25,1.2 -1.9,1.15 -3,3.2 -1.1,2 -1.1,4.6 z" />
      <path
         id="path4160"
         style=""
         d="m 120.56912,978.97157 q -0.5,-0.25 -1.25,-0.4 -0.7,-0.2 -1.5,-0.2 -1.6,0 -3.15,0.85 -1.55,0.8 -2.6,2.35 -1,1.5 -1,3.6 l 0,14.5 -5.2,0 0,-26.25 5.2,0 0,4.95 q 1.1,-2.4 3.3,-3.95 2.25,-1.55 4.7,-1.55 1.85,0 2.85,0.5 l -1.35,5.6 z" />
      <path
         id="path4162"
         style=""
         d="m 149.36209,973.42157 0,26.25 -5.2,0 0,-4.05 q -1.2,1.65 -3.55,3.1 -2.35,1.45003 -5.45,1.45003 -3.3,0 -6.05,-1.75003 -2.7,-1.75 -4.3,-4.85 -1.6,-3.1 -1.6,-7.1 0,-4 1.65,-7.05 1.65,-3.1 4.55,-4.8 2.9,-1.75 6.6,-1.75 2.75,0 4.8,1.2 2.1,1.2 3.35,2.8 l 0,-3.45 5.2,0 z m -13,22 q 2.4,0 4.2,-1.15 1.8,-1.2 2.8,-3.2 1,-2.05 1,-4.6 0,-2.5 -1,-4.5 -1,-2 -2.8,-3.15 -1.8,-1.2 -4.2,-1.2 -2.3,0 -4.1,1.15 -1.8,1.15 -2.8,3.15 -1,2 -1,4.55 0,2.55 1,4.6 1,2 2.8,3.2 1.8,1.15 4.1,1.15 z" />
      <path
         id="path4164"
         style=""
         d="m 170.20271,972.87157 q 3.5,0 6.25,1.75 2.8,1.7 4.4,4.8 1.6,3.05 1.6,7.05 0,4 -1.6,7.1 -1.6,3.1 -4.35,4.85 -2.75,1.75003 -6.15,1.75003 -2.8,0 -5.1,-1.20003 -2.25,-1.25 -3.55,-2.8 l 0,3.35 -5.15,0 0,-36.85 5.15,0 0,14.55 q 1.15,-1.65 3.45,-3 2.3,-1.35 5.05,-1.35 z m -0.7,4.7 q -2.35,0 -4.2,1.15 -1.8,1.15 -2.85,3.2 -1,2 -1,4.55 0,2.55 1,4.6 1.05,2 2.85,3.2 1.85,1.2 4.2,1.2 2.35,0 4.15,-1.2 1.8,-1.2 2.8,-3.2 1.05,-2.05 1.05,-4.6 0,-2.55 -1.05,-4.55 -1,-2.05 -2.8,-3.2 -1.8,-1.15 -4.15,-1.15 z" />
      <path
         id="path4166"
         style=""
         d="m 201.74568,972.87157 q 3.5,0 6.25,1.75 2.8,1.7 4.4,4.8 1.6,3.05 1.6,7.05 0,4 -1.6,7.1 -1.6,3.1 -4.35,4.85 -2.75,1.75003 -6.15,1.75003 -2.8,0 -5.1,-1.20003 -2.25,-1.25 -3.55,-2.8 l 0,3.35 -5.15,0 0,-36.85 5.15,0 0,14.55 q 1.15,-1.65 3.45,-3 2.3,-1.35 5.05,-1.35 z m -0.7,4.7 q -2.35,0 -4.2,1.15 -1.8,1.15 -2.85,3.2 -1,2 -1,4.55 0,2.55 1,4.6 1.05,2 2.85,3.2 1.85,1.2 4.2,1.2 2.35,0 4.15,-1.2 1.8,-1.2 2.8,-3.2 1.05,-2.05 1.05,-4.6 0,-2.55 -1.05,-4.55 -1,-2.05 -2.8,-3.2 -1.8,-1.15 -4.15,-1.15 z" />
      <path
         id="path4168"
         style=""
         d="m 219.63865,999.67157 0,-37 5.15,0 0,37 -5.15,0 z" />
      <path
         id="path4170"
         style=""
         d="m 254.20037,996.22157 -0.05,0 q -1.6,1.55 -4.4,2.75 -2.8,1.20003 -5.85,1.20003 -4.1,0 -7.25,-1.70003 -3.1,-1.75 -4.85,-4.75 -1.75,-3.05 -1.75,-6.9 0,-4.4 1.85,-7.5 1.85,-3.15 4.9,-4.8 3.05,-1.7 6.65,-1.7 3.3,0 6,1.65 2.7,1.6 4.3,4.45 1.6,2.85 1.6,6.65 l -0.05,2.2 -20.1,0 q 0.45,3.55 2.9,5.65 2.5,2.05 6.3,2.05 2.75,0 4.45,-1 1.7,-1.05 2.8,-2 l 2.55,3.75 z m -10.75,-18.65 q -2.95,0 -5.15,1.4 -2.2,1.35 -2.9,4.7 l 14.7,0 0,-0.35 q -0.15,-1.7 -1.15,-3 -0.95,-1.3 -2.4,-2 -1.45,-0.75 -3.1,-0.75 z" />
    </g>
  </g>
</svg>
