<?xml version="1.0" encoding="UTF-8" standalone="no"?>
<svg
   xmlns:osb="http://www.openswatchbook.org/uri/2009/osb"
   xmlns:dc="http://purl.org/dc/elements/1.1/"
   xmlns:cc="http://creativecommons.org/ns#"
   xmlns:rdf="http://www.w3.org/1999/02/22-rdf-syntax-ns#"
   xmlns:svg="http://www.w3.org/2000/svg"
   xmlns="http://www.w3.org/2000/svg"
   xmlns:sodipodi="http://sodipodi.sourceforge.net/DTD/sodipodi-0.dtd"
   xmlns:inkscape="http://www.inkscape.org/namespaces/inkscape"
   version="1.1"
   id="svg4149"
   viewBox="0 0 60.000001 36.000001"
   height="36"
   width="60"
   inkscape:version="0.91 r13725"
   sodipodi:docname="2x.svg">
  <sodipodi:namedview
     pagecolor="#ffffff"
     bordercolor="#666666"
     borderopacity="1"
     objecttolerance="10"
     gridtolerance="10"
     guidetolerance="10"
     inkscape:pageopacity="0"
     inkscape:pageshadow="2"
     inkscape:window-width="1920"
     inkscape:window-height="983"
     id="namedview5914"
     showgrid="false"
     inkscape:zoom="5.4833333"
     inkscape:cx="9.4832827"
     inkscape:cy="18"
     inkscape:window-x="0"
     inkscape:window-y="0"
     inkscape:window-maximized="1"
     inkscape:current-layer="g4703" />
  <defs
     id="defs4151">
    <linearGradient
       osb:paint="solid"
       id="linearGradient6210">
      <stop
         id="stop6212"
         offset="0"
         style="stop-color:#f93926;stop-opacity:1;" />
    </linearGradient>
  </defs>
  <metadata
     id="metadata4154">
    <rdf:RDF>
      <cc:Work
         rdf:about="">
        <dc:format>image/svg+xml</dc:format>
        <dc:type
           rdf:resource="http://purl.org/dc/dcmitype/StillImage" />
        <dc:title></dc:title>
      </cc:Work>
    </rdf:RDF>
  </metadata>
  <g
     transform="translate(0,-1016.3622)"
     id="layer1">
    <g
       transform="translate(0.44642857,-0.26785714)"
       id="g4703">
      <path
         id="rect4697"
         d="m 6.3044799,1017.5489 46.5485291,0 c 3.217841,0 5.808377,2.5905 5.808377,5.8084 l 0,22.6867 c 0,3.2179 -2.590536,5.8084 -5.808377,5.8084 l -46.5485291,0 c -3.217841,0 -5.80837727,-2.5905 -5.80837727,-5.8084 l 0,-22.6867 c 0,-3.2179 2.59053627,-5.8084 5.80837727,-5.8084 z"
         style="color:#000000;clip-rule:nonzero;display:inline;overflow:visible;visibility:visible;opacity:1;isolation:auto;mix-blend-mode:normal;color-interpolation:sRGB;color-interpolation-filters:linearRGB;solid-color:#000000;solid-opacity:1;fill:#877cff;fill-opacity:1;fill-rule:nonzero;stroke:#000000;stroke-width:1.64300001;stroke-linecap:butt;stroke-linejoin:miter;stroke-miterlimit:4;stroke-dasharray:none;stroke-dashoffset:0;stroke-opacity:1;color-rendering:auto;image-rendering:auto;shape-rendering:auto;text-rendering:auto;enable-background:accumulate" />
      <g
         style="font-style:normal;font-variant:normal;font-weight:600;font-stretch:normal;font-size:30px;line-height:125%;font-family:FreeSans;-inkscape-font-specification:'FreeSans, Semi-Bold';text-align:start;letter-spacing:0px;word-spacing:0px;writing-mode:lr-tb;text-anchor:start;fill:#000000;fill-opacity:1;stroke:none;stroke-width:1px;stroke-linecap:butt;stroke-linejoin:miter;stroke-opacity:1"
         id="text4699">
        <path
           d="m 28.772201,1032.5856 q 0,1.0325 -0.455,1.8725 -0.4375,0.84 -1.12,1.4175 -0.6825,0.56 -1.4,1.05 -0.7175,0.4725 -1.3825,1.05 -0.665,0.56 -0.945,1.155 l 5.25,0 0,2.1875 -8.435,0 q 0.0875,-1.715 0.6825,-2.7125 0.6125,-1.015 2.1875,-2.1175 2.0475,-1.435 2.6075,-2.1175 0.56,-0.7 0.56,-1.7325 0,-0.9275 -0.4725,-1.4525 -0.455,-0.5425 -1.2775,-0.5425 -0.84,0 -1.3125,0.5775 -0.455,0.5775 -0.455,1.61 l 0,0.4025 -2.345,0 q -0.0175,-0.1925 -0.0175,-0.4375 0,-1.96 1.0675,-3.045 1.085,-1.1025 3.01,-1.1025 1.96,0 3.0975,1.0675 1.155,1.0675 1.155,2.87 z"
           style="font-style:normal;font-variant:normal;font-weight:600;font-stretch:normal;font-size:17.5px;line-height:125%;font-family:FreeSans;-inkscape-font-specification:'FreeSans, Semi-Bold';text-align:start;writing-mode:lr-tb;text-anchor:start"
           id="path6457" />
        <path
           d="m 35.695912,1036.5581 3.15,4.76 -2.94,0 -1.5925,-2.94 -1.61,2.94 -2.94,0 3.15,-4.76 -3.08,-4.69 2.94,0 1.54,2.8525 1.5225,-2.8525 2.94,0 -3.08,4.69 z"
           style="font-style:normal;font-variant:normal;font-weight:600;font-stretch:normal;font-size:17.5px;line-height:125%;font-family:FreeSans;-inkscape-font-specification:'FreeSans, Semi-Bold';text-align:start;writing-mode:lr-tb;text-anchor:start"
           id="path6459" />
      </g>
    </g>
  </g>
</svg>
