<?xml version="1.0" encoding="UTF-8" standalone="no"?>
<svg
   xmlns:osb="http://www.openswatchbook.org/uri/2009/osb"
   xmlns:dc="http://purl.org/dc/elements/1.1/"
   xmlns:cc="http://creativecommons.org/ns#"
   xmlns:rdf="http://www.w3.org/1999/02/22-rdf-syntax-ns#"
   xmlns:svg="http://www.w3.org/2000/svg"
   xmlns="http://www.w3.org/2000/svg"
   xmlns:sodipodi="http://sodipodi.sourceforge.net/DTD/sodipodi-0.dtd"
   xmlns:inkscape="http://www.inkscape.org/namespaces/inkscape"
   version="1.1"
   id="svg4149"
   viewBox="0 0 60.000001 36.000001"
   height="36"
   width="60"
   inkscape:version="0.91 r13725"
   sodipodi:docname="black-ticket.svg">
  <sodipodi:namedview
     pagecolor="#ffffff"
     bordercolor="#666666"
     borderopacity="1"
     objecttolerance="10"
     gridtolerance="10"
     guidetolerance="10"
     inkscape:pageopacity="0"
     inkscape:pageshadow="2"
     inkscape:window-width="1920"
     inkscape:window-height="983"
     id="namedview4146"
     showgrid="false"
     inkscape:zoom="21.1"
     inkscape:cx="30"
     inkscape:cy="18"
     inkscape:window-x="0"
     inkscape:window-y="0"
     inkscape:window-maximized="1"
     inkscape:current-layer="g4703" />
  <defs
     id="defs4151">
    <linearGradient
       osb:paint="solid"
       id="linearGradient6210">
      <stop
         id="stop6212"
         offset="0"
         style="stop-color:#f93926;stop-opacity:1;" />
    </linearGradient>
  </defs>
  <metadata
     id="metadata4154">
    <rdf:RDF>
      <cc:Work
         rdf:about="">
        <dc:format>image/svg+xml</dc:format>
        <dc:type
           rdf:resource="http://purl.org/dc/dcmitype/StillImage" />
        <dc:title></dc:title>
      </cc:Work>
    </rdf:RDF>
  </metadata>
  <g
     transform="translate(0,-1016.3622)"
     id="layer1">
    <g
       transform="translate(0.44642857,-0.26785714)"
       id="g4703">
      <path
         id="rect4697"
         d="m 6.3044799,1017.5489 46.5485291,0 c 3.217841,0 5.808377,2.5905 5.808377,5.8084 l 0,22.6867 c 0,3.2179 -2.590536,5.8084 -5.808377,5.8084 l -46.5485291,0 c -3.217841,0 -5.80837727,-2.5905 -5.80837727,-5.8084 l 0,-22.6867 c 0,-3.2179 2.59053627,-5.8084 5.80837727,-5.8084 z"
         style="color:#000000;clip-rule:nonzero;display:inline;overflow:visible;visibility:visible;opacity:1;isolation:auto;mix-blend-mode:normal;color-interpolation:sRGB;color-interpolation-filters:linearRGB;solid-color:#000000;solid-opacity:1;fill:#202221;fill-opacity:1;fill-rule:nonzero;stroke:#000000;stroke-width:1.64300001;stroke-linecap:butt;stroke-linejoin:miter;stroke-miterlimit:4;stroke-dasharray:none;stroke-dashoffset:0;stroke-opacity:1;color-rendering:auto;image-rendering:auto;shape-rendering:auto;text-rendering:auto;enable-background:accumulate" />
      <g
         style="font-style:normal;font-variant:normal;font-weight:600;font-stretch:normal;font-size:30px;line-height:125%;font-family:FreeSans;-inkscape-font-specification:'FreeSans, Semi-Bold';text-align:start;letter-spacing:0px;word-spacing:0px;writing-mode:lr-tb;text-anchor:start;fill:#ffffff;fill-opacity:1;stroke:none;stroke-width:1px;stroke-linecap:butt;stroke-linejoin:miter;stroke-opacity:1"
         id="text4699">
        <path
           d="m 24.808272,1033.4363 q 0.0175,-1.1375 0.2975,-1.995 0.2975,-0.8575 0.7175,-1.33 0.4375,-0.49 1.0325,-0.7875 0.595,-0.2975 1.1025,-0.385 0.525,-0.105 1.1025,-0.105 1.925,0 3.1325,1.12 1.225,1.12 1.225,2.905 0,1.1025 -0.4375,1.82 -0.4375,0.7175 -1.6625,1.575 -0.7875,0.56 -0.98,0.8925 -0.1925,0.3325 -0.1925,1.19 l -2.17,0 0,-0.245 q 0,-0.875 0.2975,-1.5225 0.315,-0.665 0.7525,-1.0675 0.4375,-0.4025 0.875,-0.7525 0.4375,-0.35 0.735,-0.805 0.315,-0.455 0.315,-1.0325 0,-0.8575 -0.525,-1.435 -0.525,-0.5775 -1.3125,-0.5775 -0.8225,0 -1.3825,0.665 -0.5425,0.665 -0.5425,1.68 l 0,0.1575 0,0.035 -2.38,0 z m 5.6175,5.8625 0,2.555 -2.625,0 0,-2.555 2.625,0 z"
           style="font-style:normal;font-variant:normal;font-weight:600;font-stretch:normal;font-size:17.5px;line-height:125%;font-family:FreeSans;-inkscape-font-specification:'FreeSans, Semi-Bold';text-align:start;writing-mode:lr-tb;text-anchor:start;fill:#ffffff;fill-opacity:1"
           id="path4149" />
      </g>
    </g>
  </g>
</svg>
