<?xml version="1.0" encoding="UTF-8" standalone="no"?>
<svg
   xmlns:dc="http://purl.org/dc/elements/1.1/"
   xmlns:cc="http://creativecommons.org/ns#"
   xmlns:rdf="http://www.w3.org/1999/02/22-rdf-syntax-ns#"
   xmlns:svg="http://www.w3.org/2000/svg"
   xmlns="http://www.w3.org/2000/svg"
   xmlns:sodipodi="http://sodipodi.sourceforge.net/DTD/sodipodi-0.dtd"
   xmlns:inkscape="http://www.inkscape.org/namespaces/inkscape"
   version="1.1"
   id="svg4149"
   viewBox="0 0 60.000001 36.000001"
   height="36"
   width="60"
   inkscape:version="0.91 r13725"
   sodipodi:docname="bus.svg">
  <sodipodi:namedview
     pagecolor="#ffffff"
     bordercolor="#666666"
     borderopacity="1"
     objecttolerance="10"
     gridtolerance="10"
     guidetolerance="10"
     inkscape:pageopacity="0"
     inkscape:pageshadow="2"
     inkscape:window-width="1920"
     inkscape:window-height="983"
     id="namedview4758"
     showgrid="false"
     inkscape:zoom="5.4833333"
     inkscape:cx="9.4832827"
     inkscape:cy="18"
     inkscape:window-x="0"
     inkscape:window-y="0"
     inkscape:window-maximized="1"
     inkscape:current-layer="g4703" />
  <defs
     id="defs4151" />
  <metadata
     id="metadata4154">
    <rdf:RDF>
      <cc:Work
         rdf:about="">
        <dc:format>image/svg+xml</dc:format>
        <dc:type
           rdf:resource="http://purl.org/dc/dcmitype/StillImage" />
        <dc:title></dc:title>
      </cc:Work>
    </rdf:RDF>
  </metadata>
  <g
     transform="translate(0,-1016.3622)"
     id="layer1">
    <g
       transform="translate(0.44642857,-0.26785714)"
       id="g4703">
      <rect
         style="color:#000000;clip-rule:nonzero;display:inline;overflow:visible;visibility:visible;opacity:1;isolation:auto;mix-blend-mode:normal;color-interpolation:sRGB;color-interpolation-filters:linearRGB;solid-color:#000000;solid-opacity:1;fill:#33ff22;fill-opacity:1;fill-rule:nonzero;stroke:#000000;stroke-width:1.64300001;stroke-linecap:butt;stroke-linejoin:miter;stroke-miterlimit:4;stroke-dasharray:none;stroke-dashoffset:0;stroke-opacity:1;color-rendering:auto;image-rendering:auto;shape-rendering:auto;text-rendering:auto;enable-background:accumulate"
         id="rect4697"
         width="58.165283"
         height="34.30352"
         x="0.49610263"
         y="1017.5489"
         ry="5.8083773" />
      <g
         style="font-style:normal;font-variant:normal;font-weight:600;font-stretch:normal;font-size:30px;line-height:125%;font-family:FreeSans;-inkscape-font-specification:'FreeSans, Semi-Bold';text-align:start;letter-spacing:0px;word-spacing:0px;writing-mode:lr-tb;text-anchor:start;fill:#000000;fill-opacity:1;stroke:none;stroke-width:1px;stroke-linecap:butt;stroke-linejoin:miter;stroke-opacity:1"
         id="text4699">
        <path
           d="m 22.45113,1037.5539 q 0,0.63 -0.21,1.225 -0.21,0.595 -0.6825,1.1725 -0.455,0.5775 -1.3825,0.9275 -0.9275,0.35 -2.205,0.35 l -5.74,0 0,-12.7575 5.6875,0 q 1.19,0 2.0475,0.35 0.875,0.35 1.295,0.91 0.4375,0.5425 0.63,1.0675 0.1925,0.525 0.1925,1.0325 0,0.8225 -0.4025,1.4175 -0.4025,0.595 -1.3475,1.2075 2.1175,1.2425 2.1175,3.0975 z m -7.595,-6.895 0,2.8875 2.8525,0 q 1.855,0 1.855,-1.435 0,-1.4525 -1.855,-1.4525 l -2.8525,0 z m 0,5.075 0,3.3075 3.1325,0 q 1.9425,0 1.9425,-1.645 0,-1.6625 -1.9425,-1.6625 l -3.1325,0 z"
           style="font-style:normal;font-variant:normal;font-weight:600;font-stretch:normal;font-size:17.5px;line-height:125%;font-family:FreeSans;-inkscape-font-specification:'FreeSans, Semi-Bold';text-align:start;writing-mode:lr-tb;text-anchor:start"
           id="path5301" />
        <path
           d="m 30.940818,1041.5089 q -0.6475,0.1225 -1.3475,0.1225 -0.7,0 -1.365,-0.1225 -0.6475,-0.1225 -1.3475,-0.4375 -0.6825,-0.315 -1.19,-0.805 -0.5075,-0.49 -0.84,-1.295 -0.315,-0.8225 -0.315,-1.855 l 0,-8.645 2.625,0 0,8.645 q 0,2.275 2.4325,2.275 2.4325,0 2.4325,-2.275 l 0,-8.645 2.625,0 0,8.645 q 0,1.0325 -0.3325,1.855 -0.315,0.805 -0.8225,1.295 -0.5075,0.49 -1.2075,0.805 -0.6825,0.315 -1.3475,0.4375 z"
           style="font-style:normal;font-variant:normal;font-weight:600;font-stretch:normal;font-size:17.5px;line-height:125%;font-family:FreeSans;-inkscape-font-specification:'FreeSans, Semi-Bold';text-align:start;writing-mode:lr-tb;text-anchor:start"
           id="path5303" />
        <path
           d="m 46.818239,1032.3564 -2.45,0 q -0.14,-1.995 -2.6775,-1.995 -1.015,0 -1.61,0.4375 -0.595,0.42 -0.595,1.1375 0,0.7 0.5075,1.05 0.5075,0.3325 1.9075,0.6125 l 1.995,0.385 q 1.7675,0.35 2.5725,1.19 0.805,0.8225 0.805,2.3275 0,1.9425 -1.3825,3.045 -1.3825,1.085 -3.85,1.085 -2.45,0 -3.815,-1.085 -1.3475,-1.085 -1.47,-3.1325 l 2.555,0 q 0.07,1.0325 0.805,1.575 0.735,0.5425 2.065,0.5425 1.19,0 1.8725,-0.455 0.7,-0.455 0.7,-1.26 0,-0.77 -0.5425,-1.19 -0.5425,-0.42 -1.855,-0.665 l -1.785,-0.35 q -1.9425,-0.3675 -2.765,-1.155 -0.8225,-0.7875 -0.8225,-2.275 0,-1.8725 1.26,-2.8875 1.2775,-1.0325 3.57,-1.0325 0.665,0 1.2775,0.087 0.63,0.088 1.33,0.3675 0.7,0.2625 1.2075,0.7 0.5075,0.42 0.84,1.19 0.35,0.7525 0.35,1.75 z"
           style="font-style:normal;font-variant:normal;font-weight:600;font-stretch:normal;font-size:17.5px;line-height:125%;font-family:FreeSans;-inkscape-font-specification:'FreeSans, Semi-Bold';text-align:start;writing-mode:lr-tb;text-anchor:start"
           id="path5305" />
      </g>
    </g>
  </g>
</svg>
