<?xml version="1.0" encoding="UTF-8" standalone="no"?>
<svg
   xmlns:dc="http://purl.org/dc/elements/1.1/"
   xmlns:cc="http://creativecommons.org/ns#"
   xmlns:rdf="http://www.w3.org/1999/02/22-rdf-syntax-ns#"
   xmlns:svg="http://www.w3.org/2000/svg"
   xmlns="http://www.w3.org/2000/svg"
   version="1.1"
   id="svg2"
   viewBox="0 0 297.28571 111.57143"
   height="111.57143"
   width="297.28571">
  <defs
     id="defs4" />
  <metadata
     id="metadata7">
    <rdf:RDF>
      <cc:Work
         rdf:about="">
        <dc:format>image/svg+xml</dc:format>
        <dc:type
           rdf:resource="http://purl.org/dc/dcmitype/StillImage" />
        <dc:title></dc:title>
      </cc:Work>
    </rdf:RDF>
  </metadata>
  <g
     transform="translate(-1.3571429,-925.14789)"
     id="layer1">
    <rect
       ry="10.7143"
       y="926.64789"
       x="2.8571429"
       height="108.57143"
       width="294.28571"
       id="rect4140"
       style="color:#000000;clip-rule:nonzero;display:inline;overflow:visible;visibility:visible;opacity:1;isolation:auto;mix-blend-mode:normal;color-interpolation:sRGB;color-interpolation-filters:linearRGB;solid-color:#000000;solid-opacity:1;fill:#0033b5;fill-opacity:1;fill-rule:nonzero;stroke:#ffffff;stroke-width:3;stroke-linecap:butt;stroke-linejoin:miter;stroke-miterlimit:4;stroke-dasharray:none;stroke-dashoffset:0;stroke-opacity:1;color-rendering:auto;image-rendering:auto;shape-rendering:auto;text-rendering:auto;enable-background:accumulate" />
    <g
       id="text7720"
       style="font-style:normal;font-variant:normal;font-weight:normal;font-stretch:normal;font-size:40px;line-height:1.25;font-family:'Lexend Deca';-inkscape-font-specification:'Lexend Deca, Normal';font-variant-ligatures:normal;font-variant-caps:normal;font-variant-numeric:normal;font-feature-settings:normal;text-align:start;letter-spacing:0px;word-spacing:0px;writing-mode:lr-tb;text-anchor:start;fill:#ffffff;fill-opacity:1;stroke:none"
       aria-label="Scotland Yard">
      <path
         id="path7722"
         style=""
         d="m 20.255814,988.20569 q 1.64,2.36 3.4,3.68 1.8,1.28 4.64,1.28 1.36,0 2.6,-0.44 1.24,-0.44 2.04,-1.28 0.8,-0.84 0.8,-2 0,-2 -1.72,-3.12 -1.68,-1.12 -4.76,-1.72 -3.92,-0.8 -6.24,-2.76 -2.32,-2 -2.32,-5.76 0,-2.4 1.32,-4.16 1.36,-1.76 3.56,-2.72 2.2,-0.96 4.76,-0.96 3.32,0 5.72,1.28 2.4,1.28 3.76,3.64 l -3.04,3 q -1.08,-1.8 -2.72,-2.92 -1.64,-1.12 -3.84,-1.12 -2.2,0 -3.72,1.04 -1.48,1 -1.48,2.8 0,2.04 1.56,3 1.6,0.92 4.2,1.48 2.36,0.48 4.48,1.48 2.12,1 3.44,2.6 1.36,1.56 1.36,3.8 0,4 -2.72,6.36 -2.72,2.36 -7.48,2.36 -3.24,0 -5.92,-1.28 -2.64,-1.28 -4.64,-4.16 z" />
      <path
         id="path7724"
         style=""
         d="m 45.737689,986.12569 q 0,2.08 0.92,3.72 0.96,1.6 2.48,2.56 1.56,0.92 3.32,0.92 2,0 3.48,-1.04 1.48,-1.04 2.4,-2.16 l 2.28,2.8 q -0.76,1.08 -2.08,2.04 -1.32,0.92 -3,1.52 -1.68,0.56 -3.52,0.56 -2.88,0 -5.2,-1.44 -2.32,-1.44 -3.68,-3.92 -1.32,-2.48 -1.32,-5.56 0,-3.12 1.32,-5.56 1.36,-2.48 3.68,-3.92 2.32,-1.44 5.2,-1.44 2.92,0 5.2,1.2 2.28,1.16 3.4,3.04 l -2.28,2.8 q -0.92,-1.36 -2.64,-2.32 -1.68,-1 -3.28,-1 -1.88,0 -3.4,0.96 -1.52,0.92 -2.4,2.56 -0.88,1.6 -0.88,3.68 z" />
      <path
         id="path7726"
         style=""
         d="m 84.623939,986.12569 q 0,3.2 -1.44,5.68 -1.4,2.44 -3.84,3.84 -2.4,1.4 -5.4,1.4 -3,0 -5.44,-1.4 -2.44,-1.4 -3.88,-3.84 -1.4,-2.48 -1.4,-5.68 0,-3.2 1.4,-5.64 1.44,-2.48 3.88,-3.88 2.44,-1.4 5.44,-1.4 3,0 5.4,1.4 2.44,1.4 3.84,3.88 1.44,2.44 1.44,5.64 z m -4.2,0 q 0.04,-2.12 -0.84,-3.72 -0.84,-1.64 -2.32,-2.52 -1.48,-0.92 -3.32,-0.92 -1.84,0 -3.36,0.92 -1.48,0.88 -2.36,2.52 -0.84,1.6 -0.8,3.72 -0.04,2.08 0.8,3.72 0.88,1.6 2.36,2.52 1.52,0.92 3.36,0.92 1.84,0 3.32,-0.92 1.48,-0.92 2.32,-2.52 0.88,-1.64 0.84,-3.72 z" />
      <path
         id="path7728"
         style=""
         d="m 95.833314,996.64569 h -4.12 v -17 h -4.36 v -4 h 4.36 v -5.36 h 4.12 v 5.36 h 4.879996 v 4 h -4.879996 z" />
      <path
         id="path7730"
         style=""
         d="m 104.50394,996.64569 v -29.6 h 4.12 v 29.6 z" />
      <path
         id="path7732"
         style=""
         d="m 133.67331,975.64569 v 21 h -4.16 v -3.24 q -0.96,1.32 -2.84,2.48 -1.88,1.16 -4.36,1.16 -2.64,0 -4.84,-1.4 -2.16,-1.4 -3.44,-3.88 -1.28,-2.48 -1.28,-5.68 0,-3.2 1.32,-5.64 1.32,-2.48 3.64,-3.84 2.32,-1.4 5.28,-1.4 2.2,0 3.84,0.96 1.68,0.96 2.68,2.24 v -2.76 z m -10.4,17.6 q 1.92,0 3.36,-0.92 1.44,-0.96 2.24,-2.56 0.8,-1.64 0.8,-3.68 0,-2 -0.8,-3.6 -0.8,-1.6 -2.24,-2.52 -1.44,-0.96 -3.36,-0.96 -1.84,0 -3.28,0.92 -1.44,0.92 -2.24,2.52 -0.8,1.6 -0.8,3.64 0,2.04 0.8,3.68 0.8,1.6 2.24,2.56 1.44,0.92 3.28,0.92 z" />
      <path
         id="path7734"
         style=""
         d="m 150.42581,975.20569 q 2.84,0 4.4,1.16 1.56,1.16 2.16,3.12 0.64,1.96 0.64,4.36 v 12.8 h -4.12 v -12.52 q 0,-1.52 -0.4,-2.72 -0.4,-1.2 -1.36,-1.88 -0.96,-0.68 -2.68,-0.56 -1.6,0 -2.84,0.68 -1.24,0.68 -1.96,1.8 -0.72,1.12 -0.72,2.48 v 12.72 h -4.12 v -21 h 4.12 v 3.32 q 0.96,-1.48 2.8,-2.6 1.84,-1.16 4.08,-1.16 z" />
      <path
         id="path7736"
         style=""
         d="m 182.93394,967.04569 v 29.6 h -4.12 v -2.96 q -0.92,1.24 -2.72,2.32 -1.8,1.04 -4.08,1.04 -2.84,0 -5.12,-1.4 -2.28,-1.4 -3.6,-3.88 -1.32,-2.48 -1.32,-5.64 0,-3.2 1.32,-5.64 1.32,-2.48 3.56,-3.88 2.24,-1.4 5.04,-1.4 2.24,0 4.04,0.92 1.84,0.92 2.88,2.16 v -11.24 z m -10.36,26.44 q 1.92,0 3.36,-0.96 1.44,-0.96 2.24,-2.64 0.8,-1.68 0.8,-3.76 0,-2.12 -0.8,-3.76 -0.8,-1.68 -2.24,-2.64 -1.44,-0.96 -3.36,-0.96 -1.88,0 -3.32,0.96 -1.44,0.96 -2.28,2.64 -0.8,1.64 -0.8,3.76 0,2.08 0.8,3.76 0.84,1.68 2.28,2.64 1.44,0.96 3.32,0.96 z" />
      <path
         id="path7738"
         style=""
         d="m 222.93644,968.64569 -10.24,15.52 v 12.48 h -4.32 v -12.4 l -11.04,-15.6 h 5.2 l 8.08,11.6 7.36,-11.6 z" />
      <path
         id="path7740"
         style=""
         d="m 242.57956,975.64569 v 21 h -4.16 v -3.24 q -0.96,1.32 -2.84,2.48 -1.88,1.16 -4.36,1.16 -2.64,0 -4.84,-1.4 -2.16,-1.4 -3.44,-3.88 -1.28,-2.48 -1.28,-5.68 0,-3.2 1.32,-5.64 1.32,-2.48 3.64,-3.84 2.32,-1.4 5.28,-1.4 2.2,0 3.84,0.96 1.68,0.96 2.68,2.24 v -2.76 z m -10.4,17.6 q 1.92,0 3.36,-0.92 1.44,-0.96 2.24,-2.56 0.8,-1.64 0.8,-3.68 0,-2 -0.8,-3.6 -0.8,-1.6 -2.24,-2.52 -1.44,-0.96 -3.36,-0.96 -1.84,0 -3.28,0.92 -1.44,0.92 -2.24,2.52 -0.8,1.6 -0.8,3.64 0,2.04 0.8,3.68 0.8,1.6 2.24,2.56 1.44,0.92 3.28,0.92 z" />
      <path
         id="path7742"
         style=""
         d="m 260.09206,980.08569 q -0.4,-0.2 -1,-0.32 -0.56,-0.16 -1.2,-0.16 -1.28,0 -2.52,0.68 -1.24,0.64 -2.08,1.88 -0.8,1.2 -0.8,2.88 v 11.6 h -4.16 v -21 h 4.16 v 3.96 q 0.88,-1.92 2.64,-3.16 1.8,-1.24 3.76,-1.24 1.48,0 2.28,0.4 z" />
      <path
         id="path7744"
         style=""
         d="m 283.24644,967.04569 v 29.6 h -4.12 v -2.96 q -0.92,1.24 -2.72,2.32 -1.8,1.04 -4.08,1.04 -2.84,0 -5.12,-1.4 -2.28,-1.4 -3.6,-3.88 -1.32,-2.48 -1.32,-5.64 0,-3.2 1.32,-5.64 1.32,-2.48 3.56,-3.88 2.24,-1.4 5.04,-1.4 2.24,0 4.04,0.92 1.84,0.92 2.88,2.16 v -11.24 z m -10.36,26.44 q 1.92,0 3.36,-0.96 1.44,-0.96 2.24,-2.64 0.8,-1.68 0.8,-3.76 0,-2.12 -0.8,-3.76 -0.8,-1.68 -2.24,-2.64 -1.44,-0.96 -3.36,-0.96 -1.88,0 -3.32,0.96 -1.44,0.96 -2.28,2.64 -0.8,1.64 -0.8,3.76 0,2.08 0.8,3.76 0.84,1.68 2.28,2.64 1.44,0.96 3.32,0.96 z" />
    </g>
  </g>
</svg>
