<?xml version="1.0" encoding="UTF-8" standalone="no"?>
<svg
   xmlns:dc="http://purl.org/dc/elements/1.1/"
   xmlns:cc="http://creativecommons.org/ns#"
   xmlns:rdf="http://www.w3.org/1999/02/22-rdf-syntax-ns#"
   xmlns:svg="http://www.w3.org/2000/svg"
   xmlns="http://www.w3.org/2000/svg"
   xmlns:sodipodi="http://sodipodi.sourceforge.net/DTD/sodipodi-0.dtd"
   xmlns:inkscape="http://www.inkscape.org/namespaces/inkscape"
   version="1.1"
   id="svg2"
   viewBox="0 0 297.28571 111.57143"
   height="111.57143"
   width="297.28571"
   inkscape:version="0.91 r13725"
   sodipodi:docname="citadels.svg">
  <sodipodi:namedview
     pagecolor="#ffffff"
     bordercolor="#666666"
     borderopacity="1"
     objecttolerance="10"
     gridtolerance="10"
     guidetolerance="10"
     inkscape:pageopacity="0"
     inkscape:pageshadow="2"
     inkscape:window-width="1920"
     inkscape:window-height="1175"
     id="namedview4143"
     showgrid="false"
     inkscape:zoom="4.2753485"
     inkscape:cx="148.64285"
     inkscape:cy="55.902663"
     inkscape:window-x="1920"
     inkscape:window-y="0"
     inkscape:window-maximized="1"
     inkscape:current-layer="layer1" />
  <defs
     id="defs4" />
  <metadata
     id="metadata7">
    <rdf:RDF>
      <cc:Work
         rdf:about="">
        <dc:format>image/svg+xml</dc:format>
        <dc:type
           rdf:resource="http://purl.org/dc/dcmitype/StillImage" />
        <dc:title />
      </cc:Work>
    </rdf:RDF>
  </metadata>
  <g
     transform="translate(-1.3571429,-925.14789)"
     id="layer1">
    <rect
       ry="10.7143"
       y="926.64789"
       x="2.8571429"
       height="108.57143"
       width="294.28571"
       id="rect4140"
       style="color:#000000;clip-rule:nonzero;display:inline;overflow:visible;visibility:visible;opacity:1;isolation:auto;mix-blend-mode:normal;color-interpolation:sRGB;color-interpolation-filters:linearRGB;solid-color:#000000;solid-opacity:1;fill:#ffce00;fill-opacity:1;fill-rule:nonzero;stroke:#ffffff;stroke-width:3;stroke-linecap:butt;stroke-linejoin:miter;stroke-miterlimit:4;stroke-dasharray:none;stroke-dashoffset:0;stroke-opacity:1;color-rendering:auto;image-rendering:auto;shape-rendering:auto;text-rendering:auto;enable-background:accumulate" />
    <g
       style="font-style:normal;font-variant:normal;font-weight:normal;font-stretch:normal;font-size:55px;line-height:125%;font-family:'Lexend Deca';-inkscape-font-specification:'Lexend Deca, Normal';text-align:start;letter-spacing:0px;word-spacing:0px;writing-mode:lr-tb;text-anchor:start;fill:#000000;fill-opacity:1;stroke:none;stroke-width:1px;stroke-linecap:butt;stroke-linejoin:miter;stroke-opacity:1"
       id="text4152">
      <path
         d="m 74.926249,997.29039 q -1.155,1.32 -3.245,2.53 -2.035,1.21001 -4.73,1.98001 -2.64,0.77 -5.665,0.77 -5.17,0 -9.35,-2.42 -4.125,-2.47501 -6.6,-6.93001 -2.42,-4.455 -2.42,-10.45 0,-4.235 1.485,-7.81 1.485,-3.575 4.125,-6.215 2.64,-2.64 6.05,-4.07 3.41,-1.485 7.205,-1.485 3.135,0 5.83,0.99 2.75,0.935 4.785,2.475 2.09,1.485 3.245,3.19 l -3.96,4.125 q -2.035,-2.09 -4.51,-3.465 -2.475,-1.375 -5.39,-1.375 -3.3,0 -6.27,1.65 -2.915,1.65 -4.73,4.73 -1.815,3.025 -1.815,7.26 0,4.62 1.815,7.7 1.87,3.08 4.895,4.62 3.08,1.485 6.6,1.485 3.245,0 5.72,-1.265 2.475,-1.32 3.96,-2.86 l 2.97,4.84 z"
         style=""
         id="path4146" />
      <path
         d="m 85.414061,966.87539 q -1.925,0 -2.86,-0.99 -0.935,-0.99 -0.935,-2.585 0,-1.375 0.935,-2.475 0.935,-1.1 2.86,-1.1 1.925,0 2.86,0.99 0.935,0.99 0.935,2.585 0,1.375 -0.935,2.475 -0.935,1.1 -2.86,1.1 z m 2.915,35.14501 -5.665,0 0,-28.87501 5.665,0 0,28.87501 z"
         style=""
         id="path4148" />
      <path
         d="m 106.11297,1002.0204 -5.665,0 0,-23.37501 -5.995002,0 0,-5.5 5.995002,0 0,-7.37 5.665,0 0,7.37 6.71,0 0,5.5 -6.71,0 0,23.37501 z"
         style=""
         id="path4150" />
      <path
         d="m 144.60781,973.14539 0,28.87501 -5.72,0 0,-4.45501 q -1.32,1.815 -3.905,3.41001 -2.585,1.595 -5.995,1.595 -3.63,0 -6.655,-1.925 -2.97,-1.92501 -4.73,-5.33501 -1.76,-3.41 -1.76,-7.81 0,-4.4 1.815,-7.755 1.815,-3.41 5.005,-5.28 3.19,-1.925 7.26,-1.925 3.025,0 5.28,1.32 2.31,1.32 3.685,3.08 l 0,-3.795 5.72,0 z m -14.3,24.2 q 2.64,0 4.62,-1.265 1.98,-1.32 3.08,-3.52 1.1,-2.255 1.1,-5.06 0,-2.75 -1.1,-4.95 -1.1,-2.2 -3.08,-3.465 -1.98,-1.32 -4.62,-1.32 -2.53,0 -4.51,1.265 -1.98,1.265 -3.08,3.465 -1.1,2.2 -1.1,5.005 0,2.805 1.1,5.06 1.1,2.2 3.08,3.52 1.98,1.265 4.51,1.265 z"
         style=""
         id="path4152" />
      <path
         d="m 179.5775,961.32039 0,40.70001 -5.665,0 0,-4.07001 q -1.265,1.705 -3.74,3.19001 -2.475,1.43 -5.61,1.43 -3.905,0 -7.04,-1.925 -3.135,-1.92501 -4.95,-5.33501 -1.815,-3.41 -1.815,-7.755 0,-4.4 1.815,-7.755 1.815,-3.41 4.895,-5.335 3.08,-1.925 6.93,-1.925 3.08,0 5.555,1.265 2.53,1.265 3.96,2.97 l 0,-15.455 5.665,0 z m -14.245,36.355 q 2.64,0 4.62,-1.32 1.98,-1.32 3.08,-3.63 1.1,-2.31 1.1,-5.17 0,-2.915 -1.1,-5.17 -1.1,-2.31 -3.08,-3.63 -1.98,-1.32 -4.62,-1.32 -2.585,0 -4.565,1.32 -1.98,1.32 -3.135,3.63 -1.1,2.255 -1.1,5.17 0,2.86 1.1,5.17 1.155,2.31 3.135,3.63 1.98,1.32 4.565,1.32 z"
         style=""
         id="path4154" />
      <path
         d="m 212.23461,998.22539 -0.055,0 q -1.76,1.705 -4.84,3.02501 -3.08,1.32 -6.435,1.32 -4.51,0 -7.975,-1.87 -3.41,-1.92501 -5.335,-5.22501 -1.925,-3.355 -1.925,-7.59 0,-4.84 2.035,-8.25 2.035,-3.465 5.39,-5.28 3.355,-1.87 7.315,-1.87 3.63,0 6.6,1.815 2.97,1.76 4.73,4.895 1.76,3.135 1.76,7.315 l -0.055,2.42 -22.11,0 q 0.495,3.905 3.19,6.215 2.75,2.255 6.93,2.255 3.025,0 4.895,-1.1 1.87,-1.155 3.08,-2.2 l 2.805,4.125 z m -11.825,-20.515 q -3.245,0 -5.665,1.54 -2.42,1.485 -3.19,5.17 l 16.17,0 0,-0.385 q -0.165,-1.87 -1.265,-3.3 -1.045,-1.43 -2.64,-2.2 -1.595,-0.825 -3.41,-0.825 z"
         style=""
         id="path4156" />
      <path
         d="m 219.65617,1002.0204 0,-40.70001 5.665,0 0,40.70001 -5.665,0 z"
         style=""
         id="path4158" />
      <path
         d="m 250.07117,980.73539 q -1.54,-1.54 -3.52,-2.53 -1.925,-0.99 -3.575,-0.99 -1.155,0 -2.31,0.275 -1.1,0.275 -1.87,1.045 -0.77,0.715 -0.77,2.145 0.055,1.98 1.76,2.805 1.76,0.825 4.345,1.485 2.255,0.605 4.4,1.54 2.145,0.88 3.52,2.64 1.43,1.705 1.43,4.84 0,2.695 -1.54,4.62 -1.485,1.92501 -3.905,2.97001 -2.365,0.99 -5.005,0.99 -3.135,0 -6.215,-1.1 -3.025,-1.155 -5.17,-3.90501 l 3.85,-3.3 q 1.485,1.705 3.355,2.695 1.925,0.935 4.675,0.935 1.045,0 2.09,-0.33 1.045,-0.385 1.76,-1.155 0.77,-0.825 0.77,-2.2 0,-1.32 -0.825,-2.035 -0.77,-0.77 -2.09,-1.21 -1.32,-0.495 -2.915,-0.88 -2.365,-0.66 -4.675,-1.595 -2.255,-0.99 -3.795,-2.75 -1.485,-1.815 -1.485,-4.895 0,-2.585 1.43,-4.4 1.485,-1.87 3.85,-2.86 2.365,-1.045 5.06,-1.045 2.585,0 5.61,1.1 3.025,1.1 5.005,3.52 l -3.245,3.575 z"
         style=""
         id="path4160" />
    </g>
  </g>
</svg>
