<?xml version="1.0" encoding="UTF-8" standalone="no"?>
<svg
   xmlns:dc="http://purl.org/dc/elements/1.1/"
   xmlns:cc="http://creativecommons.org/ns#"
   xmlns:rdf="http://www.w3.org/1999/02/22-rdf-syntax-ns#"
   xmlns:svg="http://www.w3.org/2000/svg"
   xmlns="http://www.w3.org/2000/svg"
   xmlns:sodipodi="http://sodipodi.sourceforge.net/DTD/sodipodi-0.dtd"
   xmlns:inkscape="http://www.inkscape.org/namespaces/inkscape"
   version="1.1"
   id="svg2"
   viewBox="0 0 297.28571 111.57143"
   height="111.57143"
   width="297.28571"
   inkscape:version="0.91 r13725"
   sodipodi:docname="telestrations.svg">
  <sodipodi:namedview
     pagecolor="#ffffff"
     bordercolor="#666666"
     borderopacity="1"
     objecttolerance="10"
     gridtolerance="10"
     guidetolerance="10"
     inkscape:pageopacity="0"
     inkscape:pageshadow="2"
     inkscape:window-width="1920"
     inkscape:window-height="983"
     id="namedview4143"
     showgrid="false"
     inkscape:zoom="3.0231278"
     inkscape:cx="168.28851"
     inkscape:cy="48.361524"
     inkscape:window-x="0"
     inkscape:window-y="0"
     inkscape:window-maximized="1"
     inkscape:current-layer="layer1" />
  <defs
     id="defs4" />
  <metadata
     id="metadata7">
    <rdf:RDF>
      <cc:Work
         rdf:about="">
        <dc:format>image/svg+xml</dc:format>
        <dc:type
           rdf:resource="http://purl.org/dc/dcmitype/StillImage" />
        <dc:title></dc:title>
      </cc:Work>
    </rdf:RDF>
  </metadata>
  <g
     transform="translate(-1.3571429,-925.14789)"
     id="layer1">
    <rect
       ry="10.7143"
       y="926.64789"
       x="2.8571429"
       height="108.57143"
       width="294.28571"
       id="rect4140"
       style="color:#000000;clip-rule:nonzero;display:inline;overflow:visible;visibility:visible;opacity:1;isolation:auto;mix-blend-mode:normal;color-interpolation:sRGB;color-interpolation-filters:linearRGB;solid-color:#000000;solid-opacity:1;fill:#009100;fill-opacity:1;fill-rule:nonzero;stroke:#ffffff;stroke-width:3;stroke-linecap:butt;stroke-linejoin:miter;stroke-miterlimit:4;stroke-dasharray:none;stroke-dashoffset:0;stroke-opacity:1;color-rendering:auto;image-rendering:auto;shape-rendering:auto;text-rendering:auto;enable-background:accumulate" />
    <text
       id="text4152"
       y="1002.0204"
       x="40.276249"
       style="font-style:normal;font-variant:normal;font-weight:normal;font-stretch:normal;font-size:55px;line-height:125%;font-family:'Lexend Deca';-inkscape-font-specification:'Lexend Deca, Normal';text-align:start;letter-spacing:0px;word-spacing:0px;writing-mode:lr-tb;text-anchor:start;fill:#000000;fill-opacity:1;stroke:none;stroke-width:1px;stroke-linecap:butt;stroke-linejoin:miter;stroke-opacity:1"
       xml:space="preserve"
       sodipodi:linespacing="125%"><tspan
         y="1002.0204"
         x="40.276249"
         id="tspan4154" /></text>
    <text
       y="1002.0204"
       x="40.276249"
       style="font-style:normal;font-variant:normal;font-weight:normal;font-stretch:normal;font-size:55px;line-height:125%;font-family:'Lexend Deca';-inkscape-font-specification:'Lexend Deca, Normal';text-align:start;letter-spacing:0px;word-spacing:0px;writing-mode:lr-tb;text-anchor:start;fill:#000000;fill-opacity:1;stroke:none;stroke-width:1px;stroke-linecap:butt;stroke-linejoin:miter;stroke-opacity:1"
       xml:space="preserve"
       sodipodi:linespacing="125%"
       id="text4166" />
    <text
       y="1002.0204"
       x="40.276249"
       style="font-style:normal;font-variant:normal;font-weight:normal;font-stretch:normal;font-size:55px;line-height:125%;font-family:'Lexend Deca';-inkscape-font-specification:'Lexend Deca, Normal';text-align:start;letter-spacing:0px;word-spacing:0px;writing-mode:lr-tb;text-anchor:start;fill:#000000;fill-opacity:1;stroke:none;stroke-width:1px;stroke-linecap:butt;stroke-linejoin:miter;stroke-opacity:1"
       xml:space="preserve"
       sodipodi:linespacing="125%"
       id="text4174"><tspan
         y="1002.0204"
         x="40.276249"
         id="tspan4176" /></text>
    <g
       style="font-weight:bold;font-size:50px;line-height:125%;font-family:'Lexend Deca';-inkscape-font-specification:'Lexend Deca Bold';letter-spacing:0px;word-spacing:0px;writing-mode:lr-tb;fill:#a60000;fill-opacity:1;stroke:none;stroke-width:1px;stroke-linecap:butt;stroke-linejoin:miter;stroke-opacity:1"
       id="text4164">
      <path
         d="m 31.516976,997.44775 0,-25.33 -8.33,0 0,-4.42 21.505,0 0,4.42 -8.585,0 0,25.33 -4.59,0 z"
         style="font-size:42.5px"
         id="path4169" />
      <path
         d="m 64.180882,994.51525 -0.0425,0 q -1.36,1.3175 -3.74,2.3375 -2.38,1.02 -4.9725,1.02 -3.485,0 -6.1625,-1.445 -2.635,-1.4875 -4.1225,-4.0375 -1.4875,-2.5925 -1.4875,-5.865 0,-3.74 1.5725,-6.375 1.5725,-2.6775 4.165,-4.08 2.5925,-1.445 5.6525,-1.445 2.805,0 5.1,1.4025 2.295,1.36 3.655,3.7825 1.36,2.4225 1.36,5.6525 l -0.0425,1.87 -17.085,0 q 0.3825,3.0175 2.465,4.8025 2.125,1.7425 5.355,1.7425 2.3375,0 3.7825,-0.85 1.445,-0.8925 2.38,-1.7 l 2.1675,3.1875 z m -9.1375,-15.8525 q -2.5075,0 -4.3775,1.19 -1.87,1.1475 -2.465,3.995 l 12.495,0 0,-0.2975 q -0.1275,-1.445 -0.9775,-2.55 -0.8075,-1.105 -2.04,-1.7 -1.2325,-0.6375 -2.635,-0.6375 z"
         style="font-size:42.5px"
         id="path4171" />
      <path
         d="m 69.915726,997.44775 0,-31.45 4.3775,0 0,31.45 -4.3775,0 z"
         style="font-size:42.5px"
         id="path4173" />
      <path
         d="m 99.293187,994.51525 -0.0425,0 q -1.36,1.3175 -3.74,2.3375 -2.38,1.02 -4.9725,1.02 -3.485,0 -6.1625,-1.445 -2.635,-1.4875 -4.1225,-4.0375 -1.4875,-2.5925 -1.4875,-5.865 0,-3.74 1.5725,-6.375 1.5725,-2.6775 4.165,-4.08 2.5925,-1.445 5.6525,-1.445 2.805,0 5.1,1.4025 2.295,1.36 3.655,3.7825 1.360003,2.4225 1.360003,5.6525 l -0.0425,1.87 -17.085003,0 q 0.3825,3.0175 2.465,4.8025 2.125,1.7425 5.355,1.7425 2.3375,0 3.7825,-0.85 1.445,-0.8925 2.38,-1.7 l 2.1675,3.1875 z m -9.1375,-15.8525 q -2.5075,0 -4.3775,1.19 -1.87,1.1475 -2.465,3.995 l 12.495,0 0,-0.2975 q -0.1275,-1.445 -0.9775,-2.55 -0.8075,-1.105 -2.04,-1.7 -1.2325,-0.6375 -2.635,-0.6375 z"
         style="font-size:42.5px"
         id="path4175" />
      <path
         d="m 117.90553,981.00025 q -1.19,-1.19 -2.72,-1.955 -1.4875,-0.765 -2.7625,-0.765 -0.8925,0 -1.785,0.2125 -0.85,0.2125 -1.445,0.8075 -0.595,0.5525 -0.595,1.6575 0.0425,1.53 1.36,2.1675 1.36,0.6375 3.3575,1.1475 1.7425,0.4675 3.4,1.19 1.6575,0.68 2.72,2.04 1.105,1.3175 1.105,3.74 0,2.0825 -1.19,3.57 -1.1475,1.4875 -3.0175,2.295 -1.8275,0.765 -3.8675,0.765 -2.4225,0 -4.8025,-0.85 -2.3375,-0.8925 -3.995,-3.0175 l 2.975,-2.55 q 1.1475,1.3175 2.5925,2.0825 1.4875,0.7225 3.6125,0.7225 0.8075,0 1.615,-0.255 0.8075,-0.2975 1.36,-0.8925 0.595,-0.6375 0.595,-1.7 0,-1.02 -0.6375,-1.5725 -0.595,-0.595 -1.615,-0.935 -1.02,-0.3825 -2.2525,-0.68 -1.8275,-0.51 -3.6125,-1.2325 -1.7425,-0.765 -2.9325,-2.125 -1.1475,-1.4025 -1.1475,-3.7825 0,-1.9975 1.105,-3.4 1.1475,-1.445 2.975,-2.21 1.8275,-0.8075 3.91,-0.8075 1.9975,0 4.335,0.85 2.3375,0.85 3.8675,2.72 l -2.5075,2.7625 z"
         style="font-size:42.5px"
         id="path4177" />
      <path
         d="m 132.50494,997.44775 -4.3775,0 0,-18.0625 -4.6325,0 0,-4.25 4.6325,0 0,-5.695 4.3775,0 0,5.695 5.185,0 0,4.25 -5.185,0 0,18.0625 z"
         style="font-size:42.5px"
         id="path4179" />
      <path
         d="m 154.21248,979.85275 q -0.425,-0.2125 -1.0625,-0.34 -0.595,-0.17 -1.275,-0.17 -1.36,0 -2.6775,0.7225 -1.3175,0.68 -2.21,1.9975 -0.85,1.275 -0.85,3.06 l 0,12.325 -4.42,0 0,-22.3125 4.42,0 0,4.2075 q 0.935,-2.04 2.805,-3.3575 1.9125,-1.3175 3.995,-1.3175 1.5725,0 2.4225,0.425 l -1.1475,4.76 z"
         style="font-size:42.5px"
         id="path4181" />
      <path
         d="m 178.68651,975.13525 0,22.3125 -4.42,0 0,-3.4425 q -1.02,1.4025 -3.0175,2.635 -1.9975,1.2325 -4.6325,1.2325 -2.805,0 -5.1425,-1.4875 -2.295,-1.4875 -3.655,-4.1225 -1.36,-2.635 -1.36,-6.035 0,-3.4 1.4025,-5.9925 1.4025,-2.635 3.8675,-4.08 2.465,-1.4875 5.61,-1.4875 2.3375,0 4.08,1.02 1.785,1.02 2.8475,2.38 l 0,-2.9325 4.42,0 z m -11.05,18.7 q 2.04,0 3.57,-0.9775 1.53,-1.02 2.38,-2.72 0.85,-1.7425 0.85,-3.91 0,-2.125 -0.85,-3.825 -0.85,-1.7 -2.38,-2.6775 -1.53,-1.02 -3.57,-1.02 -1.955,0 -3.485,0.9775 -1.53,0.9775 -2.38,2.6775 -0.85,1.7 -0.85,3.8675 0,2.1675 0.85,3.91 0.85,1.7 2.38,2.72 1.53,0.9775 3.485,0.9775 z"
         style="font-size:42.5px"
         id="path4183" />
      <path
         d="m 191.93854,997.44775 -4.3775,0 0,-18.0625 -4.6325,0 0,-4.25 4.6325,0 0,-5.695 4.3775,0 0,5.695 5.185,0 0,4.25 -5.185,0 0,18.0625 z"
         style="font-size:42.5px"
         id="path4185" />
      <path
         d="m 204.08358,970.29025 q -1.4875,0 -2.21,-0.765 -0.7225,-0.765 -0.7225,-1.9975 0,-1.0625 0.7225,-1.9125 0.7225,-0.85 2.21,-0.85 1.4875,0 2.21,0.765 0.7225,0.765 0.7225,1.9975 0,1.0625 -0.7225,1.9125 -0.7225,0.85 -2.21,0.85 z m 2.2525,27.1575 -4.3775,0 0,-22.3125 4.3775,0 0,22.3125 z"
         style="font-size:42.5px"
         id="path4187" />
      <path
         d="m 234.31569,986.27025 q 0,3.4 -1.53,6.035 -1.4875,2.5925 -4.08,4.08 -2.55,1.4875 -5.7375,1.4875 -3.1875,0 -5.78,-1.4875 -2.5925,-1.4875 -4.1225,-4.08 -1.4875,-2.635 -1.4875,-6.035 0,-3.4 1.4875,-5.9925 1.53,-2.635 4.1225,-4.1225 2.5925,-1.4875 5.78,-1.4875 3.1875,0 5.7375,1.4875 2.5925,1.4875 4.08,4.1225 1.53,2.5925 1.53,5.9925 z m -4.4625,0 q 0.0425,-2.2525 -0.8925,-3.9525 -0.8925,-1.7425 -2.465,-2.6775 -1.5725,-0.9775 -3.5275,-0.9775 -1.955,0 -3.57,0.9775 -1.5725,0.935 -2.5075,2.6775 -0.8925,1.7 -0.85,3.9525 -0.0425,2.21 0.85,3.9525 0.935,1.7 2.5075,2.6775 1.615,0.9775 3.57,0.9775 1.955,0 3.5275,-0.9775 1.5725,-0.9775 2.465,-2.6775 0.935,-1.7425 0.8925,-3.9525 z"
         style="font-size:42.5px"
         id="path4189" />
      <path
         d="m 250.77315,974.66775 q 3.0175,0 4.675,1.2325 1.6575,1.2325 2.295,3.315 0.68,2.0825 0.68,4.6325 l 0,13.6 -4.3775,0 0,-13.3025 q 0,-1.615 -0.425,-2.89 -0.425,-1.275 -1.445,-1.9975 -1.02,-0.7225 -2.8475,-0.595 -1.7,0 -3.0175,0.7225 -1.3175,0.7225 -2.0825,1.9125 -0.765,1.19 -0.765,2.635 l 0,13.515 -4.3775,0 0,-22.3125 4.3775,0 0,3.5275 q 1.02,-1.5725 2.975,-2.7625 1.955,-1.2325 4.335,-1.2325 z"
         style="font-size:42.5px"
         id="path4191" />
      <path
         d="m 277.28053,981.00025 q -1.19,-1.19 -2.72,-1.955 -1.4875,-0.765 -2.7625,-0.765 -0.8925,0 -1.785,0.2125 -0.85,0.2125 -1.445,0.8075 -0.595,0.5525 -0.595,1.6575 0.0425,1.53 1.36,2.1675 1.36,0.6375 3.3575,1.1475 1.7425,0.4675 3.4,1.19 1.6575,0.68 2.72,2.04 1.105,1.3175 1.105,3.74 0,2.0825 -1.19,3.57 -1.1475,1.4875 -3.0175,2.295 -1.8275,0.765 -3.8675,0.765 -2.4225,0 -4.8025,-0.85 -2.3375,-0.8925 -3.995,-3.0175 l 2.975,-2.55 q 1.1475,1.3175 2.5925,2.0825 1.4875,0.7225 3.6125,0.7225 0.8075,0 1.615,-0.255 0.8075,-0.2975 1.36,-0.8925 0.595,-0.6375 0.595,-1.7 0,-1.02 -0.6375,-1.5725 -0.595,-0.595 -1.615,-0.935 -1.02,-0.3825 -2.2525,-0.68 -1.8275,-0.51 -3.6125,-1.2325 -1.7425,-0.765 -2.9325,-2.125 -1.1475,-1.4025 -1.1475,-3.7825 0,-1.9975 1.105,-3.4 1.1475,-1.445 2.975,-2.21 1.8275,-0.8075 3.91,-0.8075 1.9975,0 4.335,0.85 2.3375,0.85 3.8675,2.72 l -2.5075,2.7625 z"
         style="font-size:42.5px"
         id="path4193" />
    </g>
  </g>
</svg>
