<?xml version="1.0" encoding="UTF-8" standalone="no"?>
<svg
   xmlns:dc="http://purl.org/dc/elements/1.1/"
   xmlns:cc="http://creativecommons.org/ns#"
   xmlns:rdf="http://www.w3.org/1999/02/22-rdf-syntax-ns#"
   xmlns:svg="http://www.w3.org/2000/svg"
   xmlns="http://www.w3.org/2000/svg"
   xmlns:sodipodi="http://sodipodi.sourceforge.net/DTD/sodipodi-0.dtd"
   xmlns:inkscape="http://www.inkscape.org/namespaces/inkscape"
   version="1.1"
   id="svg2"
   viewBox="0 0 297.28571 111.57143"
   height="111.57143"
   width="297.28571"
   inkscape:version="0.91 r13725"
   sodipodi:docname="fake_artist.svg">
  <sodipodi:namedview
     pagecolor="#ffffff"
     bordercolor="#666666"
     borderopacity="1"
     objecttolerance="10"
     gridtolerance="10"
     guidetolerance="10"
     inkscape:pageopacity="0"
     inkscape:pageshadow="2"
     inkscape:window-width="1920"
     inkscape:window-height="1175"
     id="namedview4143"
     showgrid="false"
     inkscape:zoom="1.0688371"
     inkscape:cx="248.70218"
     inkscape:cy="212.92683"
     inkscape:window-x="1920"
     inkscape:window-y="0"
     inkscape:window-maximized="1"
     inkscape:current-layer="layer1" />
  <defs
     id="defs4" />
  <metadata
     id="metadata7">
    <rdf:RDF>
      <cc:Work
         rdf:about="">
        <dc:format>image/svg+xml</dc:format>
        <dc:type
           rdf:resource="http://purl.org/dc/dcmitype/StillImage" />
        <dc:title></dc:title>
      </cc:Work>
    </rdf:RDF>
  </metadata>
  <g
     transform="translate(-1.3571429,-925.14789)"
     id="layer1">
    <rect
       ry="10.7143"
       y="926.64789"
       x="2.8571429"
       height="108.57143"
       width="294.28571"
       id="rect4140"
       style="color:#000000;clip-rule:nonzero;display:inline;overflow:visible;visibility:visible;opacity:1;isolation:auto;mix-blend-mode:normal;color-interpolation:sRGB;color-interpolation-filters:linearRGB;solid-color:#000000;solid-opacity:1;fill:#ff9100;fill-opacity:1;fill-rule:nonzero;stroke:#ffffff;stroke-width:3;stroke-linecap:butt;stroke-linejoin:miter;stroke-miterlimit:4;stroke-dasharray:none;stroke-dashoffset:0;stroke-opacity:1;color-rendering:auto;image-rendering:auto;shape-rendering:auto;text-rendering:auto;enable-background:accumulate" />
    <text
       id="text4152"
       y="1002.0204"
       x="40.276249"
       style="font-style:normal;font-variant:normal;font-weight:normal;font-stretch:normal;font-size:55px;line-height:125%;font-family:'Lexend Deca';-inkscape-font-specification:'Lexend Deca, Normal';text-align:start;letter-spacing:0px;word-spacing:0px;writing-mode:lr-tb;text-anchor:start;fill:#000000;fill-opacity:1;stroke:none;stroke-width:1px;stroke-linecap:butt;stroke-linejoin:miter;stroke-opacity:1"
       xml:space="preserve"
       sodipodi:linespacing="125%"><tspan
         y="1002.0204"
         x="40.276249"
         id="tspan4154" /></text>
    <text
       y="1002.0204"
       x="40.276249"
       style="font-style:normal;font-variant:normal;font-weight:normal;font-stretch:normal;font-size:55px;line-height:125%;font-family:'Lexend Deca';-inkscape-font-specification:'Lexend Deca, Normal';text-align:start;letter-spacing:0px;word-spacing:0px;writing-mode:lr-tb;text-anchor:start;fill:#000000;fill-opacity:1;stroke:none;stroke-width:1px;stroke-linecap:butt;stroke-linejoin:miter;stroke-opacity:1"
       xml:space="preserve"
       sodipodi:linespacing="125%"
       id="text4166" />
    <text
       y="1002.0204"
       x="40.276249"
       style="font-style:normal;font-variant:normal;font-weight:normal;font-stretch:normal;font-size:55px;line-height:125%;font-family:'Lexend Deca';-inkscape-font-specification:'Lexend Deca, Normal';text-align:start;letter-spacing:0px;word-spacing:0px;writing-mode:lr-tb;text-anchor:start;fill:#000000;fill-opacity:1;stroke:none;stroke-width:1px;stroke-linecap:butt;stroke-linejoin:miter;stroke-opacity:1"
       xml:space="preserve"
       sodipodi:linespacing="125%"
       id="text4174"><tspan
         y="1002.0204"
         x="40.276249"
         id="tspan4176" /></text>
    <g
       style="font-style:normal;font-variant:normal;font-weight:600;font-stretch:normal;font-size:50px;line-height:125%;font-family:FreeSans;-inkscape-font-specification:'FreeSans, Semi-Bold';text-align:start;letter-spacing:0px;word-spacing:0px;writing-mode:lr-tb;text-anchor:start;fill:#000000;fill-opacity:1;stroke:none;stroke-width:1px;stroke-linecap:butt;stroke-linejoin:miter;stroke-opacity:1"
       id="text4180">
      <path
         d="m 73.079053,972.16321 -1.98,-5.22 -8.79,0 -1.98,5.22 -3.3,0 8.13,-21 3.3,0 8.07,21 -3.45,0 z m -7.98,-12.54 -1.59,4.2 6.42,0 -1.65,-4.32 q -0.39,-1.05 -0.78,-2.25 -0.39,-1.23 -0.78,-2.46 -0.42,1.26 -0.84,2.52 -0.39,1.26 -0.78,2.31 z"
         style="font-style:normal;font-variant:normal;font-weight:normal;font-stretch:normal;font-size:30px;line-height:125%;font-family:'Lexend Deca';-inkscape-font-specification:'Lexend Deca, Normal';text-align:center;writing-mode:lr-tb;text-anchor:middle"
         id="path4191" />
      <path
         d="m 88.574521,972.16321 0,-21 13.619999,0 0,3.12 -10.379999,0 0,5.82 9.029999,0 0,3.12 -9.029999,0 0,8.94 -3.24,0 z"
         style="font-style:normal;font-variant:normal;font-weight:normal;font-stretch:normal;font-size:30px;line-height:125%;font-family:'Lexend Deca';-inkscape-font-specification:'Lexend Deca, Normal';text-align:center;writing-mode:lr-tb;text-anchor:middle"
         id="path4193" />
      <path
         d="m 120.04265,956.41321 0,15.75 -3.12,0 0,-2.43 q -0.72,0.99 -2.13,1.86 -1.41,0.87 -3.27,0.87 -1.98,0 -3.63,-1.05 -1.62,-1.05 -2.58,-2.91 -0.96,-1.86 -0.96,-4.26 0,-2.4 0.99,-4.23 0.99,-1.86 2.73,-2.88 1.74,-1.05 3.96,-1.05 1.65,0 2.88,0.72 1.26,0.72 2.01,1.68 l 0,-2.07 3.12,0 z m -7.8,13.2 q 1.44,0 2.52,-0.69 1.08,-0.72 1.68,-1.92 0.6,-1.23 0.6,-2.76 0,-1.5 -0.6,-2.7 -0.6,-1.2 -1.68,-1.89 -1.08,-0.72 -2.52,-0.72 -1.38,0 -2.46,0.69 -1.08,0.69 -1.68,1.89 -0.6,1.2 -0.6,2.73 0,1.53 0.6,2.76 0.6,1.2 1.68,1.92 1.08,0.69 2.46,0.69 z"
         style="font-style:normal;font-variant:normal;font-weight:normal;font-stretch:normal;font-size:30px;line-height:125%;font-family:'Lexend Deca';-inkscape-font-specification:'Lexend Deca, Normal';text-align:center;writing-mode:lr-tb;text-anchor:middle"
         id="path4195" />
      <path
         d="m 124.35702,972.16321 0,-22.2 3.09,0 0,13.5 7.11,-7.05 4.17,0 -7.38,6.93 7.59,8.82 -3.96,0 -5.82,-6.78 -1.71,1.62 0,5.16 -3.09,0 z"
         style="font-style:normal;font-variant:normal;font-weight:normal;font-stretch:normal;font-size:30px;line-height:125%;font-family:'Lexend Deca';-inkscape-font-specification:'Lexend Deca, Normal';text-align:center;writing-mode:lr-tb;text-anchor:middle"
         id="path4197" />
      <path
         d="m 154.29327,970.09321 -0.03,0 q -0.96,0.93 -2.64,1.65 -1.68,0.72 -3.51,0.72 -2.46,0 -4.35,-1.02 -1.86,-1.05 -2.91,-2.85 -1.05,-1.83 -1.05,-4.14 0,-2.64 1.11,-4.5 1.11,-1.89 2.94,-2.88 1.83,-1.02 3.99,-1.02 1.98,0 3.6,0.99 1.62,0.96 2.58,2.67 0.96,1.71 0.96,3.99 l -0.03,1.32 -12.06,0 q 0.27,2.13 1.74,3.39 1.5,1.23 3.78,1.23 1.65,0 2.67,-0.6 1.02,-0.63 1.68,-1.2 l 1.53,2.25 z m -6.45,-11.19 q -1.77,0 -3.09,0.84 -1.32,0.81 -1.74,2.82 l 8.82,0 0,-0.21 q -0.09,-1.02 -0.69,-1.8 -0.57,-0.78 -1.44,-1.2 -0.87,-0.45 -1.86,-0.45 z"
         style="font-style:normal;font-variant:normal;font-weight:normal;font-stretch:normal;font-size:30px;line-height:125%;font-family:'Lexend Deca';-inkscape-font-specification:'Lexend Deca, Normal';text-align:center;writing-mode:lr-tb;text-anchor:middle"
         id="path4199" />
      <path
         d="m 181.3603,972.16321 -1.98,-5.22 -8.79,0 -1.98,5.22 -3.3,0 8.13,-21 3.3,0 8.07,21 -3.45,0 z m -7.98,-12.54 -1.59,4.2 6.42,0 -1.65,-4.32 q -0.39,-1.05 -0.78,-2.25 -0.39,-1.23 -0.78,-2.46 -0.42,1.26 -0.84,2.52 -0.39,1.26 -0.78,2.31 z"
         style="font-style:normal;font-variant:normal;font-weight:normal;font-stretch:normal;font-size:30px;line-height:125%;font-family:'Lexend Deca';-inkscape-font-specification:'Lexend Deca, Normal';text-align:center;writing-mode:lr-tb;text-anchor:middle"
         id="path4201" />
      <path
         d="m 196.51687,959.74321 q -0.3,-0.15 -0.75,-0.24 -0.42,-0.12 -0.9,-0.12 -0.96,0 -1.89,0.51 -0.93,0.48 -1.56,1.41 -0.6,0.9 -0.6,2.16 l 0,8.7 -3.12,0 0,-15.75 3.12,0 0,2.97 q 0.66,-1.44 1.98,-2.37 1.35,-0.93 2.82,-0.93 1.11,0 1.71,0.3 l -0.81,3.36 z"
         style="font-style:normal;font-variant:normal;font-weight:normal;font-stretch:normal;font-size:30px;line-height:125%;font-family:'Lexend Deca';-inkscape-font-specification:'Lexend Deca, Normal';text-align:center;writing-mode:lr-tb;text-anchor:middle"
         id="path4203" />
      <path
         d="m 205.39312,972.16321 -3.09,0 0,-12.75 -3.27,0 0,-3 3.27,0 0,-4.02 3.09,0 0,4.02 3.66,0 0,3 -3.66,0 0,12.75 z"
         style="font-style:normal;font-variant:normal;font-weight:normal;font-stretch:normal;font-size:30px;line-height:125%;font-family:'Lexend Deca';-inkscape-font-specification:'Lexend Deca, Normal';text-align:center;writing-mode:lr-tb;text-anchor:middle"
         id="path4205" />
      <path
         d="m 213.96608,952.99321 q -1.05,0 -1.56,-0.54 -0.51,-0.54 -0.51,-1.41 0,-0.75 0.51,-1.35 0.51,-0.6 1.56,-0.6 1.05,0 1.56,0.54 0.51,0.54 0.51,1.41 0,0.75 -0.51,1.35 -0.51,0.6 -1.56,0.6 z m 1.59,19.17 -3.09,0 0,-15.75 3.09,0 0,15.75 z"
         style="font-style:normal;font-variant:normal;font-weight:normal;font-stretch:normal;font-size:30px;line-height:125%;font-family:'Lexend Deca';-inkscape-font-specification:'Lexend Deca, Normal';text-align:center;writing-mode:lr-tb;text-anchor:middle"
         id="path4207" />
      <path
         d="m 229.3064,960.55321 q -0.84,-0.84 -1.92,-1.38 -1.05,-0.54 -1.95,-0.54 -0.63,0 -1.26,0.15 -0.6,0.15 -1.02,0.57 -0.42,0.39 -0.42,1.17 0.03,1.08 0.96,1.53 0.96,0.45 2.37,0.81 1.23,0.33 2.4,0.84 1.17,0.48 1.92,1.44 0.78,0.93 0.78,2.64 0,1.47 -0.84,2.52 -0.81,1.05 -2.13,1.62 -1.29,0.54 -2.73,0.54 -1.71,0 -3.39,-0.6 -1.65,-0.63 -2.82,-2.13 l 2.1,-1.8 q 0.81,0.93 1.83,1.47 1.05,0.51 2.55,0.51 0.57,0 1.14,-0.18 0.57,-0.21 0.96,-0.63 0.42,-0.45 0.42,-1.2 0,-0.72 -0.45,-1.11 -0.42,-0.42 -1.14,-0.66 -0.72,-0.27 -1.59,-0.48 -1.29,-0.36 -2.55,-0.87 -1.23,-0.54 -2.07,-1.5 -0.81,-0.99 -0.81,-2.67 0,-1.41 0.78,-2.4 0.81,-1.02 2.1,-1.56 1.29,-0.57 2.76,-0.57 1.41,0 3.06,0.6 1.65,0.6 2.73,1.92 l -1.77,1.95 z"
         style="font-style:normal;font-variant:normal;font-weight:normal;font-stretch:normal;font-size:30px;line-height:125%;font-family:'Lexend Deca';-inkscape-font-specification:'Lexend Deca, Normal';text-align:center;writing-mode:lr-tb;text-anchor:middle"
         id="path4209" />
      <path
         d="m 239.61187,972.16321 -3.09,0 0,-12.75 -3.27,0 0,-3 3.27,0 0,-4.02 3.09,0 0,4.02 3.66,0 0,3 -3.66,0 0,12.75 z"
         style="font-style:normal;font-variant:normal;font-weight:normal;font-stretch:normal;font-size:30px;line-height:125%;font-family:'Lexend Deca';-inkscape-font-specification:'Lexend Deca, Normal';text-align:center;writing-mode:lr-tb;text-anchor:middle"
         id="path4211" />
      <path
         d="m 26.995537,1012.2732 q 0.9,0.69 2.25,1.11 1.35,0.42 2.64,0.42 2.43,0 3.72,-1.2 1.29,-1.17 1.29,-3.54 l 0,-1.92 q -0.42,0.72 -1.2,1.38 -0.78,0.63 -1.83,1.05 -1.05,0.39 -2.19,0.39 -2.19,0 -3.96,-1.05 -1.77,-1.05 -2.82,-2.91 -1.02,-1.86 -1.02,-4.23 0,-2.39999 1.02,-4.22999 1.02,-1.86 2.76,-2.91 1.77,-1.05 3.93,-1.05 1.8,0 3.18,0.81 1.41,0.78 2.13,1.71 l 0,-2.19 3.09,0 0,14.78999 q 0,2.82 -1.14,4.53 -1.11,1.74 -2.97,2.52 -1.83,0.81 -3.99,0.81 -1.68,0 -3.36,-0.54 -1.65,-0.51 -2.67,-1.35 l 1.14,-2.4 z m 5.01,-15.86999 q -1.44,0 -2.58,0.72 -1.11,0.69 -1.77,1.92 -0.63,1.19999 -0.63,2.72999 0,1.53 0.63,2.73 0.66,1.2 1.77,1.92 1.14,0.69 2.58,0.69 1.5,0 2.61,-0.69 1.14,-0.69 1.77,-1.89 0.63,-1.23 0.63,-2.76 0,-1.56 -0.63,-2.75999 -0.63,-1.2 -1.77,-1.89 -1.11,-0.72 -2.61,-0.72 z"
         style="font-style:normal;font-variant:normal;font-weight:normal;font-stretch:normal;font-size:30px;line-height:125%;font-family:'Lexend Deca';-inkscape-font-specification:'Lexend Deca, Normal';text-align:center;writing-mode:lr-tb;text-anchor:middle"
         id="path4213" />
      <path
         d="m 59.378662,1001.7732 q 0,2.4 -1.08,4.26 -1.05,1.83 -2.88,2.88 -1.8,1.05 -4.05,1.05 -2.25,0 -4.08,-1.05 -1.83,-1.05 -2.91,-2.88 -1.05,-1.86 -1.05,-4.26 0,-2.39999 1.05,-4.22999 1.08,-1.86 2.91,-2.91 1.83,-1.05 4.08,-1.05 2.25,0 4.05,1.05 1.83,1.05 2.88,2.91 1.08,1.83 1.08,4.22999 z m -3.15,0 q 0.03,-1.59 -0.63,-2.78999 -0.63,-1.23 -1.74,-1.89 -1.11,-0.69 -2.49,-0.69 -1.38,0 -2.52,0.69 -1.11,0.66 -1.77,1.89 -0.63,1.19999 -0.6,2.78999 -0.03,1.56 0.6,2.79 0.66,1.2 1.77,1.89 1.14,0.69 2.52,0.69 1.38,0 2.49,-0.69 1.11,-0.69 1.74,-1.89 0.66,-1.23 0.63,-2.79 z"
         style="font-style:normal;font-variant:normal;font-weight:normal;font-stretch:normal;font-size:30px;line-height:125%;font-family:'Lexend Deca';-inkscape-font-specification:'Lexend Deca, Normal';text-align:center;writing-mode:lr-tb;text-anchor:middle"
         id="path4215" />
      <path
         d="m 76.275693,1007.5932 -0.03,0 q -0.96,0.93 -2.64,1.65 -1.68,0.72 -3.51,0.72 -2.46,0 -4.35,-1.02 -1.86,-1.05 -2.91,-2.85 -1.05,-1.83 -1.05,-4.14 0,-2.63999 1.11,-4.49999 1.11,-1.89 2.94,-2.88 1.83,-1.02 3.99,-1.02 1.98,0 3.6,0.99 1.62,0.96 2.58,2.67 0.96,1.71 0.96,3.98999 l -0.03,1.32 -12.06,0 q 0.27,2.13 1.74,3.39 1.5,1.23 3.78,1.23 1.65,0 2.67,-0.6 1.02,-0.63 1.68,-1.2 l 1.53,2.25 z m -6.45,-11.18999 q -1.77,0 -3.09,0.84 -1.32,0.81 -1.74,2.81999 l 8.82,0 0,-0.20999 q -0.09,-1.02 -0.69,-1.8 -0.57,-0.78 -1.44,-1.2 -0.87,-0.45 -1.86,-0.45 z"
         style="font-style:normal;font-variant:normal;font-weight:normal;font-stretch:normal;font-size:30px;line-height:125%;font-family:'Lexend Deca';-inkscape-font-specification:'Lexend Deca, Normal';text-align:center;writing-mode:lr-tb;text-anchor:middle"
         id="path4217" />
      <path
         d="m 89.413818,998.05321 q -0.84,-0.84 -1.92,-1.38 -1.05,-0.54 -1.95,-0.54 -0.63,0 -1.26,0.15 -0.6,0.15 -1.02,0.57 -0.42,0.39 -0.42,1.17 0.03,1.08 0.96,1.53 0.96,0.44999 2.37,0.80999 1.23,0.33 2.4,0.84 1.17,0.48 1.92,1.44 0.78,0.93 0.78,2.64 0,1.47 -0.84,2.52 -0.81,1.05 -2.13,1.62 -1.29,0.54 -2.73,0.54 -1.71,0 -3.39,-0.6 -1.65,-0.63 -2.82,-2.13 l 2.1,-1.8 q 0.81,0.93 1.83,1.47 1.05,0.51 2.55,0.51 0.57,0 1.14,-0.18 0.57,-0.21 0.96,-0.63 0.42,-0.45 0.42,-1.2 0,-0.72 -0.45,-1.11 -0.42,-0.42 -1.14,-0.66 -0.72,-0.27 -1.59,-0.48 -1.29,-0.36 -2.55,-0.87 -1.23,-0.54 -2.07,-1.5 -0.81,-0.98999 -0.81,-2.66999 0,-1.41 0.78,-2.4 0.81,-1.02 2.1,-1.56 1.29,-0.57 2.76,-0.57 1.41,0 3.06,0.6 1.65,0.6 2.73,1.92 l -1.77,1.95 z"
         style="font-style:normal;font-variant:normal;font-weight:normal;font-stretch:normal;font-size:30px;line-height:125%;font-family:'Lexend Deca';-inkscape-font-specification:'Lexend Deca, Normal';text-align:center;writing-mode:lr-tb;text-anchor:middle"
         id="path4219" />
      <path
         d="m 108.09819,1009.6632 -3.09,0 0,-12.74999 -3.27,0 0,-3 3.27,0 0,-4.02 3.09,0 0,4.02 3.66,0 0,3 -3.66,0 0,12.74999 z"
         style="font-style:normal;font-variant:normal;font-weight:normal;font-stretch:normal;font-size:30px;line-height:125%;font-family:'Lexend Deca';-inkscape-font-specification:'Lexend Deca, Normal';text-align:center;writing-mode:lr-tb;text-anchor:middle"
         id="path4221" />
      <path
         d="m 129.51538,1001.7732 q 0,2.4 -1.08,4.26 -1.05,1.83 -2.88,2.88 -1.8,1.05 -4.05,1.05 -2.25,0 -4.08,-1.05 -1.83,-1.05 -2.91,-2.88 -1.05,-1.86 -1.05,-4.26 0,-2.39999 1.05,-4.22999 1.08,-1.86 2.91,-2.91 1.83,-1.05 4.08,-1.05 2.25,0 4.05,1.05 1.83,1.05 2.88,2.91 1.08,1.83 1.08,4.22999 z m -3.15,0 q 0.03,-1.59 -0.63,-2.78999 -0.63,-1.23 -1.74,-1.89 -1.11,-0.69 -2.49,-0.69 -1.38,0 -2.52,0.69 -1.11,0.66 -1.77,1.89 -0.63,1.19999 -0.6,2.78999 -0.03,1.56 0.6,2.79 0.66,1.2 1.77,1.89 1.14,0.69 2.52,0.69 1.38,0 2.49,-0.69 1.11,-0.69 1.74,-1.89 0.66,-1.23 0.63,-2.79 z"
         style="font-style:normal;font-variant:normal;font-weight:normal;font-stretch:normal;font-size:30px;line-height:125%;font-family:'Lexend Deca';-inkscape-font-specification:'Lexend Deca, Normal';text-align:center;writing-mode:lr-tb;text-anchor:middle"
         id="path4223" />
      <path
         d="m 156.71132,988.66321 3.24,0 0,20.99999 -2.97,0 -12.21,-16.01999 q 0.18,1.83 0.33,3.66 0.18,1.8 0.18,3.62999 l 0,8.73 -3.24,0 0,-20.99999 2.91,0 12.21,16.34999 q -0.27,-2.19 -0.36,-4.71 -0.09,-2.54999 -0.09,-4.73999 l 0,-6.9 z"
         style="font-style:normal;font-variant:normal;font-weight:normal;font-stretch:normal;font-size:30px;line-height:125%;font-family:'Lexend Deca';-inkscape-font-specification:'Lexend Deca, Normal';text-align:center;writing-mode:lr-tb;text-anchor:middle"
         id="path4225" />
      <path
         d="m 178.58038,1007.5932 -0.03,0 q -0.96,0.93 -2.64,1.65 -1.68,0.72 -3.51,0.72 -2.46,0 -4.35,-1.02 -1.86,-1.05 -2.91,-2.85 -1.05,-1.83 -1.05,-4.14 0,-2.63999 1.11,-4.49999 1.11,-1.89 2.94,-2.88 1.83,-1.02 3.99,-1.02 1.98,0 3.6,0.99 1.62,0.96 2.58,2.67 0.96,1.71 0.96,3.98999 l -0.03,1.32 -12.06,0 q 0.27,2.13 1.74,3.39 1.5,1.23 3.78,1.23 1.65,0 2.67,-0.6 1.02,-0.63 1.68,-1.2 l 1.53,2.25 z m -6.45,-11.18999 q -1.77,0 -3.09,0.84 -1.32,0.81 -1.74,2.81999 l 8.82,0 0,-0.20999 q -0.09,-1.02 -0.69,-1.8 -0.57,-0.78 -1.44,-1.2 -0.87,-0.45 -1.86,-0.45 z"
         style="font-style:normal;font-variant:normal;font-weight:normal;font-stretch:normal;font-size:30px;line-height:125%;font-family:'Lexend Deca';-inkscape-font-specification:'Lexend Deca, Normal';text-align:center;writing-mode:lr-tb;text-anchor:middle"
         id="path4227" />
      <path
         d="m 203.51554,993.91321 -5.31,15.74999 -2.13,0 -4.02,-9.15 -3.75,9.15 -2.1,0 -5.37,-15.74999 3.12,-0.03 3.54,10.85999 3.78,-8.33999 1.86,0 3.75,8.21999 3.51,-10.70999 3.12,0 z"
         style="font-style:normal;font-variant:normal;font-weight:normal;font-stretch:normal;font-size:30px;line-height:125%;font-family:'Lexend Deca';-inkscape-font-specification:'Lexend Deca, Normal';text-align:center;writing-mode:lr-tb;text-anchor:middle"
         id="path4229" />
      <path
         d="m 232.07788,988.66321 -7.68,11.63999 0,9.36 -3.24,0 0,-9.3 -8.28,-11.69999 3.9,0 6.06,8.7 5.52,-8.7 3.72,0 z"
         style="font-style:normal;font-variant:normal;font-weight:normal;font-stretch:normal;font-size:30px;line-height:125%;font-family:'Lexend Deca';-inkscape-font-specification:'Lexend Deca, Normal';text-align:center;writing-mode:lr-tb;text-anchor:middle"
         id="path4231" />
      <path
         d="m 247.23022,1001.7732 q 0,2.4 -1.08,4.26 -1.05,1.83 -2.88,2.88 -1.8,1.05 -4.05,1.05 -2.25,0 -4.08,-1.05 -1.83,-1.05 -2.91,-2.88 -1.05,-1.86 -1.05,-4.26 0,-2.39999 1.05,-4.22999 1.08,-1.86 2.91,-2.91 1.83,-1.05 4.08,-1.05 2.25,0 4.05,1.05 1.83,1.05 2.88,2.91 1.08,1.83 1.08,4.22999 z m -3.15,0 q 0.03,-1.59 -0.63,-2.78999 -0.63,-1.23 -1.74,-1.89 -1.11,-0.69 -2.49,-0.69 -1.38,0 -2.52,0.69 -1.11,0.66 -1.77,1.89 -0.63,1.19999 -0.6,2.78999 -0.03,1.56 0.6,2.79 0.66,1.2 1.77,1.89 1.14,0.69 2.52,0.69 1.38,0 2.49,-0.69 1.11,-0.69 1.74,-1.89 0.66,-1.23 0.63,-2.79 z"
         style="font-style:normal;font-variant:normal;font-weight:normal;font-stretch:normal;font-size:30px;line-height:125%;font-family:'Lexend Deca';-inkscape-font-specification:'Lexend Deca, Normal';text-align:center;writing-mode:lr-tb;text-anchor:middle"
         id="path4233" />
      <path
         d="m 259.41726,997.24321 q -0.3,-0.15 -0.75,-0.24 -0.42,-0.12 -0.9,-0.12 -0.96,0 -1.89,0.51 -0.93,0.48 -1.56,1.41 -0.6,0.9 -0.6,2.15999 l 0,8.7 -3.12,0 0,-15.74999 3.12,0 0,2.97 q 0.66,-1.44 1.98,-2.37 1.35,-0.93 2.82,-0.93 1.11,0 1.71,0.3 l -0.81,3.36 z"
         style="font-style:normal;font-variant:normal;font-weight:normal;font-stretch:normal;font-size:30px;line-height:125%;font-family:'Lexend Deca';-inkscape-font-specification:'Lexend Deca, Normal';text-align:center;writing-mode:lr-tb;text-anchor:middle"
         id="path4235" />
      <path
         d="m 262.66757,1009.6632 0,-22.19999 3.09,0 0,13.49999 7.11,-7.04999 4.17,0 -7.38,6.92999 7.59,8.82 -3.96,0 -5.82,-6.78 -1.71,1.62 0,5.16 -3.09,0 z"
         style="font-style:normal;font-variant:normal;font-weight:normal;font-stretch:normal;font-size:30px;line-height:125%;font-family:'Lexend Deca';-inkscape-font-specification:'Lexend Deca, Normal';text-align:center;writing-mode:lr-tb;text-anchor:middle"
         id="path4237" />
    </g>
  </g>
</svg>
