<?xml version="1.0" encoding="UTF-8" standalone="no"?>
<svg
   xmlns:dc="http://purl.org/dc/elements/1.1/"
   xmlns:cc="http://creativecommons.org/ns#"
   xmlns:rdf="http://www.w3.org/1999/02/22-rdf-syntax-ns#"
   xmlns:svg="http://www.w3.org/2000/svg"
   xmlns="http://www.w3.org/2000/svg"
   xmlns:sodipodi="http://sodipodi.sourceforge.net/DTD/sodipodi-0.dtd"
   xmlns:inkscape="http://www.inkscape.org/namespaces/inkscape"
   width="297.28571"
   height="111.57143"
   viewBox="0 0 297.28571 111.57143"
   id="svg2"
   version="1.1"
   inkscape:version="0.91 r13725"
   sodipodi:docname="codenames_lobby_icon.svg">
  <sodipodi:namedview
     pagecolor="#ffffff"
     bordercolor="#666666"
     borderopacity="1"
     objecttolerance="10"
     gridtolerance="10"
     guidetolerance="10"
     inkscape:pageopacity="0"
     inkscape:pageshadow="2"
     inkscape:window-width="1920"
     inkscape:window-height="1175"
     id="namedview16"
     showgrid="false"
     inkscape:zoom="2.226814"
     inkscape:cx="20.44823"
     inkscape:cy="-0.87475276"
     inkscape:window-x="1920"
     inkscape:window-y="0"
     inkscape:window-maximized="1"
     inkscape:current-layer="layer1" />
  <defs
     id="defs4" />
  <metadata
     id="metadata7">
    <rdf:RDF>
      <cc:Work
         rdf:about="">
        <dc:format>image/svg+xml</dc:format>
        <dc:type
           rdf:resource="http://purl.org/dc/dcmitype/StillImage" />
        <dc:title></dc:title>
      </cc:Work>
    </rdf:RDF>
  </metadata>
  <g
     id="layer1"
     transform="translate(-1.3571429,-925.14789)">
    <rect
       style="color:#000000;clip-rule:nonzero;display:inline;overflow:visible;visibility:visible;opacity:1;isolation:auto;mix-blend-mode:normal;color-interpolation:sRGB;color-interpolation-filters:linearRGB;solid-color:#000000;solid-opacity:1;fill:#0037ff;fill-opacity:1;fill-rule:nonzero;stroke:#ff0000;stroke-width:3;stroke-linecap:butt;stroke-linejoin:miter;stroke-miterlimit:4;stroke-dasharray:none;stroke-dashoffset:0;stroke-opacity:1;color-rendering:auto;image-rendering:auto;shape-rendering:auto;text-rendering:auto;enable-background:accumulate"
       id="rect4140"
       width="294.28571"
       height="108.57143"
       x="2.8571429"
       y="926.64789"
       ry="10.7143" />
    <g
       style="font-weight:bold;font-size:50px;line-height:125%;font-family:'Lexend Deca';-inkscape-font-specification:'Lexend Deca Bold';letter-spacing:0px;word-spacing:0px;writing-mode:lr-tb;fill:#ff0030;fill-opacity:1;stroke:none;stroke-width:1px;stroke-linecap:butt;stroke-linejoin:miter;stroke-opacity:1"
       id="text4143">
      <path
         d="m 50.36446,993.78002 q -0.945,1.08 -2.655,2.07 -1.665,0.99 -3.87,1.62 -2.16,0.63 -4.635,0.63 -4.23,0 -7.65,-1.98 -3.375,-2.025 -5.4,-5.67 -1.98,-3.645 -1.98,-8.55 0,-3.465 1.215,-6.39 1.215,-2.925 3.375,-5.085 2.16,-2.16 4.95,-3.33 2.79,-1.215 5.895,-1.215 2.565,0 4.77,0.81 2.25,0.765 3.915,2.025 1.71,1.215 2.655,2.61 l -3.24,3.375 q -1.665,-1.71 -3.69,-2.835 -2.025,-1.125 -4.41,-1.125 -2.7,0 -5.13,1.35 -2.385,1.35 -3.87,3.87 -1.485,2.475 -1.485,5.94 0,3.78 1.485,6.3 1.53,2.52 4.005,3.78 2.52,1.215 5.4,1.215 2.655,0 4.68,-1.035 2.025,-1.08 3.24,-2.34 l 2.43,3.96 z"
         style="font-size:45px;fill:#ff0030;fill-opacity:1;stroke:none"
         id="path4148" />
      <path
         d="m 78.475397,985.81502 q 0,3.6 -1.62,6.39 -1.575,2.745 -4.32,4.32 -2.7,1.575 -6.075,1.575 -3.375,0 -6.12,-1.575 -2.745,-1.575 -4.365,-4.32 -1.575,-2.79 -1.575,-6.39 0,-3.6 1.575,-6.345 1.62,-2.79 4.365,-4.365 2.745,-1.575 6.12,-1.575 3.375,0 6.075,1.575 2.745,1.575 4.32,4.365 1.62,2.745 1.62,6.345 z m -4.725,0 q 0.045,-2.385 -0.945,-4.185 -0.945,-1.845 -2.61,-2.835 -1.665,-1.035 -3.735,-1.035 -2.07,0 -3.78,1.035 -1.665,0.99 -2.655,2.835 -0.945,1.8 -0.9,4.185 -0.045,2.34 0.9,4.185 0.99,1.8 2.655,2.835 1.71,1.035 3.78,1.035 2.07,0 3.735,-1.035 1.665,-1.035 2.61,-2.835 0.99,-1.845 0.945,-4.185 z"
         style="font-size:45px;fill:#ff0030;fill-opacity:1;stroke:none"
         id="path4150" />
      <path
         d="m 105.66594,964.35002 0,33.3 -4.635,0 0,-3.33 q -1.034996,1.395 -3.059996,2.61 -2.025,1.17 -4.59,1.17 -3.195,0 -5.76,-1.575 -2.565,-1.575 -4.05,-4.365 -1.485,-2.79 -1.485,-6.345 0,-3.6 1.485,-6.345 1.485,-2.79 4.005,-4.365 2.52,-1.575 5.67,-1.575 2.52,0 4.545,1.035 2.07,1.035 3.239996,2.43 l 0,-12.645 4.635,0 z m -11.654996,29.745 q 2.16,0 3.78,-1.08 1.62,-1.08 2.519996,-2.97 0.9,-1.89 0.9,-4.23 0,-2.385 -0.9,-4.23 -0.899996,-1.89 -2.519996,-2.97 -1.62,-1.08 -3.78,-1.08 -2.115,0 -3.735,1.08 -1.62,1.08 -2.565,2.97 -0.9,1.845 -0.9,4.23 0,2.34 0.9,4.23 0.945,1.89 2.565,2.97 1.62,1.08 3.735,1.08 z"
         style="font-size:45px;fill:#ff0030;fill-opacity:1;stroke:none"
         id="path4152" />
      <path
         d="m 132.3854,994.54502 -0.045,0 q -1.44,1.395 -3.96,2.475 -2.52,1.08 -5.265,1.08 -3.69,0 -6.525,-1.53 -2.79,-1.575 -4.365,-4.275 -1.575,-2.745 -1.575,-6.21 0,-3.96 1.665,-6.75 1.665,-2.835 4.41,-4.32 2.745,-1.53 5.985,-1.53 2.97,0 5.4,1.485 2.43,1.44 3.87,4.005 1.44,2.565 1.44,5.985 l -0.045,1.98 -18.09,0 q 0.405,3.195 2.61,5.085 2.25,1.845 5.67,1.845 2.475,0 4.005,-0.9 1.53,-0.945 2.52,-1.8 l 2.295,3.375 z m -9.675,-16.785 q -2.655,0 -4.635,1.26 -1.98,1.215 -2.61,4.23 l 13.23,0 0,-0.315 q -0.135,-1.53 -1.035,-2.7 -0.855,-1.17 -2.16,-1.8 -1.305,-0.675 -2.79,-0.675 z"
         style="font-size:45px;fill:#ff0030;fill-opacity:1;stroke:none"
         id="path4154" />
      <path
         d="m 150.83258,973.53002 q 3.195,0 4.95,1.305 1.755,1.305 2.43,3.51 0.72,2.205 0.72,4.905 l 0,14.4 -4.635,0 0,-14.085 q 0,-1.71 -0.45,-3.06 -0.45,-1.35 -1.53,-2.115 -1.08,-0.765 -3.015,-0.63 -1.8,0 -3.195,0.765 -1.395,0.765 -2.205,2.025 -0.81,1.26 -0.81,2.79 l 0,14.31 -4.635,0 0,-23.625 4.635,0 0,3.735 q 1.08,-1.665 3.15,-2.925 2.07,-1.305 4.59,-1.305 z"
         style="font-size:45px;fill:#ff0030;fill-opacity:1;stroke:none"
         id="path4156" />
      <path
         d="m 187.26923,974.02502 0,23.625 -4.68,0 0,-3.645 q -1.08,1.485 -3.195,2.79 -2.115,1.305 -4.905,1.305 -2.97,0 -5.445,-1.575 -2.43,-1.575 -3.87,-4.365 -1.44,-2.79 -1.44,-6.39 0,-3.6 1.485,-6.345 1.485,-2.79 4.095,-4.32 2.61,-1.575 5.94,-1.575 2.475,0 4.32,1.08 1.89,1.08 3.015,2.52 l 0,-3.105 4.68,0 z m -11.7,19.8 q 2.16,0 3.78,-1.035 1.62,-1.08 2.52,-2.88 0.9,-1.845 0.9,-4.14 0,-2.25 -0.9,-4.05 -0.9,-1.8 -2.52,-2.835 -1.62,-1.08 -3.78,-1.08 -2.07,0 -3.69,1.035 -1.62,1.035 -2.52,2.835 -0.9,1.8 -0.9,4.095 0,2.295 0.9,4.14 0.9,1.8 2.52,2.88 1.62,1.035 3.69,1.035 z"
         style="font-size:45px;fill:#ff0030;fill-opacity:1;stroke:none"
         id="path4158" />
      <path
         d="m 205.75579,973.62002 q 2.925,0 4.68,1.35 1.755,1.305 2.52,3.6 0.63,-1.125 1.845,-2.25 1.215,-1.17 2.835,-1.935 1.62,-0.765 3.465,-0.765 3.06,0 4.77,1.35 1.71,1.305 2.385,3.555 0.72,2.205 0.72,4.95 l 0,14.175 -4.68,0 0,-13.905 q 0,-2.61 -0.99,-4.23 -0.99,-1.62 -3.735,-1.62 -2.61,0 -4.32,1.665 -1.665,1.62 -1.665,3.96 l 0,14.13 -4.68,0 0,-13.995 q 0,-2.52 -1.08,-4.14 -1.08,-1.62 -3.555,-1.62 -1.71,0 -3.06,0.765 -1.35,0.765 -2.115,2.025 -0.765,1.215 -0.765,2.745 l 0,14.22 -4.68,0 0,-23.625 4.68,0 0,3.78 q 1.08,-1.62 3.015,-2.88 1.98,-1.305 4.41,-1.305 z"
         style="font-size:45px;fill:#ff0030;fill-opacity:1;stroke:none"
         id="path4160" />
      <path
         d="m 255.52016,994.54502 -0.045,0 q -1.44,1.395 -3.96,2.475 -2.52,1.08 -5.265,1.08 -3.69,0 -6.525,-1.53 -2.79,-1.575 -4.365,-4.275 -1.575,-2.745 -1.575,-6.21 0,-3.96 1.665,-6.75 1.665,-2.835 4.41,-4.32 2.745,-1.53 5.985,-1.53 2.97,0 5.4,1.485 2.43,1.44 3.87,4.005 1.44,2.565 1.44,5.985 l -0.045,1.98 -18.09,0 q 0.405,3.195 2.61,5.085 2.25,1.845 5.67,1.845 2.475,0 4.005,-0.9 1.53,-0.945 2.52,-1.8 l 2.295,3.375 z m -9.675,-16.785 q -2.655,0 -4.635,1.26 -1.98,1.215 -2.61,4.23 l 13.23,0 0,-0.315 q -0.135,-1.53 -1.035,-2.7 -0.855,-1.17 -2.16,-1.8 -1.305,-0.675 -2.79,-0.675 z"
         style="font-size:45px;fill:#ff0030;fill-opacity:1;stroke:none"
         id="path4162" />
      <path
         d="m 275.22735,980.23502 q -1.26,-1.26 -2.88,-2.07 -1.575,-0.81 -2.925,-0.81 -0.945,0 -1.89,0.225 -0.9,0.225 -1.53,0.855 -0.63,0.585 -0.63,1.755 0.045,1.62 1.44,2.295 1.44,0.675 3.555,1.215 1.845,0.495 3.6,1.26 1.755,0.72 2.88,2.16 1.17,1.395 1.17,3.96 0,2.205 -1.26,3.78 -1.215,1.575 -3.195,2.43 -1.935,0.81 -4.095,0.81 -2.565,0 -5.085,-0.9 -2.475,-0.945 -4.23,-3.195 l 3.15,-2.7 q 1.215,1.395 2.745,2.205 1.575,0.765 3.825,0.765 0.855,0 1.71,-0.27 0.855,-0.315 1.44,-0.945 0.63,-0.675 0.63,-1.8 0,-1.08 -0.675,-1.665 -0.63,-0.63 -1.71,-0.99 -1.08,-0.405 -2.385,-0.72 -1.935,-0.54 -3.825,-1.305 -1.845,-0.81 -3.105,-2.25 -1.215,-1.485 -1.215,-4.005 0,-2.115 1.17,-3.6 1.215,-1.53 3.15,-2.34 1.935,-0.855 4.14,-0.855 2.115,0 4.59,0.9 2.475,0.9 4.095,2.88 l -2.655,2.925 z"
         style="font-size:45px;fill:#ff0030;fill-opacity:1;stroke:none"
         id="path4164" />
    </g>
  </g>
</svg>
