<?xml version="1.0" encoding="UTF-8" standalone="no"?>
<svg
   xmlns:dc="http://purl.org/dc/elements/1.1/"
   xmlns:cc="http://creativecommons.org/ns#"
   xmlns:rdf="http://www.w3.org/1999/02/22-rdf-syntax-ns#"
   xmlns:svg="http://www.w3.org/2000/svg"
   xmlns="http://www.w3.org/2000/svg"
   xmlns:sodipodi="http://sodipodi.sourceforge.net/DTD/sodipodi-0.dtd"
   xmlns:inkscape="http://www.inkscape.org/namespaces/inkscape"
   width="297.28571"
   height="111.57143"
   viewBox="0 0 297.28571 111.57143"
   id="svg2"
   version="1.1"
   inkscape:version="0.91 r13725"
   sodipodi:docname="monopoly_lobby_icon.svg">
  <sodipodi:namedview
     pagecolor="#ffffff"
     bordercolor="#666666"
     borderopacity="1"
     objecttolerance="10"
     gridtolerance="10"
     guidetolerance="10"
     inkscape:pageopacity="0"
     inkscape:pageshadow="2"
     inkscape:window-width="1920"
     inkscape:window-height="983"
     id="namedview16"
     showgrid="false"
     inkscape:zoom="2.226814"
     inkscape:cx="105.37421"
     inkscape:cy="-1.0992888"
     inkscape:window-x="0"
     inkscape:window-y="0"
     inkscape:window-maximized="1"
     inkscape:current-layer="layer1" />
  <defs
     id="defs4" />
  <metadata
     id="metadata7">
    <rdf:RDF>
      <cc:Work
         rdf:about="">
        <dc:format>image/svg+xml</dc:format>
        <dc:type
           rdf:resource="http://purl.org/dc/dcmitype/StillImage" />
        <dc:title></dc:title>
      </cc:Work>
    </rdf:RDF>
  </metadata>
  <g
     id="layer1"
     transform="translate(-1.3571429,-925.14789)">
    <rect
       style="color:#000000;clip-rule:nonzero;display:inline;overflow:visible;visibility:visible;opacity:1;isolation:auto;mix-blend-mode:normal;color-interpolation:sRGB;color-interpolation-filters:linearRGB;solid-color:#000000;solid-opacity:1;fill:#ff0003;fill-opacity:1;fill-rule:nonzero;stroke:#ffffff;stroke-width:3;stroke-linecap:butt;stroke-linejoin:miter;stroke-miterlimit:4;stroke-dasharray:none;stroke-dashoffset:0;stroke-opacity:1;color-rendering:auto;image-rendering:auto;shape-rendering:auto;text-rendering:auto;enable-background:accumulate"
       id="rect4140"
       width="294.28571"
       height="108.57143"
       x="2.8571429"
       y="926.64789"
       ry="10.7143" />
    <g
       style="font-weight:bold;font-size:50px;line-height:125%;font-family:'Lexend Deca';-inkscape-font-specification:'Lexend Deca Bold';letter-spacing:0px;word-spacing:0px;writing-mode:lr-tb;fill:#ffffff;fill-opacity:1;stroke:none;stroke-width:1px;stroke-linecap:butt;stroke-linejoin:miter;stroke-opacity:1"
       id="text4198">
      <path
         d="m 40.297757,961.3028 11.45,18.65 11.65,-18.65 5,0 0,35 -5.4,0 0,-14.35 q 0,-3.15 0.1,-5.95 0.15,-2.85 0.45,-5.65 l -10.3,15.9 -3.3,0 -10.05,-15.85 q 0.3,2.8 0.4,5.6 0.1,2.8 0.1,5.95 l 0,14.35 -5.4,0 0,-35 5.3,0 z"
         style=""
         id="path4203" />
      <path
         d="m 102.01182,983.1528 q 0,4 -1.8,7.1 -1.75,3.05 -4.8,4.8 -3,1.75 -6.75,1.75 -3.75,0 -6.8,-1.75 -3.05,-1.75 -4.85,-4.8 -1.75,-3.1 -1.75,-7.1 0,-4 1.75,-7.05 1.8,-3.1 4.85,-4.85 3.05,-1.75 6.8,-1.75 3.75,0 6.75,1.75 3.05,1.75 4.8,4.85 1.8,3.05 1.8,7.05 z m -5.25,0 q 0.05,-2.65 -1.05,-4.65 -1.05,-2.05 -2.9,-3.15 -1.85,-1.15 -4.15,-1.15 -2.3,0 -4.2,1.15 -1.85,1.1 -2.95,3.15 -1.05,2 -1,4.65 -0.05,2.6 1,4.65 1.1,2 2.95,3.15 1.9,1.15 4.2,1.15 2.3,0 4.15,-1.15 1.85,-1.15 2.9,-3.15 1.1,-2.05 1.05,-4.65 z"
         style=""
         id="path4205" />
      <path
         d="m 121.37354,969.5028 q 3.55,0 5.5,1.45 1.95,1.45 2.7,3.9 0.8,2.45 0.8,5.45 l 0,16 -5.15,0 0,-15.65 q 0,-1.9 -0.5,-3.4 -0.5,-1.5 -1.7,-2.35 -1.2,-0.85 -3.35,-0.7 -2,0 -3.55,0.85 -1.55,0.85 -2.45,2.25 -0.9,1.4 -0.9,3.1 l 0,15.9 -5.15,0 0,-26.25 5.15,0 0,4.15 q 1.2,-1.85 3.5,-3.25 2.3,-1.45 5.1,-1.45 z"
         style=""
         id="path4207" />
      <path
         d="m 162.55869,983.1528 q 0,4 -1.8,7.1 -1.75,3.05 -4.8,4.8 -3,1.75 -6.75,1.75 -3.75,0 -6.8,-1.75 -3.05,-1.75 -4.85,-4.8 -1.75,-3.1 -1.75,-7.1 0,-4 1.75,-7.05 1.8,-3.1 4.85,-4.85 3.05,-1.75 6.8,-1.75 3.75,0 6.75,1.75 3.05,1.75 4.8,4.85 1.8,3.05 1.8,7.05 z m -5.25,0 q 0.05,-2.65 -1.05,-4.65 -1.05,-2.05 -2.9,-3.15 -1.85,-1.15 -4.15,-1.15 -2.3,0 -4.2,1.15 -1.85,1.1 -2.95,3.15 -1.05,2 -1,4.65 -0.05,2.6 1,4.65 1.1,2 2.95,3.15 1.9,1.15 4.2,1.15 2.3,0 4.15,-1.15 1.85,-1.15 2.9,-3.15 1.1,-2.05 1.05,-4.65 z"
         style=""
         id="path4209" />
      <path
         d="m 181.87041,969.6028 q 3.5,0 6.25,1.75 2.8,1.7 4.4,4.75 1.6,3.05 1.6,7.05 0,3.95 -1.6,7.05 -1.6,3.05 -4.35,4.8 -2.75,1.75 -6.15,1.75 -2.8,0 -5.1,-1.2 -2.25,-1.2 -3.55,-2.75 l 0,14.5 -5.2,0 0,-37.3 5.2,0 0,3.85 q 1.15,-1.65 3.45,-2.95 2.3,-1.3 5.05,-1.3 z m -0.7,4.75 q -2.35,0 -4.2,1.15 -1.8,1.15 -2.85,3.15 -1,1.95 -1,4.5 0,2.5 1,4.5 1.05,2 2.85,3.2 1.85,1.15 4.2,1.15 2.35,0 4.15,-1.15 1.8,-1.2 2.8,-3.2 1.05,-2 1.05,-4.5 0,-2.55 -1.05,-4.5 -1,-2 -2.8,-3.15 -1.8,-1.15 -4.15,-1.15 z"
         style=""
         id="path4211" />
      <path
         d="m 224.86338,983.1528 q 0,4 -1.8,7.1 -1.75,3.05 -4.8,4.8 -3,1.75 -6.75,1.75 -3.75,0 -6.8,-1.75 -3.05,-1.75 -4.85,-4.8 -1.75,-3.1 -1.75,-7.1 0,-4 1.75,-7.05 1.8,-3.1 4.85,-4.85 3.05,-1.75 6.8,-1.75 3.75,0 6.75,1.75 3.05,1.75 4.8,4.85 1.8,3.05 1.8,7.05 z m -5.25,0 q 0.05,-2.65 -1.05,-4.65 -1.05,-2.05 -2.9,-3.15 -1.85,-1.15 -4.15,-1.15 -2.3,0 -4.2,1.15 -1.85,1.1 -2.95,3.15 -1.05,2 -1,4.65 -0.05,2.6 1,4.65 1.1,2 2.95,3.15 1.9,1.15 4.2,1.15 2.3,0 4.15,-1.15 1.85,-1.15 2.9,-3.15 1.1,-2.05 1.05,-4.65 z"
         style=""
         id="path4213" />
      <path
         d="m 230.4751,996.3028 0,-37 5.15,0 0,37 -5.15,0 z"
         style=""
         id="path4215" />
      <path
         d="m 246.59385,1007.8028 4.3,-9.85 0.15,-0.35 -12.2,-27.55 6,0 8.2,19.3 q 0.15,0.3 0.3,0.75 0.15,0.45 0.35,1 0.2,-0.55 0.35,-1.05 0.2,-0.55 0.4,-1.05 l 6.85,-18.95 6.1,0 -10.8,26.25 -4.45,11.5 -5.55,0 z"
         style=""
         id="path4217" />
    </g>
  </g>
</svg>
