<?xml version="1.0" encoding="UTF-8" standalone="no"?>
<svg
   xmlns:dc="http://purl.org/dc/elements/1.1/"
   xmlns:cc="http://creativecommons.org/ns#"
   xmlns:rdf="http://www.w3.org/1999/02/22-rdf-syntax-ns#"
   xmlns:svg="http://www.w3.org/2000/svg"
   xmlns="http://www.w3.org/2000/svg"
   width="297.28571"
   height="111.57143"
   viewBox="0 0 297.28571 111.57143"
   id="svg2"
   version="1.1">
  <defs
     id="defs4" />
  <metadata
     id="metadata7">
    <rdf:RDF>
      <cc:Work
         rdf:about="">
        <dc:format>image/svg+xml</dc:format>
        <dc:type
           rdf:resource="http://purl.org/dc/dcmitype/StillImage" />
        <dc:title></dc:title>
      </cc:Work>
    </rdf:RDF>
  </metadata>
  <g
     id="layer1"
     transform="translate(-1.3571429,-925.14789)">
    <rect
       style="color:#000000;clip-rule:nonzero;display:inline;overflow:visible;visibility:visible;opacity:1;isolation:auto;mix-blend-mode:normal;color-interpolation:sRGB;color-interpolation-filters:linearRGB;solid-color:#000000;solid-opacity:1;fill:#ff0000;fill-opacity:1;fill-rule:nonzero;stroke:#ffffff;stroke-width:3;stroke-linecap:butt;stroke-linejoin:miter;stroke-miterlimit:4;stroke-dasharray:none;stroke-dashoffset:0;stroke-opacity:1;color-rendering:auto;image-rendering:auto;shape-rendering:auto;text-rendering:auto;enable-background:accumulate"
       id="rect4140"
       width="294.28571"
       height="108.57143"
       x="2.8571429"
       y="926.64789"
       ry="10.7143" />
    <g
       id="text4136"
       style="font-style:normal;font-variant:normal;font-weight:normal;font-stretch:normal;font-size:50px;line-height:125%;font-family:'Lexend Deca';-inkscape-font-specification:'Lexend Deca, Normal';text-align:start;letter-spacing:0px;word-spacing:0px;writing-mode:lr-tb;text-anchor:start;fill:#ffffff;fill-opacity:1;stroke:none;stroke-width:1px;stroke-linecap:butt;stroke-linejoin:miter;stroke-opacity:1">
      <path
         id="path4190"
         style=""
         d="m 50.85,974.22648 q 0,3.15 -1.9,5.85 -1.85,2.7 -4.85,4 l 8.15,14.05 -6.55,-0.05 -7.4,-13.15 -8,0 0,13.15 -5.4,0 0,-35 14.9,0 q 2.75,0 5.25,1.35 2.55,1.35 4.15,3.85 1.65,2.5 1.65,5.95 z m -11.95,-5.95 -8.6,0 0,11.45 10,0 q 2.4,0 3.7,-1.7 1.35,-1.7 1.35,-3.85 0,-2.75 -1.9,-4.3 -1.9,-1.6 -4.55,-1.6 z" />
      <path
         id="path4192"
         style=""
         d="m 75.777344,987.62648 0,-15.8 5.15,0 0,26.25 -5.15,0 0,-4.2 q -1.15,1.85 -3.4,3.3 -2.2,1.4 -5.3,1.4 -4.1,0 -6.65,-2.8 -2.55,-2.8 -2.55,-7.75 l 0,-16.2 5.15,0 0,14.8 q 0,2 0.6,3.7 0.65,1.7 2,2.75 1.4,1 3.55,1 2.7,0 4.65,-1.7 1.95,-1.7 1.95,-4.75 z" />
      <path
         id="path4194"
         style=""
         d="m 101.50078,971.37648 q 3.25,0 5.2,1.5 1.95,1.45 2.8,4 0.7,-1.25 2.05,-2.5 1.35,-1.3 3.15,-2.15 1.8,-0.85 3.85,-0.85 3.4,0 5.3,1.5 1.9,1.45 2.65,3.95 0.8,2.45 0.8,5.5 l 0,15.75 -5.2,0 0,-15.45 q 0,-2.9 -1.1,-4.7 -1.1,-1.8 -4.15,-1.8 -2.9,0 -4.8,1.85 -1.85,1.8 -1.85,4.4 l 0,15.7 -5.2,0 0,-15.55 q 0,-2.8 -1.2,-4.6 -1.2,-1.8 -3.949999,-1.8 -1.9,0 -3.4,0.85 -1.5,0.85 -2.35,2.25 -0.85,1.35 -0.85,3.05 l 0,15.8 -5.2,0 0,-26.25 5.2,0 0,4.2 q 1.2,-1.8 3.35,-3.2 2.2,-1.45 4.899999,-1.45 z" />
      <path
         id="path4196"
         style=""
         d="m 147.59453,971.37648 q 3.25,0 5.2,1.5 1.95,1.45 2.8,4 0.7,-1.25 2.05,-2.5 1.35,-1.3 3.15,-2.15 1.8,-0.85 3.85,-0.85 3.4,0 5.3,1.5 1.9,1.45 2.65,3.95 0.8,2.45 0.8,5.5 l 0,15.75 -5.2,0 0,-15.45 q 0,-2.9 -1.1,-4.7 -1.1,-1.8 -4.15,-1.8 -2.9,0 -4.8,1.85 -1.85,1.8 -1.85,4.4 l 0,15.7 -5.2,0 0,-15.55 q 0,-2.8 -1.2,-4.6 -1.2,-1.8 -3.95,-1.8 -1.9,0 -3.4,0.85 -1.5,0.85 -2.35,2.25 -0.85,1.35 -0.85,3.05 l 0,15.8 -5.2,0 0,-26.25 5.2,0 0,4.2 q 1.2,-1.8 3.35,-3.2 2.2,-1.45 4.9,-1.45 z" />
      <path
         id="path4198"
         style=""
         d="m 183.78828,966.12648 q -1.75,0 -2.6,-0.9 -0.85,-0.9 -0.85,-2.35 0,-1.25 0.85,-2.25 0.85,-1 2.6,-1 1.75,0 2.6,0.9 0.85,0.9 0.85,2.35 0,1.25 -0.85,2.25 -0.85,1 -2.6,1 z m 2.65,31.95 -5.15,0 0,-26.25 5.15,0 0,26.25 z" />
      <path
         id="path4200"
         style=""
         d="m 194.20547,998.07648 0,-37 5.15,0 0,22.5 11.85,-11.75 6.95,0 -12.3,11.55 12.65,14.7 -6.6,0 -9.7,-11.3 -2.85,2.7 0,8.6 -5.15,0 z" />
      <path
         id="path4202"
         style=""
         d="m 240.23047,987.62648 0,-15.8 5.15,0 0,26.25 -5.15,0 0,-4.2 q -1.15,1.85 -3.4,3.3 -2.2,1.4 -5.3,1.4 -4.1,0 -6.65,-2.8 -2.55,-2.8 -2.55,-7.75 l 0,-16.2 5.15,0 0,14.8 q 0,2 0.6,3.7 0.65,1.7 2,2.75 1.4,1 3.55,1 2.7,0 4.65,-1.7 1.95,-1.7 1.95,-4.75 z" />
      <path
         id="path4204"
         style=""
         d="m 266.25391,971.27648 q 3.5,0 6.25,1.75 2.8,1.7 4.4,4.8 1.6,3.05 1.6,7.05 0,4 -1.6,7.1 -1.6,3.1 -4.35,4.85 -2.75,1.75 -6.15,1.75 -2.8,0 -5.1,-1.2 -2.25,-1.25 -3.55,-2.8 l 0,3.35 -5.15,0 0,-36.85 5.15,0 0,14.55 q 1.15,-1.65 3.45,-3 2.3,-1.35 5.05,-1.35 z m -0.7,4.7 q -2.35,0 -4.2,1.15 -1.8,1.15 -2.85,3.2 -1,2 -1,4.55 0,2.55 1,4.6 1.05,2 2.85,3.2 1.85,1.2 4.2,1.2 2.35,0 4.15,-1.2 1.8,-1.2 2.8,-3.2 1.05,-2.05 1.05,-4.6 0,-2.55 -1.05,-4.55 -1,-2.05 -2.8,-3.2 -1.8,-1.15 -4.15,-1.15 z" />
    </g>
  </g>
</svg>
