<?xml version="1.0" encoding="UTF-8" standalone="no"?>
<!-- Created with Inkscape (http://www.inkscape.org/) -->

<svg
   xmlns:dc="http://purl.org/dc/elements/1.1/"
   xmlns:cc="http://creativecommons.org/ns#"
   xmlns:rdf="http://www.w3.org/1999/02/22-rdf-syntax-ns#"
   xmlns:svg="http://www.w3.org/2000/svg"
   xmlns="http://www.w3.org/2000/svg"
   xmlns:sodipodi="http://sodipodi.sourceforge.net/DTD/sodipodi-0.dtd"
   xmlns:inkscape="http://www.inkscape.org/namespaces/inkscape"
   width="36.463013mm"
   height="41.98859mm"
   viewBox="0 0 129.19965 148.77847"
   id="svg4198"
   version="1.1"
   inkscape:version="0.91 r13725"
   sodipodi:docname="harbour8.svg">
  <defs
     id="defs4200" />
  <sodipodi:namedview
     id="base"
     pagecolor="#ffffff"
     bordercolor="#666666"
     borderopacity="1.0"
     inkscape:pageopacity="0.0"
     inkscape:pageshadow="2"
     inkscape:zoom="3.959798"
     inkscape:cx="44.432859"
     inkscape:cy="51.26542"
     inkscape:document-units="px"
     inkscape:current-layer="layer1"
     showgrid="false"
     fit-margin-top="0"
     fit-margin-left="0"
     fit-margin-right="0"
     fit-margin-bottom="0"
     inkscape:window-width="1920"
     inkscape:window-height="983"
     inkscape:window-x="0"
     inkscape:window-y="0"
     inkscape:window-maximized="1" />
  <metadata
     id="metadata4203">
    <rdf:RDF>
      <cc:Work
         rdf:about="">
        <dc:format>image/svg+xml</dc:format>
        <dc:type
           rdf:resource="http://purl.org/dc/dcmitype/StillImage" />
        <dc:title></dc:title>
      </cc:Work>
    </rdf:RDF>
  </metadata>
  <g
     inkscape:label="Layer 1"
     inkscape:groupmode="layer"
     id="layer1"
     transform="translate(-31.828751,-27.615825)">
    <path
       sodipodi:type="star"
       style="color:#000000;overflow:visible;fill:#ffb970;fill-opacity:1;stroke:#000000;stroke-width:4.9000001;stroke-opacity:1"
       id="path4878"
       sodipodi:sides="6"
       sodipodi:cx="96.428574"
       sodipodi:cy="102.00506"
       sodipodi:r1="71.561058"
       sodipodi:r2="52.053493"
       sodipodi:arg1="1.5755512"
       sodipodi:arg2="2.09915"
       inkscape:flatsided="true"
       inkscape:rounded="0"
       inkscape:randomized="0"
       d="M 96.088311,173.56531 34.285449,137.49051 34.625711,65.930258 96.768836,30.444809 158.5717,66.51961 l -0.34026,71.56025 z" />
    <g
       style="font-weight:bold;font-size:50px;line-height:125%;font-family:'Lexend Deca';-inkscape-font-specification:'Lexend Deca Bold';letter-spacing:0px;word-spacing:0px;writing-mode:lr-tb;fill:#000000;fill-opacity:1;stroke:none;stroke-width:1px;stroke-linecap:butt;stroke-linejoin:miter;stroke-opacity:1"
       id="text4986">
      <path
         d="m 91.949076,147.0744 0,3.64 -14.805,0 -1.155,-2.87 7.49,-8.435 q 1.435,-1.61 2.625,-3.22 1.19,-1.61 1.19,-3.29 0,-1.75 -1.015,-2.625 -1.015,-0.91 -2.66,-0.91 -0.805,0 -1.785,0.49 -0.98,0.49 -1.855,1.54 -0.875,1.05 -1.4,2.765 l -2.905,-1.82 q 0.945,-3.255 3.255,-4.865 2.345,-1.61 5.145,-1.61 1.995,0 3.605,0.84 1.61,0.805 2.555,2.31 0.945,1.505 0.945,3.605 0,2.415 -1.47,4.795 -1.435,2.345 -3.535,4.655 l -4.585,5.005 10.36,0 z"
         style="font-size:35px;fill:#000000;fill-opacity:1;stroke:none"
         id="path5024" />
      <path
         d="m 97.788061,137.2394 q -1.225,0 -1.82,-0.7 -0.595,-0.735 -0.595,-1.925 0,-1.015 0.595,-1.82 0.595,-0.805 1.82,-0.805 1.225,0 1.82,0.735 0.594999,0.7 0.594999,1.89 0,0.98 -0.594999,1.82 -0.595,0.805 -1.82,0.805 z m 0,13.86 q -1.225,0 -1.82,-0.7 -0.595,-0.735 -0.595,-1.925 0,-1.015 0.595,-1.82 0.595,-0.805 1.82,-0.805 1.225,0 1.82,0.735 0.594999,0.7 0.594999,1.89 0,0.98 -0.594999,1.82 -0.595,0.805 -1.82,0.805 z"
         style="font-size:35px;fill:#000000;fill-opacity:1;stroke:none"
         id="path5026" />
      <path
         d="m 117.86329,150.7144 -11.69,0 0,-3.64 3.885,0 0,-16.275 -3.535,1.855 -1.015,-3.29 6.545,-3.5 1.82,0 0,21.21 3.99,0 0,3.64 z"
         style="font-size:35px;fill:#000000;fill-opacity:1;stroke:none"
         id="path5028" />
    </g>
    <g
       id="g5113"
       transform="matrix(0.16617774,0,0,0.16617774,-258.10184,-241.18238)">
      <path
         id="path5091"
         d="M 504,753.861 187.2,570.214 187.2,202.998 504,19.351 820.8,202.998 820.8,570.213 504,753.861 Z M 213.6,554.998 504,723.351 794.4,554.998 794.4,218.214 504,49.861 213.6,218.214 l 0,336.784 z"
         inkscape:connector-curvature="0"
         style="fill:#000000" />
      <rect
         id="rect5093"
         height="54.727001"
         width="24.938999"
         transform="matrix(-0.7071,-0.7071,0.7071,-0.7071,819.5597,1171.1262)"
         y="388.46301"
         x="639.85901"
         style="fill:#000000" />
      <rect
         id="rect5095"
         height="54.727001"
         width="24.938999"
         transform="matrix(-0.7071,-0.7071,0.7071,-0.7071,869.3194,1050.9905)"
         y="318.09"
         x="639.85699"
         style="fill:#000000" />
      <rect
         id="rect5097"
         height="54.727001"
         width="24.938999"
         transform="matrix(-0.7071,-0.7071,0.7071,-0.7071,919.0727,930.8699)"
         y="247.72501"
         x="639.85602"
         style="fill:#000000" />
      <rect
         id="rect5099"
         height="24.938999"
         width="54.727001"
         transform="matrix(-0.7071,-0.7071,0.7071,-0.7071,439.0256,732.0155)"
         y="262.61301"
         x="343.755"
         style="fill:#000000" />
      <rect
         id="rect5101"
         height="24.938999"
         width="54.727001"
         transform="matrix(-0.7071,-0.7071,0.7071,-0.7071,389.2723,852.1361)"
         y="332.978"
         x="343.75601"
         style="fill:#000000" />
      <rect
         id="rect5103"
         height="24.938999"
         width="54.727001"
         transform="matrix(-0.7071,-0.7071,0.7071,-0.7071,339.5126,972.2718)"
         y="403.35101"
         x="343.75699"
         style="fill:#000000" />
      <path
         id="path5105"
         d="m 604.179,319.378 -14.458,0.202 c 13.253,-20.689 14.414,-43.877 14.458,-46.922 l 0,-25.643 -25.643,0.352 c -2.182,0.026 -14.766,0.466 -29.33,5.588 1.769,-6.195 2.93,-12.901 2.93,-20.038 0,-31.874 -22.378,-55.792 -24.93,-58.423 l -17.882,-18.383 -17.882,18.383 c -2.552,2.622 -24.93,26.55 -24.93,58.423 0,7.137 1.162,13.842 2.93,20.038 -14.564,-5.122 -27.139,-5.562 -29.33,-5.588 l -25.643,-0.352 0,25.643 c 0.044,3.045 1.206,26.233 14.458,46.922 l -14.458,-0.202 0,25.643 c 0.044,3.045 1.206,26.233 14.458,46.922 l -14.458,-0.202 0,25.643 c 0.053,3.661 1.496,36.406 24.033,58.942 20.064,20.064 48.162,23.126 56.681,23.593 l 0,107.281 26.4,0 0,-106.867 0,0.018 0,-0.422 c 8.8,-0.396 37.418,-3.221 57.807,-23.61 22.537,-22.537 24.534,-55.282 24.587,-58.942 l 0,-25.643 -14.37,0.202 c 13.253,-20.689 14.538,-43.877 14.573,-46.922 l 0,-25.636 z m -122.751,41.677 c 7.533,7.533 11.581,23.857 13.772,31.97 l 0,9.522 c -6.899,-0.563 -26.101,-3.282 -39.046,-16.227 -16.025,-16.025 -16.377,-41.642 -16.377,-41.642 0,0 25.626,0.352 41.651,16.377 z m 39.961,41.545 0.211,-0.246 c 0,-1.038 -0.211,-9.328 -0.211,-9.328 1.593,-8.923 5.808,-22.22 15.567,-31.979 16.025,-16.025 41.791,-16.377 41.791,-16.377 0,0 -0.854,25.626 -16.878,41.642 -13.464,13.463 -31.68,15.857 -40.48,16.288 z m 57.499,-130.293 c 0,0 -0.924,25.626 -16.949,41.642 -13.464,13.464 -31.539,15.858 -40.339,16.28 l 0,-0.246 c 0,0.246 -0.211,-9.319 -0.211,-9.319 1.593,-8.923 5.808,-22.229 15.567,-31.988 16.025,-16.017 41.932,-16.369 41.932,-16.369 z m -69.555,-80.414 c 0,0 17.864,18.366 17.864,41.026 0,22.66 -17.864,41.026 -17.864,41.026 0,0 -17.864,-18.366 -17.864,-41.026 0,-22.66 17.864,-41.026 17.864,-41.026 z m -12.619,138.283 c -6.899,-0.563 -27.614,-3.282 -40.559,-16.227 -16.025,-16.025 -16.377,-41.642 -16.377,-41.642 0,0 25.626,0.352 41.65,16.377 9.759,9.759 13.693,23.056 15.286,31.979 l 0,9.513 z m -40.56,128.506 c -16.025,-16.025 -16.377,-41.642 -16.377,-41.642 0,0 25.626,0.352 41.642,16.377 7.533,7.533 11.581,23.857 13.772,31.97 l 0,9.522 c -6.89,-0.563 -26.092,-3.282 -39.037,-16.227 z m 105.785,0 C 548.475,472.146 530.4,474.54 521.6,474.962 l 0,-0.246 -0.211,-9.328 c 1.593,-8.923 5.808,-22.22 15.567,-31.979 16.025,-16.025 41.501,-16.377 41.501,-16.377 0,0 -0.502,25.634 -16.518,41.65 z"
         inkscape:connector-curvature="0"
         style="fill:#000000" />
    </g>
    <g
       id="g5488"
       transform="translate(51.464661,36.749662)">
      <path
         id="path5472"
         d="M 45,2.199 9,23.068 9,64.797 45,85.666 81,64.797 81,23.068 45,2.199 Z M 78,63.068 45,82.199 12,63.068 12,24.797 45,5.666 78,24.797 78,63.068 Z"
         inkscape:connector-curvature="0"
         style="fill:#000000" />
      <path
         id="path5474"
         d="m 29.961,32.868 0,0 c -2.059,1.814 -3.306,4.536 -3.306,7.49 0,0.692 0.073,1.368 0.209,2.02 l -6.383,6.382 c -0.02,0.02 -0.04,0.039 -0.059,0.059 l -0.103,0.103 0.005,0.005 c -1.713,1.779 -2.773,4.191 -2.773,6.851 0,5.454 4.437,9.891 9.891,9.891 3.581,0 6.715,-1.92 8.45,-4.779 1.736,2.859 4.869,4.779 8.451,4.779 3.562,0 6.68,-1.899 8.422,-4.732 l 16.245,-20.068 0.107,0.067 c 0.862,-1.371 1.317,-2.956 1.317,-4.582 0,-4.752 -3.865,-8.617 -8.617,-8.617 -0.38,0 -0.755,0.033 -1.126,0.081 0.185,-0.708 0.29,-1.441 0.29,-2.192 0,-4.751 -3.865,-8.616 -8.617,-8.616 -2.302,0 -4.455,0.895 -6.08,2.516 L 29.961,32.868 Z m 6.584,0.433 c 3.891,0 7.057,3.166 7.057,7.057 0,3.891 -3.166,7.056 -7.057,7.056 -3.891,0 -7.056,-3.165 -7.056,-7.056 0,-3.891 3.165,-7.057 7.056,-7.057 z m -8.569,11.973 c 0.13,0.226 0.264,0.449 0.411,0.663 -0.312,-0.03 -0.627,-0.048 -0.946,-0.048 -0.028,0 -0.055,0.004 -0.084,0.004 l 0.619,-0.619 z M 34,56.222 c 0,3.684 -3.055,6.613 -6.796,6.613 -3.891,0 -6.938,-3.166 -6.938,-7.057 0,-1.922 0.834,-3.664 2.084,-4.938 l 0.122,-0.093 c 1.274,-1.25 2.795,-2.025 4.717,-2.025 3.741,0 6.811,2.928 6.811,6.612 l 0,0.888 z m 15.869,3.929 c -1.293,1.632 -3.288,2.684 -5.527,2.684 -3.741,0 -6.803,-2.929 -7.034,-6.613 0.007,-0.148 0.022,-0.294 0.022,-0.443 0,-0.149 -0.016,-0.295 -0.022,-0.443 0.231,-3.684 3.293,-6.612 7.034,-6.612 3.891,0 7.056,3.165 7.056,7.056 0,1.274 -0.344,2.466 -0.937,3.499 l -0.592,0.872 z m 8.763,-28.623 c 0.937,-0.621 2.035,-0.957 3.186,-0.957 3.188,0 5.783,2.595 5.783,5.783 0,0.833 -0.18,1.647 -0.521,2.395 L 54.17,54.696 c -0.085,-0.774 -0.266,-1.518 -0.52,-2.229 l 8.533,-9.818 -2.139,-1.859 -7.837,9.017 C 50.712,47.842 48.504,46.456 45.968,46.034 L 58.19,31.886 c 0.079,-0.065 0.155,-0.135 0.237,-0.195 l 0.205,-0.163 z m -2.111,-9.912 -8.726,9.382 2.076,1.93 8.097,-8.705 c 0.113,0.451 0.18,0.919 0.18,1.404 0,1.042 -0.294,2.031 -0.808,2.906 l -1.046,1.211 c -0.195,0.164 -0.503,0.582 -0.503,0.582 l -9.398,10.88 c 0.024,-0.281 0.043,-0.563 0.043,-0.849 0,-5.221 -4.069,-9.499 -9.201,-9.856 L 48.737,21.188 48.706,21.15 c 1.03,-0.845 2.306,-1.306 3.658,-1.306 1.631,10e-4 3.104,0.682 4.157,1.772 z"
         inkscape:connector-curvature="0"
         style="fill:#000000" />
      <path
         id="path5476"
         d="M 37,45.774 37,42.94 C 35,42.94 33.962,42 33.962,40 l -2.834,0 c 0,3 2.872,5.774 5.872,5.774 z"
         inkscape:connector-curvature="0"
         style="fill:#000000" />
      <path
         id="path5478"
         d="m 44,59.437 0,-1.076 C 43,58.361 41.759,57 41.759,56 l -1.196,0 -0.199,0 -1.439,0 c 0,3 2.075,5.195 5.075,5.195 L 44,61 l 0,-1.256 0,-0.307 z"
         inkscape:connector-curvature="0"
         style="fill:#000000" />
      <path
         id="path5480"
         d="M 27,59.339 27,59 27,58.361 C 26,58.361 24.857,57 24.857,56 l -1.196,0 -0.199,0 -1.439,0 c 0,3 1.977,5.195 4.977,5.195 L 27,61 l 0,-1.266 0,-0.395 z"
         inkscape:connector-curvature="0"
         style="fill:#000000" />
    </g>
  </g>
</svg>
