<?xml version="1.0" encoding="UTF-8" standalone="no"?>
<!-- Created with Inkscape (http://www.inkscape.org/) -->

<svg
   xmlns:dc="http://purl.org/dc/elements/1.1/"
   xmlns:cc="http://creativecommons.org/ns#"
   xmlns:rdf="http://www.w3.org/1999/02/22-rdf-syntax-ns#"
   xmlns:svg="http://www.w3.org/2000/svg"
   xmlns="http://www.w3.org/2000/svg"
   xmlns:sodipodi="http://sodipodi.sourceforge.net/DTD/sodipodi-0.dtd"
   xmlns:inkscape="http://www.inkscape.org/namespaces/inkscape"
   width="36.463013mm"
   height="41.98859mm"
   viewBox="0 0 129.19965 148.77847"
   id="svg4198"
   version="1.1"
   inkscape:version="0.91 r13725"
   sodipodi:docname="harbour0.svg">
  <defs
     id="defs4200" />
  <sodipodi:namedview
     id="base"
     pagecolor="#ffffff"
     bordercolor="#666666"
     borderopacity="1.0"
     inkscape:pageopacity="0.0"
     inkscape:pageshadow="2"
     inkscape:zoom="1.979899"
     inkscape:cx="150.16576"
     inkscape:cy="86.284656"
     inkscape:document-units="px"
     inkscape:current-layer="layer1"
     showgrid="false"
     fit-margin-top="0"
     fit-margin-left="0"
     fit-margin-right="0"
     fit-margin-bottom="0"
     inkscape:window-width="1920"
     inkscape:window-height="983"
     inkscape:window-x="0"
     inkscape:window-y="0"
     inkscape:window-maximized="1" />
  <metadata
     id="metadata4203">
    <rdf:RDF>
      <cc:Work
         rdf:about="">
        <dc:format>image/svg+xml</dc:format>
        <dc:type
           rdf:resource="http://purl.org/dc/dcmitype/StillImage" />
        <dc:title></dc:title>
      </cc:Work>
    </rdf:RDF>
  </metadata>
  <g
     inkscape:label="Layer 1"
     inkscape:groupmode="layer"
     id="layer1"
     transform="translate(-31.828751,-27.615825)">
    <path
       sodipodi:type="star"
       style="color:#000000;overflow:visible;fill:#ffb970;fill-opacity:1;stroke:#000000;stroke-width:4.9000001;stroke-opacity:1"
       id="path4878"
       sodipodi:sides="6"
       sodipodi:cx="96.428574"
       sodipodi:cy="102.00506"
       sodipodi:r1="71.561058"
       sodipodi:r2="52.053493"
       sodipodi:arg1="1.5755512"
       sodipodi:arg2="2.09915"
       inkscape:flatsided="true"
       inkscape:rounded="0"
       inkscape:randomized="0"
       d="M 96.088311,173.56531 34.285449,137.49051 34.625711,65.930258 96.768836,30.444809 158.5717,66.51961 l -0.34026,71.56025 z" />
    <g
       style="font-weight:bold;font-size:50px;line-height:125%;font-family:'Lexend Deca';-inkscape-font-specification:'Lexend Deca Bold';letter-spacing:0px;word-spacing:0px;writing-mode:lr-tb;fill:#000000;fill-opacity:1;stroke:none;stroke-width:1px;stroke-linecap:butt;stroke-linejoin:miter;stroke-opacity:1"
       id="text4986">
      <path
         d="m 77.529076,144.0294 q 0.525,0.77 1.26,1.645 0.77,0.875 1.785,1.47 1.05,0.595 2.38,0.595 1.05,0 2.1,-0.525 1.05,-0.56 1.75,-1.61 0.735,-1.085 0.735,-2.625 0,-1.575 -0.595,-2.52 -0.56,-0.945 -1.505,-1.365 -0.945,-0.42 -2.065,-0.42 -1.085,0 -2.205,0.35 -1.085,0.315 -2.03,0.7 l -1.05,-2.765 6.58,-7.245 -8.715,0 0,-3.5 14.035,0 0.7,1.4 -6.86,7.595 q 2.03,0 3.675,1.015 1.68,0.98 2.66,2.695 1.015,1.715 1.015,3.85 0,2.52 -1.225,4.41 -1.19,1.855 -3.15,2.87 -1.925,1.015 -4.13,1.015 -2.065,0 -3.57,-0.665 -1.47,-0.7 -2.555,-1.89 -1.085,-1.19 -1.96,-2.625 l 2.94,-1.855 z"
         style="font-size:35px;fill:#000000;fill-opacity:1;stroke:none"
         id="path5547" />
      <path
         d="m 97.104467,137.2394 q -1.225,0 -1.82,-0.7 -0.595,-0.735 -0.595,-1.925 0,-1.015 0.595,-1.82 0.595,-0.805 1.82,-0.805 1.225,0 1.82,0.735 0.595,0.7 0.595,1.89 0,0.98 -0.595,1.82 -0.595,0.805 -1.82,0.805 z m 0,13.86 q -1.225,0 -1.82,-0.7 -0.595,-0.735 -0.595,-1.925 0,-1.015 0.595,-1.82 0.595,-0.805 1.82,-0.805 1.225,0 1.82,0.735 0.595,0.7 0.595,1.89 0,0.98 -0.595,1.82 -0.595,0.805 -1.82,0.805 z"
         style="font-size:35px;fill:#000000;fill-opacity:1;stroke:none"
         id="path5549" />
      <path
         d="m 117.1797,150.7144 -11.69,0 0,-3.64 3.885,0 0,-16.275 -3.535,1.855 -1.015,-3.29 6.545,-3.5 1.82,0 0,21.21 3.99,0 0,3.64 z"
         style="font-size:35px;fill:#000000;fill-opacity:1;stroke:none"
         id="path5551" />
    </g>
    <path
       sodipodi:type="star"
       style="color:#000000;overflow:visible;fill:none;fill-opacity:1;stroke:#000000;stroke-width:4.9000001;stroke-opacity:1"
       id="path5540"
       sodipodi:sides="6"
       sodipodi:cx="95.481056"
       sodipodi:cy="80.368528"
       sodipodi:r1="40.044487"
       sodipodi:r2="36.883972"
       sodipodi:arg1="0.52359878"
       sodipodi:arg2="1.0471976"
       inkscape:flatsided="true"
       inkscape:rounded="0"
       inkscape:randomized="0"
       d="m 130.1606,100.39077 -34.679544,20.02225 -34.679543,-20.02225 0,-40.044483 34.679543,-20.022244 34.679544,20.022244 z" />
    <g
       style="font-weight:bold;font-size:50px;line-height:125%;font-family:'Lexend Deca';-inkscape-font-specification:'Lexend Deca Bold';letter-spacing:0px;word-spacing:0px;writing-mode:lr-tb;fill:none;stroke:#000000;stroke-width:2;stroke-linecap:butt;stroke-linejoin:miter;stroke-miterlimit:4;stroke-dasharray:none;stroke-opacity:1"
       id="text5542">
      <path
         d="m 91.283772,80.234431 q 5.23125,-1.40625 7.9875,-3.54375 2.756248,-2.1375 2.756248,-5.4 0,-2.475 -1.96875,-4.05 -1.912498,-1.63125 -4.724998,-1.63125 -2.3625,0 -4.44375,1.63125 -2.08125,1.575 -3.54375,4.275 l -4.21875,-3.54375 q 2.30625,-3.6 5.625,-5.68125 3.375,-2.1375 7.14375,-2.1375 3.4875,0 6.299998,1.4625 2.8125,1.40625 4.5,3.9375 1.6875,2.53125 1.6875,5.7375 0,2.75625 -1.4625,5.11875 -1.4625,2.30625 -3.825,4.05 -2.3625,1.6875 -5.062498,2.64375 l -0.95625,5.0625 -4.33125,0 -1.4625,-7.93125 z m 3.375,20.418749 q -1.96875,0 -2.925,-1.124999 -0.95625,-1.18125 -0.95625,-3.09375 0,-1.63125 0.95625,-2.925 0.95625,-1.29375 2.925,-1.29375 1.96875,0 2.925,1.18125 0.95625,1.125 0.95625,3.0375 0,1.575 -0.95625,2.925 -0.95625,1.293749 -2.925,1.293749 z"
         style="font-size:56.25px"
         id="path5554" />
    </g>
  </g>
</svg>
