<?xml version="1.0" encoding="UTF-8" standalone="no"?>
<!-- Created with Inkscape (http://www.inkscape.org/) -->

<svg
   xmlns:dc="http://purl.org/dc/elements/1.1/"
   xmlns:cc="http://creativecommons.org/ns#"
   xmlns:rdf="http://www.w3.org/1999/02/22-rdf-syntax-ns#"
   xmlns:svg="http://www.w3.org/2000/svg"
   xmlns="http://www.w3.org/2000/svg"
   xmlns:sodipodi="http://sodipodi.sourceforge.net/DTD/sodipodi-0.dtd"
   xmlns:inkscape="http://www.inkscape.org/namespaces/inkscape"
   width="36.463013mm"
   height="41.98859mm"
   viewBox="0 0 129.19965 148.77847"
   id="svg4198"
   version="1.1"
   inkscape:version="0.91 r13725"
   sodipodi:docname="harbour6.svg">
  <defs
     id="defs4200" />
  <sodipodi:namedview
     id="base"
     pagecolor="#ffffff"
     bordercolor="#666666"
     borderopacity="1.0"
     inkscape:pageopacity="0.0"
     inkscape:pageshadow="2"
     inkscape:zoom="3.959798"
     inkscape:cx="44.432859"
     inkscape:cy="51.26542"
     inkscape:document-units="px"
     inkscape:current-layer="layer1"
     showgrid="false"
     fit-margin-top="0"
     fit-margin-left="0"
     fit-margin-right="0"
     fit-margin-bottom="0"
     inkscape:window-width="1920"
     inkscape:window-height="983"
     inkscape:window-x="0"
     inkscape:window-y="0"
     inkscape:window-maximized="1" />
  <metadata
     id="metadata4203">
    <rdf:RDF>
      <cc:Work
         rdf:about="">
        <dc:format>image/svg+xml</dc:format>
        <dc:type
           rdf:resource="http://purl.org/dc/dcmitype/StillImage" />
        <dc:title></dc:title>
      </cc:Work>
    </rdf:RDF>
  </metadata>
  <g
     inkscape:label="Layer 1"
     inkscape:groupmode="layer"
     id="layer1"
     transform="translate(-31.828751,-27.615825)">
    <path
       sodipodi:type="star"
       style="color:#000000;overflow:visible;fill:#ffb970;fill-opacity:1;stroke:#000000;stroke-width:4.9000001;stroke-opacity:1"
       id="path4878"
       sodipodi:sides="6"
       sodipodi:cx="96.428574"
       sodipodi:cy="102.00506"
       sodipodi:r1="71.561058"
       sodipodi:r2="52.053493"
       sodipodi:arg1="1.5755512"
       sodipodi:arg2="2.09915"
       inkscape:flatsided="true"
       inkscape:rounded="0"
       inkscape:randomized="0"
       d="M 96.088311,173.56531 34.285449,137.49051 34.625711,65.930258 96.768836,30.444809 158.5717,66.51961 l -0.34026,71.56025 z" />
    <g
       style="font-weight:bold;font-size:50px;line-height:125%;font-family:'Lexend Deca';-inkscape-font-specification:'Lexend Deca Bold';letter-spacing:0px;word-spacing:0px;writing-mode:lr-tb;fill:#000000;fill-opacity:1;stroke:none;stroke-width:1px;stroke-linecap:butt;stroke-linejoin:miter;stroke-opacity:1"
       id="text4986">
      <path
         d="m 91.949076,147.0744 0,3.64 -14.805,0 -1.155,-2.87 7.49,-8.435 q 1.435,-1.61 2.625,-3.22 1.19,-1.61 1.19,-3.29 0,-1.75 -1.015,-2.625 -1.015,-0.91 -2.66,-0.91 -0.805,0 -1.785,0.49 -0.98,0.49 -1.855,1.54 -0.875,1.05 -1.4,2.765 l -2.905,-1.82 q 0.945,-3.255 3.255,-4.865 2.345,-1.61 5.145,-1.61 1.995,0 3.605,0.84 1.61,0.805 2.555,2.31 0.945,1.505 0.945,3.605 0,2.415 -1.47,4.795 -1.435,2.345 -3.535,4.655 l -4.585,5.005 10.36,0 z"
         style="font-size:35px;fill:#000000;fill-opacity:1;stroke:none"
         id="path5024" />
      <path
         d="m 97.788061,137.2394 q -1.225,0 -1.82,-0.7 -0.595,-0.735 -0.595,-1.925 0,-1.015 0.595,-1.82 0.595,-0.805 1.82,-0.805 1.225,0 1.82,0.735 0.594999,0.7 0.594999,1.89 0,0.98 -0.594999,1.82 -0.595,0.805 -1.82,0.805 z m 0,13.86 q -1.225,0 -1.82,-0.7 -0.595,-0.735 -0.595,-1.925 0,-1.015 0.595,-1.82 0.595,-0.805 1.82,-0.805 1.225,0 1.82,0.735 0.594999,0.7 0.594999,1.89 0,0.98 -0.594999,1.82 -0.595,0.805 -1.82,0.805 z"
         style="font-size:35px;fill:#000000;fill-opacity:1;stroke:none"
         id="path5026" />
      <path
         d="m 117.86329,150.7144 -11.69,0 0,-3.64 3.885,0 0,-16.275 -3.535,1.855 -1.015,-3.29 6.545,-3.5 1.82,0 0,21.21 3.99,0 0,3.64 z"
         style="font-size:35px;fill:#000000;fill-opacity:1;stroke:none"
         id="path5028" />
    </g>
    <g
       id="g5113"
       transform="matrix(0.16617774,0,0,0.16617774,-258.10184,-241.18238)">
      <path
         id="path5091"
         d="M 504,753.861 187.2,570.214 187.2,202.998 504,19.351 820.8,202.998 820.8,570.213 504,753.861 Z M 213.6,554.998 504,723.351 794.4,554.998 794.4,218.214 504,49.861 213.6,218.214 l 0,336.784 z"
         inkscape:connector-curvature="0"
         style="fill:#000000" />
      <rect
         id="rect5093"
         height="54.727001"
         width="24.938999"
         transform="matrix(-0.7071,-0.7071,0.7071,-0.7071,819.5597,1171.1262)"
         y="388.46301"
         x="639.85901"
         style="fill:#000000" />
      <rect
         id="rect5095"
         height="54.727001"
         width="24.938999"
         transform="matrix(-0.7071,-0.7071,0.7071,-0.7071,869.3194,1050.9905)"
         y="318.09"
         x="639.85699"
         style="fill:#000000" />
      <rect
         id="rect5097"
         height="54.727001"
         width="24.938999"
         transform="matrix(-0.7071,-0.7071,0.7071,-0.7071,919.0727,930.8699)"
         y="247.72501"
         x="639.85602"
         style="fill:#000000" />
      <rect
         id="rect5099"
         height="24.938999"
         width="54.727001"
         transform="matrix(-0.7071,-0.7071,0.7071,-0.7071,439.0256,732.0155)"
         y="262.61301"
         x="343.755"
         style="fill:#000000" />
      <rect
         id="rect5101"
         height="24.938999"
         width="54.727001"
         transform="matrix(-0.7071,-0.7071,0.7071,-0.7071,389.2723,852.1361)"
         y="332.978"
         x="343.75601"
         style="fill:#000000" />
      <rect
         id="rect5103"
         height="24.938999"
         width="54.727001"
         transform="matrix(-0.7071,-0.7071,0.7071,-0.7071,339.5126,972.2718)"
         y="403.35101"
         x="343.75699"
         style="fill:#000000" />
      <path
         id="path5105"
         d="m 604.179,319.378 -14.458,0.202 c 13.253,-20.689 14.414,-43.877 14.458,-46.922 l 0,-25.643 -25.643,0.352 c -2.182,0.026 -14.766,0.466 -29.33,5.588 1.769,-6.195 2.93,-12.901 2.93,-20.038 0,-31.874 -22.378,-55.792 -24.93,-58.423 l -17.882,-18.383 -17.882,18.383 c -2.552,2.622 -24.93,26.55 -24.93,58.423 0,7.137 1.162,13.842 2.93,20.038 -14.564,-5.122 -27.139,-5.562 -29.33,-5.588 l -25.643,-0.352 0,25.643 c 0.044,3.045 1.206,26.233 14.458,46.922 l -14.458,-0.202 0,25.643 c 0.044,3.045 1.206,26.233 14.458,46.922 l -14.458,-0.202 0,25.643 c 0.053,3.661 1.496,36.406 24.033,58.942 20.064,20.064 48.162,23.126 56.681,23.593 l 0,107.281 26.4,0 0,-106.867 0,0.018 0,-0.422 c 8.8,-0.396 37.418,-3.221 57.807,-23.61 22.537,-22.537 24.534,-55.282 24.587,-58.942 l 0,-25.643 -14.37,0.202 c 13.253,-20.689 14.538,-43.877 14.573,-46.922 l 0,-25.636 z m -122.751,41.677 c 7.533,7.533 11.581,23.857 13.772,31.97 l 0,9.522 c -6.899,-0.563 -26.101,-3.282 -39.046,-16.227 -16.025,-16.025 -16.377,-41.642 -16.377,-41.642 0,0 25.626,0.352 41.651,16.377 z m 39.961,41.545 0.211,-0.246 c 0,-1.038 -0.211,-9.328 -0.211,-9.328 1.593,-8.923 5.808,-22.22 15.567,-31.979 16.025,-16.025 41.791,-16.377 41.791,-16.377 0,0 -0.854,25.626 -16.878,41.642 -13.464,13.463 -31.68,15.857 -40.48,16.288 z m 57.499,-130.293 c 0,0 -0.924,25.626 -16.949,41.642 -13.464,13.464 -31.539,15.858 -40.339,16.28 l 0,-0.246 c 0,0.246 -0.211,-9.319 -0.211,-9.319 1.593,-8.923 5.808,-22.229 15.567,-31.988 16.025,-16.017 41.932,-16.369 41.932,-16.369 z m -69.555,-80.414 c 0,0 17.864,18.366 17.864,41.026 0,22.66 -17.864,41.026 -17.864,41.026 0,0 -17.864,-18.366 -17.864,-41.026 0,-22.66 17.864,-41.026 17.864,-41.026 z m -12.619,138.283 c -6.899,-0.563 -27.614,-3.282 -40.559,-16.227 -16.025,-16.025 -16.377,-41.642 -16.377,-41.642 0,0 25.626,0.352 41.65,16.377 9.759,9.759 13.693,23.056 15.286,31.979 l 0,9.513 z m -40.56,128.506 c -16.025,-16.025 -16.377,-41.642 -16.377,-41.642 0,0 25.626,0.352 41.642,16.377 7.533,7.533 11.581,23.857 13.772,31.97 l 0,9.522 c -6.89,-0.563 -26.092,-3.282 -39.037,-16.227 z m 105.785,0 C 548.475,472.146 530.4,474.54 521.6,474.962 l 0,-0.246 -0.211,-9.328 c 1.593,-8.923 5.808,-22.22 15.567,-31.979 16.025,-16.025 41.501,-16.377 41.501,-16.377 0,0 -0.502,25.634 -16.518,41.65 z"
         inkscape:connector-curvature="0"
         style="fill:#000000" />
    </g>
    <g
       id="g5267"
       transform="translate(50.622927,35.915428)">
      <path
         id="path5253"
         d="M 46,85.654 9,64.81 9,23.056 46,2.211 83,23.056 83,64.81 46,85.654 Z M 12,63.056 46,82.211 80,63.056 80,24.81 46,5.654 12,24.81 12,63.056 Z"
         inkscape:connector-curvature="0"
         style="fill:#000000" />
      <rect
         id="rect5255"
         height="2.835"
         width="7.9050002"
         transform="matrix(0.6635,0.7482,-0.7482,0.6635,43.8398,-34.791)"
         y="29.926001"
         x="56.646999"
         style="fill:#000000" />
      <path
         id="path5257"
         d="M 73.158,34.5 62.677,22 l -19.851,0 -7.462,9 -7.848,0 -9.078,10.5 9.078,10.5 16.935,0 4.323,-5 13.902,0 10.482,-12.5 z M 43.079,49 l -14.191,0 -3.526,-4.078 7.122,-8.42 -2.164,-1.83 -6.835,8.08 -1.081,-1.252 6.484,-7.5 14.191,0 6.484,7.5 -6.484,7.5 z m 8.29,-5 2.162,-2.5 -9.08,-10.5 -5.19,0 4.975,-6 17.041,0 7.966,9.5 -7.967,9.5 -9.907,0 z"
         inkscape:connector-curvature="0"
         style="fill:#000000" />
      <path
         id="path5259"
         d="m 64.953,51 -12.072,0 -6.707,7.5 6.707,7.5 12.072,0 6.707,-7.5 -6.707,-7.5 z m -1.342,12 -9.389,0 -4.023,-4.5 4.023,-4.5 9.389,0 1.788,2 -5.399,0 0,3 7.188,0 -3.577,4 z"
         inkscape:connector-curvature="0"
         style="fill:#000000" />
    </g>
  </g>
</svg>
