<?xml version="1.0" encoding="UTF-8" standalone="no"?>
<svg
   xmlns:dc="http://purl.org/dc/elements/1.1/"
   xmlns:cc="http://creativecommons.org/ns#"
   xmlns:rdf="http://www.w3.org/1999/02/22-rdf-syntax-ns#"
   xmlns:svg="http://www.w3.org/2000/svg"
   xmlns="http://www.w3.org/2000/svg"
   xmlns:sodipodi="http://sodipodi.sourceforge.net/DTD/sodipodi-0.dtd"
   xmlns:inkscape="http://www.inkscape.org/namespaces/inkscape"
   width="297.28571"
   height="111.57143"
   viewBox="0 0 297.28571 111.57143"
   id="svg2"
   version="1.1"
   inkscape:version="0.91 r13725"
   sodipodi:docname="settlersOfCatan.svg">
  <sodipodi:namedview
     pagecolor="#ffffff"
     bordercolor="#666666"
     borderopacity="1"
     objecttolerance="10"
     gridtolerance="10"
     guidetolerance="10"
     inkscape:pageopacity="0"
     inkscape:pageshadow="2"
     inkscape:window-width="1920"
     inkscape:window-height="983"
     id="namedview16"
     showgrid="false"
     inkscape:zoom="1.113407"
     inkscape:cx="148.64285"
     inkscape:cy="55.336641"
     inkscape:window-x="0"
     inkscape:window-y="0"
     inkscape:window-maximized="1"
     inkscape:current-layer="layer1" />
  <defs
     id="defs4" />
  <metadata
     id="metadata7">
    <rdf:RDF>
      <cc:Work
         rdf:about="">
        <dc:format>image/svg+xml</dc:format>
        <dc:type
           rdf:resource="http://purl.org/dc/dcmitype/StillImage" />
        <dc:title></dc:title>
      </cc:Work>
    </rdf:RDF>
  </metadata>
  <g
     id="layer1"
     transform="translate(-1.3571429,-925.14789)">
    <rect
       style="color:#000000;clip-rule:nonzero;display:inline;overflow:visible;visibility:visible;opacity:1;isolation:auto;mix-blend-mode:normal;color-interpolation:sRGB;color-interpolation-filters:linearRGB;solid-color:#000000;solid-opacity:1;fill:#000090;fill-opacity:1;fill-rule:nonzero;stroke:#ffffff;stroke-width:3;stroke-linecap:butt;stroke-linejoin:miter;stroke-miterlimit:4;stroke-dasharray:none;stroke-dashoffset:0;stroke-opacity:1;color-rendering:auto;image-rendering:auto;shape-rendering:auto;text-rendering:auto;enable-background:accumulate"
       id="rect4140"
       width="294.28571"
       height="108.57143"
       x="2.8571429"
       y="926.64789"
       ry="10.7143" />
    <g
       style="font-weight:bold;font-size:50px;line-height:125%;font-family:'Lexend Deca';-inkscape-font-specification:'Lexend Deca Bold';letter-spacing:0px;word-spacing:0px;writing-mode:lr-tb;fill:#ff7100;fill-opacity:1;stroke:none;stroke-width:1px;stroke-linecap:butt;stroke-linejoin:miter;stroke-opacity:1"
       id="text4144">
      <path
         d="m 33.817755,985.48213 q 1.23,1.77 2.55,2.76 1.35,0.96 3.48,0.96 1.02,0 1.95,-0.33 0.93,-0.33 1.53,-0.96 0.6,-0.63 0.6,-1.5 0,-1.5 -1.29,-2.34 -1.26,-0.84 -3.57,-1.29 -2.94,-0.6 -4.68,-2.07 -1.74,-1.5 -1.74,-4.32 0,-1.8 0.99,-3.12 1.02,-1.32 2.67,-2.04 1.65,-0.72 3.57,-0.72 2.49,0 4.29,0.96 1.8,0.96 2.82,2.73 l -2.28,2.25 q -0.81,-1.35 -2.04,-2.19 -1.23,-0.84 -2.88,-0.84 -1.65,0 -2.79,0.78 -1.11,0.75 -1.11,2.1 0,1.53 1.17,2.25 1.2,0.69 3.15,1.11 1.77,0.36 3.36,1.11 1.59,0.75 2.58,1.95 1.02,1.17 1.02,2.85 0,3 -2.04,4.77 -2.04,1.77 -5.61,1.77 -2.43,0 -4.44,-0.96 -1.98,-0.96 -3.48,-3.12 l 2.22,-2.55 z"
         style="font-size:30px"
         id="path4149" />
      <path
         d="m 64.479162,989.74213 -0.03,0 q -0.96,0.93 -2.64,1.65 -1.68,0.72 -3.51,0.72 -2.46,0 -4.35,-1.02 -1.86,-1.05 -2.91,-2.85 -1.05,-1.83 -1.05,-4.14 0,-2.64 1.11,-4.5 1.11,-1.89 2.94,-2.88 1.83,-1.02 3.99,-1.02 1.98,0 3.6,0.99 1.62,0.96 2.58,2.67 0.96,1.71 0.96,3.99 l -0.03,1.32 -12.06,0 q 0.27,2.13 1.74,3.39 1.5,1.23 3.78,1.23 1.65,0 2.67,-0.6 1.02,-0.63 1.68,-1.2 l 1.53,2.25 z m -6.45,-11.19 q -1.77,0 -3.09,0.84 -1.32,0.81 -1.74,2.82 l 8.82,0 0,-0.21 q -0.09,-1.02 -0.69,-1.8 -0.57,-0.78 -1.44,-1.2 -0.87,-0.45 -1.86,-0.45 z"
         style="font-size:30px"
         id="path4151" />
      <path
         d="m 73.567287,991.81213 -3.09,0 0,-12.75 -3.27,0 0,-3 3.27,0 0,-4.02 3.09,0 0,4.02 3.66,0 0,3 -3.66,0 0,12.75 z"
         style="font-size:30px"
         id="path4153" />
      <path
         d="m 85.110255,991.81213 -3.09,0 0,-12.75 -3.27,0 0,-3 3.27,0 0,-4.02 3.09,0 0,4.02 3.66,0 0,3 -3.66,0 0,12.75 z"
         style="font-size:30px"
         id="path4155" />
      <path
         d="m 91.613224,991.81213 0,-22.2 3.09,0 0,22.2 -3.09,0 z"
         style="font-size:30px"
         id="path4157" />
      <path
         d="m 112.35026,989.74213 -0.03,0 q -0.96,0.93 -2.64,1.65 -1.68,0.72 -3.51,0.72 -2.46,0 -4.35,-1.02 -1.860005,-1.05 -2.910005,-2.85 -1.05,-1.83 -1.05,-4.14 0,-2.64 1.11,-4.5 1.110005,-1.89 2.940005,-2.88 1.83,-1.02 3.99,-1.02 1.98,0 3.6,0.99 1.62,0.96 2.58,2.67 0.96,1.71 0.96,3.99 l -0.03,1.32 -12.06,0 q 0.27,2.13 1.74,3.39 1.5,1.23 3.78,1.23 1.65,0 2.67,-0.6 1.02,-0.63 1.68,-1.2 l 1.53,2.25 z m -6.45,-11.19 q -1.77,0 -3.09,0.84 -1.32,0.81 -1.74,2.82 l 8.82,0 0,-0.21 q -0.09,-1.02 -0.69,-1.8 -0.57,-0.78 -1.44,-1.2 -0.87,-0.45 -1.86,-0.45 z"
         style="font-size:30px"
         id="path4159" />
      <path
         d="m 125.21838,979.39213 q -0.3,-0.15 -0.75,-0.24 -0.42,-0.12 -0.9,-0.12 -0.96,0 -1.89,0.51 -0.93,0.48 -1.56,1.41 -0.6,0.9 -0.6,2.16 l 0,8.7 -3.12,0 0,-15.75 3.12,0 0,2.97 q 0.66,-1.44 1.98,-2.37 1.35,-0.93 2.82,-0.93 1.11,0 1.71,0.3 l -0.81,3.36 z"
         style="font-size:30px"
         id="path4161" />
      <path
         d="m 137.55869,980.20213 q -0.84,-0.84 -1.92,-1.38 -1.05,-0.54 -1.95,-0.54 -0.63,0 -1.26,0.15 -0.6,0.15 -1.02,0.57 -0.42,0.39 -0.42,1.17 0.03,1.08 0.96,1.53 0.96,0.45 2.37,0.81 1.23,0.33 2.4,0.84 1.17,0.48 1.92,1.44 0.78,0.93 0.78,2.64 0,1.47 -0.84,2.52 -0.81,1.05 -2.13,1.62 -1.29,0.54 -2.73,0.54 -1.71,0 -3.39,-0.6 -1.65,-0.63 -2.82,-2.13 l 2.1,-1.8 q 0.81,0.93 1.83,1.47 1.05,0.51 2.55,0.51 0.57,0 1.14,-0.18 0.57,-0.21 0.96,-0.63 0.42,-0.45 0.42,-1.2 0,-0.72 -0.45,-1.11 -0.42,-0.42 -1.14,-0.66 -0.72,-0.27 -1.59,-0.48 -1.29,-0.36 -2.55,-0.87 -1.23,-0.54 -2.07,-1.5 -0.81,-0.99 -0.81,-2.67 0,-1.41 0.78,-2.4 0.81,-1.02 2.1,-1.56 1.29,-0.57 2.76,-0.57 1.41,0 3.06,0.6 1.65,0.6 2.73,1.92 l -1.77,1.95 z"
         style="font-size:30px"
         id="path4163" />
      <path
         d="m 166.29307,983.92213 q 0,2.4 -1.08,4.26 -1.05,1.83 -2.88,2.88 -1.8,1.05 -4.05,1.05 -2.25,0 -4.08,-1.05 -1.83,-1.05 -2.91,-2.88 -1.05,-1.86 -1.05,-4.26 0,-2.4 1.05,-4.23 1.08,-1.86 2.91,-2.91 1.83,-1.05 4.08,-1.05 2.25,0 4.05,1.05 1.83,1.05 2.88,2.91 1.08,1.83 1.08,4.23 z m -3.15,0 q 0.03,-1.59 -0.63,-2.79 -0.63,-1.23 -1.74,-1.89 -1.11,-0.69 -2.49,-0.69 -1.38,0 -2.52,0.69 -1.11,0.66 -1.77,1.89 -0.63,1.2 -0.6,2.79 -0.03,1.56 0.6,2.79 0.66,1.2 1.77,1.89 1.14,0.69 2.52,0.69 1.38,0 2.49,-0.69 1.11,-0.69 1.74,-1.89 0.66,-1.23 0.63,-2.79 z"
         style="font-size:30px"
         id="path4165" />
      <path
         d="m 177.62416,979.18213 -3.72,0 0,12.63 -3.12,0 0,-12.63 -2.52,0 0,-2.85 2.52,0 0,-2.04 q 0,-2.04 1.29,-3.33 1.32,-1.32 3.39,-1.32 1.2,0 1.98,0.45 0.81,0.45 1.17,0.87 l -1.05,2.37 q -0.3,-0.3 -0.78,-0.54 -0.48,-0.27 -0.96,-0.27 -1.08,0 -1.5,0.51 -0.42,0.51 -0.42,1.26 l 0,2.04 3.72,0 0,2.85 z"
         style="font-size:30px"
         id="path4167" />
      <path
         d="m 205.97041,989.23213 q -0.63,0.72 -1.77,1.38 -1.11,0.66 -2.58,1.08 -1.44,0.42 -3.09,0.42 -2.82,0 -5.1,-1.32 -2.25,-1.35 -3.6,-3.78 -1.32,-2.43 -1.32,-5.7 0,-2.31 0.81,-4.26 0.81,-1.95 2.25,-3.39 1.44,-1.44 3.3,-2.22 1.86,-0.81 3.93,-0.81 1.71,0 3.18,0.54 1.5,0.51 2.61,1.35 1.14,0.81 1.77,1.74 l -2.16,2.25 q -1.11,-1.14 -2.46,-1.89 -1.35,-0.75 -2.94,-0.75 -1.8,0 -3.42,0.9 -1.59,0.9 -2.58,2.58 -0.99,1.65 -0.99,3.96 0,2.52 0.99,4.2 1.02,1.68 2.67,2.52 1.68,0.81 3.6,0.81 1.77,0 3.12,-0.69 1.35,-0.72 2.16,-1.56 l 1.62,2.64 z"
         style="font-size:30px"
         id="path4169" />
      <path
         d="m 224.29104,976.06213 0,15.75 -3.12,0 0,-2.43 q -0.72,0.99 -2.13,1.86 -1.41,0.87 -3.27,0.87 -1.98,0 -3.63,-1.05 -1.62,-1.05 -2.58,-2.91 -0.96,-1.86 -0.96,-4.26 0,-2.4 0.99,-4.23 0.99,-1.86 2.73,-2.88 1.74,-1.05 3.96,-1.05 1.65,0 2.88,0.72 1.26,0.72 2.01,1.68 l 0,-2.07 3.12,0 z m -7.8,13.2 q 1.44,0 2.52,-0.69 1.08,-0.72 1.68,-1.92 0.6,-1.23 0.6,-2.76 0,-1.5 -0.6,-2.7 -0.6,-1.2 -1.68,-1.89 -1.08,-0.72 -2.52,-0.72 -1.38,0 -2.46,0.69 -1.08,0.69 -1.68,1.89 -0.6,1.2 -0.6,2.73 0,1.53 0.6,2.76 0.6,1.2 1.68,1.92 1.08,0.69 2.46,0.69 z"
         style="font-size:30px"
         id="path4171" />
      <path
         d="m 233.64541,991.81213 -3.09,0 0,-12.75 -3.27,0 0,-3 3.27,0 0,-4.02 3.09,0 0,4.02 3.66,0 0,3 -3.66,0 0,12.75 z"
         style="font-size:30px"
         id="path4173" />
      <path
         d="m 254.6426,976.06213 0,15.75 -3.12,0 0,-2.43 q -0.72,0.99 -2.13,1.86 -1.41,0.87 -3.27,0.87 -1.98,0 -3.63,-1.05 -1.62,-1.05 -2.58,-2.91 -0.96,-1.86 -0.96,-4.26 0,-2.4 0.99,-4.23 0.99,-1.86 2.73,-2.88 1.74,-1.05 3.96,-1.05 1.65,0 2.88,0.72 1.26,0.72 2.01,1.68 l 0,-2.07 3.12,0 z m -7.8,13.2 q 1.44,0 2.52,-0.69 1.08,-0.72 1.68,-1.92 0.6,-1.23 0.6,-2.76 0,-1.5 -0.6,-2.7 -0.6,-1.2 -1.68,-1.89 -1.08,-0.72 -2.52,-0.72 -1.38,0 -2.46,0.69 -1.08,0.69 -1.68,1.89 -0.6,1.2 -0.6,2.73 0,1.53 0.6,2.76 0.6,1.2 1.68,1.92 1.08,0.69 2.46,0.69 z"
         style="font-size:30px"
         id="path4175" />
      <path
         d="m 267.20697,975.73213 q 2.13,0 3.3,0.87 1.17,0.87 1.62,2.34 0.48,1.47 0.48,3.27 l 0,9.6 -3.09,0 0,-9.39 q 0,-1.14 -0.3,-2.04 -0.3,-0.9 -1.02,-1.41 -0.72,-0.51 -2.01,-0.42 -1.2,0 -2.13,0.51 -0.93,0.51 -1.47,1.35 -0.54,0.84 -0.54,1.86 l 0,9.54 -3.09,0 0,-15.75 3.09,0 0,2.49 q 0.72,-1.11 2.1,-1.95 1.38,-0.87 3.06,-0.87 z"
         style="font-size:30px"
         id="path4177" />
    </g>
  </g>
</svg>
