<?xml version="1.0" encoding="UTF-8" standalone="no"?>
<svg
   xmlns:dc="http://purl.org/dc/elements/1.1/"
   xmlns:cc="http://creativecommons.org/ns#"
   xmlns:rdf="http://www.w3.org/1999/02/22-rdf-syntax-ns#"
   xmlns:svg="http://www.w3.org/2000/svg"
   xmlns="http://www.w3.org/2000/svg"
   xmlns:sodipodi="http://sodipodi.sourceforge.net/DTD/sodipodi-0.dtd"
   xmlns:inkscape="http://www.inkscape.org/namespaces/inkscape"
   height="70.000008"
   viewBox="0 0 70.000008 70.000008"
   width="70.000008"
   id="svg4235"
   version="1.1"
   inkscape:version="0.91 r13725"
   sodipodi:docname="check.svg">
  <metadata
     id="metadata4243">
    <rdf:RDF>
      <cc:Work
         rdf:about="">
        <dc:format>image/svg+xml</dc:format>
        <dc:type
           rdf:resource="http://purl.org/dc/dcmitype/StillImage" />
        <dc:title></dc:title>
      </cc:Work>
    </rdf:RDF>
  </metadata>
  <defs
     id="defs4241" />
  <sodipodi:namedview
     pagecolor="#ffffff"
     bordercolor="#666666"
     borderopacity="1"
     objecttolerance="10"
     gridtolerance="10"
     guidetolerance="10"
     inkscape:pageopacity="0"
     inkscape:pageshadow="2"
     inkscape:window-width="1920"
     inkscape:window-height="1175"
     id="namedview4239"
     showgrid="false"
     inkscape:zoom="0.79076004"
     inkscape:cx="-53.66824"
     inkscape:cy="-41.698459"
     inkscape:window-x="1920"
     inkscape:window-y="0"
     inkscape:window-maximized="1"
     inkscape:current-layer="svg4235"
     fit-margin-top="10"
     fit-margin-left="10"
     fit-margin-right="10"
     fit-margin-bottom="10" />
  <g
     id="g4272"
     transform="matrix(0.03223727,0,0,0.03223727,6.115409,6.115409)">
    <rect
       ry="10.7143"
       y="261.10977"
       x="243.22556"
       height="1237.5889"
       width="1301.972"
       id="rect4245"
       style="color:#000000;clip-rule:nonzero;display:inline;overflow:visible;visibility:visible;opacity:1;isolation:auto;mix-blend-mode:normal;color-interpolation:sRGB;color-interpolation-filters:linearRGB;solid-color:#000000;solid-opacity:1;fill:#000000;fill-opacity:1;fill-rule:nonzero;stroke:#ff0000;stroke-width:3;stroke-linecap:butt;stroke-linejoin:miter;stroke-miterlimit:4;stroke-dasharray:none;stroke-dashoffset:0;stroke-opacity:1;color-rendering:auto;image-rendering:auto;shape-rendering:auto;text-rendering:auto;enable-background:accumulate" />
    <path
       style="fill:#00ff09;fill-opacity:1;stroke:#ffffff;stroke-width:15;stroke-miterlimit:4;stroke-dasharray:none;stroke-opacity:1"
       id="path4237"
       d="m 813,1299 614,-614 q 19,-19 19,-45 0,-26 -19,-45 L 1325,493 q -19,-19 -45,-19 -26,0 -45,19 L 768,960 557,749 q -19,-19 -45,-19 -26,0 -45,19 L 365,851 q -19,19 -19,45 0,26 19,45 l 358,358 q 19,19 45,19 26,0 45,-19 z m 851,-883 0,960 q 0,119 -84.5,203.5 Q 1495,1664 1376,1664 l -960,0 Q 297,1664 212.5,1579.5 128,1495 128,1376 l 0,-960 Q 128,297 212.5,212.5 297,128 416,128 l 960,0 q 119,0 203.5,84.5 Q 1664,297 1664,416 Z"
       inkscape:connector-curvature="0" />
  </g>
</svg>
