<?xml version="1.0" encoding="UTF-8" standalone="no"?>
<svg
   xmlns:dc="http://purl.org/dc/elements/1.1/"
   xmlns:cc="http://creativecommons.org/ns#"
   xmlns:rdf="http://www.w3.org/1999/02/22-rdf-syntax-ns#"
   xmlns:svg="http://www.w3.org/2000/svg"
   xmlns="http://www.w3.org/2000/svg"
   id="svg8"
   version="1.1"
   viewBox="0 0 29.379742 30.146136"
   height="113.93815"
   width="111.04155">
  <defs
     id="defs2" />
  <metadata
     id="metadata5">
    <rdf:RDF>
      <cc:Work
         rdf:about="">
        <dc:format>image/svg+xml</dc:format>
        <dc:type
           rdf:resource="http://purl.org/dc/dcmitype/StillImage" />
        <dc:title></dc:title>
      </cc:Work>
    </rdf:RDF>
  </metadata>
  <g
     transform="translate(-1.1068393,-233.33755)"
     id="layer1">
    <path
       id="path815"
       d="M 12.095238,263.06139 3.9687499,236.24031 30.427083,249.56397 c -6.565131,-0.26252 -16.164046,7.42474 -18.331845,13.49742 z"
       style="fill:#fffffe;fill-opacity:1;stroke:#000000;stroke-width:0.26458332px;stroke-linecap:butt;stroke-linejoin:miter;stroke-opacity:1" />
    <g
       id="text4522"
       style="font-style:normal;font-weight:normal;font-size:4.25226879px;line-height:1.25;font-family:sans-serif;letter-spacing:0px;word-spacing:0px;fill:#cb0000;fill-opacity:1;stroke:none;stroke-width:0.10630672"
       transform="rotate(30.691338)"
       aria-label="DUNCE">
      <path
         id="path4524"
         style="font-style:normal;font-variant:normal;font-weight:normal;font-stretch:normal;font-size:4.25226879px;font-family:'Comic Sans MS';-inkscape-font-specification:'Comic Sans MS, Normal';font-variant-ligatures:normal;font-variant-caps:normal;font-variant-numeric:normal;font-feature-settings:normal;text-align:start;writing-mode:lr-tb;text-anchor:start;fill:#cb0000;fill-opacity:1;stroke-width:0.10630672"
         d="m 132.61203,205.9271 q -0.32183,0.22009 -0.92395,0.22009 -0.15157,0 -0.34675,-0.0478 -0.23462,-0.0561 -0.35297,-0.14534 h -0.0208 q -0.0893,0 -0.14949,-0.0623 -0.0602,-0.0623 -0.0602,-0.15157 0,-0.21801 0.0187,-0.65196 0.0208,-0.43602 0.0208,-0.65403 0,-0.24293 -0.0104,-0.72463 -0.008,-0.48378 -0.008,-0.72671 0,-0.0851 0.0872,-0.17856 0.0872,-0.0934 0.17441,-0.0934 0.0498,0 0.33221,0.13911 0.31975,0.15572 0.36958,0.17233 0.58967,0.2014 1.00493,0.61874 0.48793,0.49209 0.48793,1.08176 0,0.35504 -0.16818,0.68102 -0.1661,0.32598 -0.45471,0.52323 z m -0.43602,-2.19673 q -0.21178,-0.13911 -0.97794,-0.47755 l 0.0104,0.59798 0.006,0.5959 -0.0332,1.13366 q 0.0145,0.006 0.0436,0.027 0.18272,0.1225 0.46094,0.1225 0.4734,0 0.68933,-0.14534 0.2014,-0.13704 0.31975,-0.3675 0.12043,-0.23255 0.12043,-0.48378 0,-0.58552 -0.6395,-1.00286 z" />
      <path
         id="path4526"
         style="font-style:normal;font-variant:normal;font-weight:normal;font-stretch:normal;font-size:4.25226879px;font-family:'Comic Sans MS';-inkscape-font-specification:'Comic Sans MS, Normal';font-variant-ligatures:normal;font-variant-caps:normal;font-variant-numeric:normal;font-feature-settings:normal;text-align:start;writing-mode:lr-tb;text-anchor:start;fill:#cb0000;fill-opacity:1;stroke-width:0.10630672"
         d="m 135.09114,206.02469 q -0.64573,0 -0.96341,-0.37166 -0.25746,-0.29899 -0.3239,-0.88451 -0.0311,-0.26369 -0.0311,-1.05268 0,-0.29068 0.0125,-0.46925 0.0125,-0.18894 0.0374,-0.26369 0.0519,-0.15157 0.18686,-0.15157 0.19102,0 0.19102,0.3509 v 1.21879 q 0,1.25824 0.88036,1.25824 0.82844,0 0.82844,-2.11783 0,-0.0789 0,-0.20348 -0.002,-0.12458 -0.002,-0.1661 0,-0.12873 0.0457,-0.22632 0.0581,-0.12458 0.17234,-0.12458 0.20763,0 0.20763,0.28446 0,0.0851 0.002,0.25746 0,0.17233 0,0.25746 0,2.40436 -1.2437,2.40436 z" />
      <path
         id="path4528"
         style="font-style:normal;font-variant:normal;font-weight:normal;font-stretch:normal;font-size:4.25226879px;font-family:'Comic Sans MS';-inkscape-font-specification:'Comic Sans MS, Normal';font-variant-ligatures:normal;font-variant-caps:normal;font-variant-numeric:normal;font-feature-settings:normal;text-align:start;writing-mode:lr-tb;text-anchor:start;fill:#cb0000;fill-opacity:1;stroke-width:0.10630672"
         d="m 139.78151,205.4807 q 0,0.0997 -0.0332,0.3322 -0.0332,0.20971 -0.22217,0.20971 -0.1142,0 -0.27199,-0.14949 -0.84506,-0.79938 -1.93927,-2.30678 l -0.0104,0.47133 -0.006,0.47339 q 0,0.17234 0.006,0.517 0.008,0.34467 0.008,0.51908 0,0.55852 -0.21593,0.55852 -0.1142,0 -0.18064,-0.0727 -0.0602,-0.0644 -0.0602,-0.15364 0,-0.0872 0.0125,-0.26369 0.0145,-0.17649 0.0145,-0.26369 0,-0.12874 0.008,-0.38412 0.008,-0.25746 0.008,-0.38619 0,-0.13704 -0.006,-0.41319 -0.006,-0.27822 -0.006,-0.41526 0,-0.13081 -0.0249,-0.38827 -0.0249,-0.25953 -0.0249,-0.39034 0,-0.0955 0.081,-0.17441 0.0831,-0.0789 0.18687,-0.0789 0.11005,0 0.272,0.24085 0.517,0.77446 0.93018,1.28731 0.49209,0.60835 1.07968,1.16273 0.006,-0.0893 0,-0.26369 l -0.006,-0.26162 q 0,-0.91149 -0.0706,-1.45133 -0.008,-0.054 -0.0561,-0.21801 -0.0415,-0.14119 -0.0415,-0.22009 0,-0.24085 0.22009,-0.24085 0.36127,0 0.36127,1.34752 0,0.23047 -0.006,0.68933 -0.006,0.45679 -0.006,0.68726 z" />
      <path
         id="path4530"
         style="font-style:normal;font-variant:normal;font-weight:normal;font-stretch:normal;font-size:4.25226879px;font-family:'Comic Sans MS';-inkscape-font-specification:'Comic Sans MS, Normal';font-variant-ligatures:normal;font-variant-caps:normal;font-variant-numeric:normal;font-feature-settings:normal;text-align:start;writing-mode:lr-tb;text-anchor:start;fill:#cb0000;fill-opacity:1;stroke-width:0.10630672"
         d="m 142.26269,203.61202 q -0.13288,0 -0.19933,-0.15572 -0.0581,-0.13288 -0.10796,-0.16195 -0.0436,-0.0228 -0.21594,-0.0228 -0.30106,0 -0.66857,0.46094 -0.49831,0.61874 -0.49831,1.17311 0,0.26784 0.17233,0.46094 0.17649,0.19932 0.42564,0.19932 0.21386,0 0.4298,-0.11004 0.12042,-0.0623 0.36958,-0.245 0.11835,-0.0872 0.17856,-0.0872 0.0893,0 0.1495,0.0685 0.0602,0.0664 0.0602,0.14949 0,0.0934 -0.0789,0.16403 -0.54814,0.48586 -1.10875,0.48586 -0.42979,0 -0.7267,-0.33014 -0.28653,-0.31975 -0.28653,-0.75577 0,-0.70387 0.58967,-1.44303 0.49208,-0.61666 0.99247,-0.61666 0.10174,0 0.18272,0.0104 0.081,0.008 0.14326,0.0291 0.0727,-0.10589 0.18894,-0.10589 0.14327,0 0.18064,0.18894 0.0332,0.16818 0.0332,0.41318 0,0.0851 -0.0457,0.1495 -0.0561,0.081 -0.15987,0.081 z" />
      <path
         id="path4532"
         style="font-style:normal;font-variant:normal;font-weight:normal;font-stretch:normal;font-size:4.25226879px;font-family:'Comic Sans MS';-inkscape-font-specification:'Comic Sans MS, Normal';font-variant-ligatures:normal;font-variant-caps:normal;font-variant-numeric:normal;font-feature-settings:normal;text-align:start;writing-mode:lr-tb;text-anchor:start;fill:#cb0000;fill-opacity:1;stroke-width:0.10630672"
         d="m 144.85184,203.14693 q -0.0291,0 -0.0644,-0.0104 -0.35089,-0.0997 -0.67687,-0.0997 -0.17026,0 -0.37166,0.0311 -0.2014,0.0311 -0.43395,0.0955 0.0187,0.13496 0.0187,0.21594 0,0.2886 -0.0353,0.79314 l 0.90942,-0.0872 q 0.40073,-0.0415 0.49209,-0.0415 0.0914,0 0.15364,0.0581 0.0623,0.0581 0.0623,0.15572 0,0.18895 -0.19102,0.21179 l -0.49416,0.0436 -0.95925,0.0872 q -0.008,0.14742 -0.0145,0.2803 -0.004,0.13081 -0.004,0.24501 0,0.45886 0.0664,0.53984 0.0498,0.0581 0.32597,0.0581 0.12874,0 0.3862,-0.006 0.25953,-0.008 0.39034,-0.008 0.0415,0 0.1225,-0.0125 0.081,-0.0145 0.12043,-0.0145 0.22009,0 0.22009,0.21593 0,0.17441 -0.17649,0.20971 -0.19517,0.0394 -0.84505,0.0394 -0.64366,0 -0.82637,-0.17026 -0.19933,-0.18479 -0.19933,-0.85128 0,-0.13289 0.006,-0.29068 0.006,-0.1578 0.0166,-0.34052 -0.0228,-0.0478 -0.0228,-0.10174 0,-0.0706 0.0395,-0.12665 0.0415,-0.60005 0.0415,-0.88658 0,-0.0768 -0.0208,-0.22424 -0.0208,-0.1495 -0.0208,-0.22632 0,-0.24708 0.20763,-0.24708 0.0872,0 0.1495,0.0602 0.24915,-0.0664 0.46924,-0.0997 0.22217,-0.0332 0.41734,-0.0332 0.50454,0 0.8056,0.12042 0.13912,0.0561 0.13912,0.19933 0,0.083 -0.054,0.14742 -0.0602,0.0706 -0.14949,0.0706 z" />
    </g>
  </g>
</svg>
