<?xml version="1.0" encoding="UTF-8" standalone="no"?>
<svg
   xmlns:dc="http://purl.org/dc/elements/1.1/"
   xmlns:cc="http://creativecommons.org/ns#"
   xmlns:rdf="http://www.w3.org/1999/02/22-rdf-syntax-ns#"
   xmlns:svg="http://www.w3.org/2000/svg"
   xmlns="http://www.w3.org/2000/svg"
   id="svg901"
   width="62"
   version="1.1"
   height="62">
  <metadata
     id="metadata907">
    <rdf:RDF>
      <cc:Work
         rdf:about="">
        <dc:format>image/svg+xml</dc:format>
        <dc:type
           rdf:resource="http://purl.org/dc/dcmitype/StillImage" />
        <dc:title></dc:title>
      </cc:Work>
    </rdf:RDF>
  </metadata>
  <defs
     id="defs905" />
  <g
     style="fill:#ff0000;fill-opacity:1"
     transform="matrix(3.1,0,0,3.1,-6.2,-6.2)"
     id="g1015">
    <g
       style="fill:#ff0000;fill-opacity:1"
       id="g1001">
      <path
         style="fill:#ff0000;fill-opacity:1"
         d="m 12,4 c 4.4,0 8,3.6 8,8 0,4.4 -3.6,8 -8,8 C 7.6,20 4,16.4 4,12 4,7.6 7.6,4 12,4 M 12,2 C 6.5,2 2,6.5 2,12 2,17.5 6.5,22 12,22 17.5,22 22,17.5 22,12 22,6.5 17.5,2 12,2 Z"
         id="path999" />
    </g>
    <line
       style="fill:#ff0000;stroke:#ff0000;stroke-width:2;stroke-miterlimit:10;fill-opacity:1;stroke-opacity:1"
       stroke-miterlimit="10"
       x1="18.200001"
       x2="5.8000002"
       y1="18.200001"
       y2="5.8000002"
       id="line1003" />
  </g>
</svg>
