<?xml version="1.0" encoding="UTF-8" standalone="no"?>
<svg
   xmlns:dc="http://purl.org/dc/elements/1.1/"
   xmlns:cc="http://creativecommons.org/ns#"
   xmlns:rdf="http://www.w3.org/1999/02/22-rdf-syntax-ns#"
   xmlns:svg="http://www.w3.org/2000/svg"
   xmlns="http://www.w3.org/2000/svg"
   height="62"
   version="1.1"
   width="62"
   id="svg901">
  <metadata
     id="metadata907">
    <rdf:RDF>
      <cc:Work
         rdf:about="">
        <dc:format>image/svg+xml</dc:format>
        <dc:type
           rdf:resource="http://purl.org/dc/dcmitype/StillImage" />
        <dc:title></dc:title>
      </cc:Work>
    </rdf:RDF>
  </metadata>
  <defs
     id="defs905" />
  <rect
     ry="10.7143"
     y="1.7957152"
     x="2.1001496"
     height="58.454163"
     width="57.754108"
     id="rect4184"
     style="color:#000000;clip-rule:nonzero;display:inline;overflow:visible;visibility:visible;opacity:1;isolation:auto;mix-blend-mode:normal;color-interpolation:sRGB;color-interpolation-filters:linearRGB;solid-color:#000000;solid-opacity:1;fill:#cacaca;fill-opacity:0.46060607;fill-rule:nonzero;stroke:none;stroke-width:15;stroke-linecap:butt;stroke-linejoin:miter;stroke-miterlimit:4;stroke-dasharray:none;stroke-dashoffset:0;stroke-opacity:1;color-rendering:auto;image-rendering:auto;shape-rendering:auto;text-rendering:auto;enable-background:accumulate" />
  <g
     transform="matrix(1.4583333,0,0,1.4583333,13.500001,-1486.15)"
     id="g899">
    <path
       d="m 19,1038.4 c 0.552,0 1,0.4 1,1 v 1 c 0,4 -3.056,7.4 -7,7.9 v 2.1 h 6 c 0.552,0 1,0.4 1,1 0,0.5 -0.448,1 -1,1 H 5 c -0.5523,0 -1,-0.5 -1,-1 0,-0.6 0.4477,-1 1,-1 h 6 v -2.1 c -3.9444,-0.5 -7,-3.9 -7,-7.9 v -1 c 0,-0.6 0.4477,-1 1,-1 0.5523,0 1,0.4 1,1 v 1 c 0,3.3 2.6863,6 6,6 3.314,0 6,-2.7 6,-6 v -1 c 0,-0.6 0.448,-1 1,-1 z"
       id="path889"
       style="fill:#95a5a6" />
    <path
       d="m 12,1028.4 c 2.209,0 4,1.8 4,4 v 8 c 0,2.2 -1.791,4 -4,4 -2.2091,0 -4,-1.8 -4,-4 v -8 c 0,-2.2 1.7909,-4 4,-4 z"
       id="path891"
       style="fill:#bdc3c7" />
    <path
       d="m 12,1028.4 v 16 c -2.2091,0 -4,-1.8 -4,-4 v -8 c 0,-2.2 1.7909,-4 4,-4 z"
       id="path893"
       style="fill:#95a5a6" />
    <path
       d="m 16,1033.4 v 1 h -2 v -1 z m 0,2 v 1 h -2 v -1 z m 0,2 v 1 h -2 v -1 z"
       id="path895"
       style="fill:#95a5a6" />
    <path
       d="m 10,1033.4 v 1 H 8 v -1 z m 0,2 v 1 H 8 v -1 z m 0,2 v 1 H 8 v -1 z"
       id="path897"
       style="fill:#7f8c8d" />
  </g>
</svg>
