<?xml version="1.0" ?><svg id="Icons" style="enable-background:new 0 0 32 32;" version="1.1" viewBox="0 0 32 32" xml:space="preserve" xmlns="http://www.w3.org/2000/svg" xmlns:xlink="http://www.w3.org/1999/xlink"><style type="text/css">
	.st0{fill:none;stroke:#000000;stroke-width:2;stroke-linecap:round;stroke-linejoin:round;stroke-miterlimit:10;}
</style><g><path d="M10,14.2L2.1,6.3C2,6.5,2,6.8,2,7v14c0,1.7,1.3,3,3,3h4.8l-0.9,1.1C8.2,26,8,27.2,8.5,28.3C9,29.3,10.1,30,11.2,30h9.5   c1.2,0,2.2-0.7,2.7-1.7c0.1-0.1,0.1-0.3,0.2-0.4L15.8,20C12.6,19.9,10.1,17.4,10,14.2z"/><path d="M30,21V7c0-1.7-1.3-3-3-3H5.4L3.7,2.3c-0.4-0.4-1-0.4-1.4,0s-0.4,1,0,1.4l26,26c0.2,0.2,0.5,0.3,0.7,0.3s0.5-0.1,0.7-0.3   c0.4-0.4,0.4-1,0-1.4L25.4,24H27C28.7,24,30,22.7,30,21z M17.1,15.7c0.5-0.4,0.9-1,0.9-1.7c0-1.1-0.9-2-2-2c-0.7,0-1.3,0.4-1.7,0.9   l-2.8-2.8C12.6,8.8,14.2,8,16,8c3.3,0,6,2.7,6,6c0,1.8-0.8,3.4-2.1,4.5L17.1,15.7z M25,10h-2c-0.6,0-1-0.4-1-1s0.4-1,1-1h2   c0.6,0,1,0.4,1,1S25.6,10,25,10z"/></g></svg>