<?xml version="1.0" encoding="UTF-8" standalone="no"?>
<svg
   xmlns:dc="http://purl.org/dc/elements/1.1/"
   xmlns:cc="http://creativecommons.org/ns#"
   xmlns:rdf="http://www.w3.org/1999/02/22-rdf-syntax-ns#"
   xmlns:svg="http://www.w3.org/2000/svg"
   xmlns="http://www.w3.org/2000/svg"
   xmlns:sodipodi="http://sodipodi.sourceforge.net/DTD/sodipodi-0.dtd"
   xmlns:inkscape="http://www.inkscape.org/namespaces/inkscape"
   viewBox="0 0 57.754108 58.454163"
   version="1.1"
   id="svg914"
   sodipodi:docname="radio.svg"
   width="57.754108"
   height="58.454163"
   inkscape:version="1.0.2 (394de47547, 2021-03-26)">
  <metadata
     id="metadata920">
    <rdf:RDF>
      <cc:Work
         rdf:about="">
        <dc:format>image/svg+xml</dc:format>
        <dc:type
           rdf:resource="http://purl.org/dc/dcmitype/StillImage" />
        <dc:title></dc:title>
      </cc:Work>
    </rdf:RDF>
  </metadata>
  <defs
     id="defs918" />
  <sodipodi:namedview
     pagecolor="#ffffff"
     bordercolor="#666666"
     borderopacity="1"
     objecttolerance="10"
     gridtolerance="10"
     guidetolerance="10"
     inkscape:pageopacity="0"
     inkscape:pageshadow="2"
     inkscape:window-width="1920"
     inkscape:window-height="983"
     id="namedview916"
     showgrid="false"
     fit-margin-top="0"
     fit-margin-left="0"
     fit-margin-right="0"
     fit-margin-bottom="0"
     inkscape:zoom="8.2291667"
     inkscape:cx="9.6286634"
     inkscape:cy="36.73371"
     inkscape:window-x="0"
     inkscape:window-y="0"
     inkscape:window-maximized="1"
     inkscape:current-layer="svg914" />
  <g
     id="g1025"
     transform="translate(-2.1001496,-1.7957152)">
    <rect
       ry="10.7143"
       y="1.7957152"
       x="2.1001496"
       height="58.454163"
       width="57.754108"
       id="rect4184"
       style="color:#000000;clip-rule:nonzero;display:inline;overflow:visible;visibility:visible;opacity:1;isolation:auto;mix-blend-mode:normal;color-interpolation:sRGB;color-interpolation-filters:linearRGB;solid-color:#000000;solid-opacity:1;fill:#cacaca;fill-opacity:0.460606;fill-rule:nonzero;stroke:none;stroke-width:15;stroke-linecap:butt;stroke-linejoin:miter;stroke-miterlimit:4;stroke-dasharray:none;stroke-dashoffset:0;stroke-opacity:1;color-rendering:auto;image-rendering:auto;shape-rendering:auto;text-rendering:auto;enable-background:accumulate" />
  </g>
  <g
     id="g1032"
     transform="matrix(2.1955841,0,0,2.1955841,2.5630795,4.0471666)">
    <path
       d="m 15.54,14.54 a 1,1 0 0 1 -0.71,-0.3 1,1 0 0 1 0,-1.41 4,4 0 0 0 0,-5.66 1,1 0 0 1 1.41,-1.41 6,6 0 0 1 0,8.48 1,1 0 0 1 -0.7,0.3 z"
       fill="#464646"
       id="path904" />
    <path
       d="m 18.36,17.36 a 1,1 0 0 1 -0.7,-0.29 1,1 0 0 1 0,-1.41 8,8 0 0 0 0,-11.32 1,1 0 0 1 1.41,-1.41 10,10 0 0 1 0,14.14 1,1 0 0 1 -0.71,0.29 z"
       fill="#464646"
       id="path906" />
    <path
       d="m 8.46,14.54 a 1,1 0 0 1 -0.7,-0.3 6,6 0 0 1 0,-8.48 1,1 0 0 1 1.41,1.41 4,4 0 0 0 0,5.66 1,1 0 0 1 0,1.41 1,1 0 0 1 -0.71,0.3 z"
       fill="#464646"
       id="path908" />
    <path
       d="m 5.64,17.36 a 1,1 0 0 1 -0.71,-0.29 10,10 0 0 1 0,-14.14 1,1 0 1 1 1.41,1.41 8,8 0 0 0 0,11.32 1,1 0 0 1 0,1.41 1,1 0 0 1 -0.7,0.29 z"
       fill="#464646"
       id="path910" />
    <path
       d="m 14,10 a 2,2 0 0 0 -4,0 2,2 0 0 0 1,1.72 V 20 a 1,1 0 0 0 2,0 V 11.72 A 2,2 0 0 0 14,10 Z"
       fill="#464646"
       id="path912" />
  </g>
</svg>
