<?xml version="1.0" encoding="UTF-8" standalone="no"?>
<!-- Created with Inkscape (http://www.inkscape.org/) -->

<svg
   xmlns:dc="http://purl.org/dc/elements/1.1/"
   xmlns:cc="http://creativecommons.org/ns#"
   xmlns:rdf="http://www.w3.org/1999/02/22-rdf-syntax-ns#"
   xmlns:svg="http://www.w3.org/2000/svg"
   xmlns="http://www.w3.org/2000/svg"
   xmlns:sodipodi="http://sodipodi.sourceforge.net/DTD/sodipodi-0.dtd"
   xmlns:inkscape="http://www.inkscape.org/namespaces/inkscape"
   width="480"
   height="360"
   viewBox="0 0 480 360"
   id="svg2"
   version="1.1"
   inkscape:version="0.91 r13725"
   sodipodi:docname="webcam_initial.svg">
  <defs
     id="defs4" />
  <sodipodi:namedview
     id="base"
     pagecolor="#ffffff"
     bordercolor="#666666"
     borderopacity="1.0"
     inkscape:pageopacity="0.0"
     inkscape:pageshadow="2"
     inkscape:zoom="1.7949881"
     inkscape:cx="253.04319"
     inkscape:cy="173.24116"
     inkscape:document-units="px"
     inkscape:current-layer="layer1"
     showgrid="false"
     units="px"
     borderlayer="true"
     inkscape:window-width="1920"
     inkscape:window-height="983"
     inkscape:window-x="0"
     inkscape:window-y="0"
     inkscape:window-maximized="1" />
  <metadata
     id="metadata7">
    <rdf:RDF>
      <cc:Work
         rdf:about="">
        <dc:format>image/svg+xml</dc:format>
        <dc:type
           rdf:resource="http://purl.org/dc/dcmitype/StillImage" />
        <dc:title></dc:title>
      </cc:Work>
    </rdf:RDF>
  </metadata>
  <g
     inkscape:label="Layer 1"
     inkscape:groupmode="layer"
     id="layer1"
     transform="translate(0,-692.36216)">
    <rect
       style="color:#000000;overflow:visible;fill:#000000;fill-opacity:1;stroke:none;stroke-width:5;stroke-miterlimit:4;stroke-dasharray:none;stroke-opacity:1"
       id="rect4136"
       width="480"
       height="360"
       x="0"
       y="692.36218"
       ry="10"
       rx="10" />
    <g
       id="g4201"
       transform="matrix(1.7857143,0,0,1.7857143,211.42857,843.79073)"
       style="fill:#ffffff;fill-opacity:1">
      <path
         id="path4203"
         d="M 10,14.2 2.1,6.3 C 2,6.5 2,6.8 2,7 l 0,14 c 0,1.7 1.3,3 3,3 l 4.8,0 -0.9,1.1 C 8.2,26 8,27.2 8.5,28.3 9,29.3 10.1,30 11.2,30 l 9.5,0 c 1.2,0 2.2,-0.7 2.7,-1.7 0.1,-0.1 0.1,-0.3 0.2,-0.4 L 15.8,20 C 12.6,19.9 10.1,17.4 10,14.2 Z"
         inkscape:connector-curvature="0"
         style="fill:#ffffff;fill-opacity:1" />
      <path
         id="path4205"
         d="M 30,21 30,7 C 30,5.3 28.7,4 27,4 L 5.4,4 3.7,2.3 c -0.4,-0.4 -1,-0.4 -1.4,0 -0.4,0.4 -0.4,1 0,1.4 l 26,26 c 0.2,0.2 0.5,0.3 0.7,0.3 0.2,0 0.5,-0.1 0.7,-0.3 0.4,-0.4 0.4,-1 0,-1.4 L 25.4,24 27,24 c 1.7,0 3,-1.3 3,-3 z M 17.1,15.7 c 0.5,-0.4 0.9,-1 0.9,-1.7 0,-1.1 -0.9,-2 -2,-2 -0.7,0 -1.3,0.4 -1.7,0.9 L 11.5,10.1 C 12.6,8.8 14.2,8 16,8 c 3.3,0 6,2.7 6,6 0,1.8 -0.8,3.4 -2.1,4.5 L 17.1,15.7 Z M 25,10 23,10 C 22.4,10 22,9.6 22,9 22,8.4 22.4,8 23,8 l 2,0 c 0.6,0 1,0.4 1,1 0,0.6 -0.4,1 -1,1 z"
         inkscape:connector-curvature="0"
         style="fill:#ffffff;fill-opacity:1" />
    </g>
  </g>
  <style
     id="style4199"
     type="text/css">
	.st0{fill:none;stroke:#000000;stroke-width:2;stroke-linecap:round;stroke-linejoin:round;stroke-miterlimit:10;}
</style>
</svg>
