<?xml version="1.0" encoding="UTF-8" standalone="no"?>
<svg
   xmlns:dc="http://purl.org/dc/elements/1.1/"
   xmlns:cc="http://creativecommons.org/ns#"
   xmlns:rdf="http://www.w3.org/1999/02/22-rdf-syntax-ns#"
   xmlns:svg="http://www.w3.org/2000/svg"
   xmlns="http://www.w3.org/2000/svg"
   xmlns:sodipodi="http://sodipodi.sourceforge.net/DTD/sodipodi-0.dtd"
   xmlns:inkscape="http://www.inkscape.org/namespaces/inkscape"
   width="297.28571"
   height="111.57143"
   viewBox="0 0 297.28571 111.57143"
   id="svg2"
   version="1.1"
   inkscape:version="0.91 r13725"
   sodipodi:docname="munckin_lobby_icon.svg">
  <sodipodi:namedview
     pagecolor="#ffffff"
     bordercolor="#666666"
     borderopacity="1"
     objecttolerance="10"
     gridtolerance="10"
     guidetolerance="10"
     inkscape:pageopacity="0"
     inkscape:pageshadow="2"
     inkscape:window-width="1037"
     inkscape:window-height="411"
     id="namedview16"
     showgrid="false"
     inkscape:zoom="1.113407"
     inkscape:cx="148.64285"
     inkscape:cy="54.887569"
     inkscape:window-x="498"
     inkscape:window-y="403"
     inkscape:window-maximized="0"
     inkscape:current-layer="layer1" />
  <defs
     id="defs4" />
  <metadata
     id="metadata7">
    <rdf:RDF>
      <cc:Work
         rdf:about="">
        <dc:format>image/svg+xml</dc:format>
        <dc:type
           rdf:resource="http://purl.org/dc/dcmitype/StillImage" />
        <dc:title></dc:title>
      </cc:Work>
    </rdf:RDF>
  </metadata>
  <g
     id="layer1"
     transform="translate(-1.3571429,-925.14789)">
    <rect
       style="color:#000000;clip-rule:nonzero;display:inline;overflow:visible;visibility:visible;opacity:1;isolation:auto;mix-blend-mode:normal;color-interpolation:sRGB;color-interpolation-filters:linearRGB;solid-color:#000000;solid-opacity:1;fill:#ff8e42;fill-opacity:1;fill-rule:nonzero;stroke:#ffffff;stroke-width:3;stroke-linecap:butt;stroke-linejoin:miter;stroke-miterlimit:4;stroke-dasharray:none;stroke-dashoffset:0;stroke-opacity:1;color-rendering:auto;image-rendering:auto;shape-rendering:auto;text-rendering:auto;enable-background:accumulate"
       id="rect4140"
       width="294.28571"
       height="108.57143"
       x="2.8571429"
       y="926.64789"
       ry="10.7143" />
    <g
       style="font-weight:bold;font-size:50px;line-height:125%;font-family:'Lexend Deca';-inkscape-font-specification:'Lexend Deca Bold';letter-spacing:0px;word-spacing:0px;writing-mode:lr-tb;fill:#000000;fill-opacity:1;stroke:none;stroke-width:1px;stroke-linecap:butt;stroke-linejoin:miter;stroke-opacity:1"
       id="text4215">
      <path
         d="m 42.992191,963.99725 11.45,18.65 11.65,-18.65 5,0 0,35 -5.4,0 0,-14.35 q 0,-3.15 0.1,-5.95 0.15,-2.85 0.45,-5.65 l -10.3,15.9 -3.3,0 -10.05,-15.85 q 0.3,2.8 0.4,5.6 0.1,2.8 0.1,5.95 l 0,14.35 -5.4,0 0,-35 5.3,0 z"
         style=""
         id="path4220" />
      <path
         d="m 97.456253,988.54725 0,-15.8 5.149997,0 0,26.25 -5.149997,0 0,-4.2 q -1.15,1.85 -3.4,3.3 -2.2,1.4 -5.3,1.4 -4.1,0 -6.65,-2.8 -2.55,-2.8 -2.55,-7.75 l 0,-16.2 5.15,0 0,14.8 q 0,2 0.6,3.7 0.65,1.7 2,2.75 1.4,1 3.55,1 2.7,0 4.65,-1.7 1.95,-1.7 1.95,-4.75 z"
         style=""
         id="path4222" />
      <path
         d="m 123.57969,972.19725 q 3.55,0 5.5,1.45 1.95,1.45 2.7,3.9 0.8,2.45 0.8,5.45 l 0,16 -5.15,0 0,-15.65 q 0,-1.9 -0.5,-3.4 -0.5,-1.5 -1.7,-2.35 -1.2,-0.85 -3.35,-0.7 -2,0 -3.55,0.85 -1.55,0.85 -2.45,2.25 -0.9,1.4 -0.9,3.1 l 0,15.9 -5.15,0 0,-26.25 5.15,0 0,4.15 q 1.2,-1.85 3.5,-3.25 2.3,-1.45 5.1,-1.45 z"
         style=""
         id="path4224" />
      <path
         d="m 142.91485,985.84725 q 0,2.6 1.15,4.65 1.2,2 3.1,3.2 1.95,1.15 4.15,1.15 2.5,0 4.35,-1.3 1.85,-1.3 3,-2.7 l 2.85,3.5 q -0.95,1.35 -2.6,2.55 -1.65,1.15 -3.75,1.9 -2.1,0.7 -4.4,0.7 -3.6,0 -6.5,-1.8 -2.9,-1.8 -4.6,-4.9 -1.65,-3.1 -1.65,-6.95 0,-3.9 1.65,-6.95 1.7,-3.1 4.6,-4.9 2.9,-1.8 6.5,-1.8 3.65,0 6.5,1.5 2.85,1.45 4.25,3.8 l -2.85,3.5 q -1.15,-1.7 -3.3,-2.9 -2.1,-1.25 -4.1,-1.25 -2.35,0 -4.25,1.2 -1.9,1.15 -3,3.2 -1.1,2 -1.1,4.6 z"
         style=""
         id="path4226" />
      <path
         d="m 180.12266,972.19725 q 3.55,0 5.5,1.45 1.95,1.45 2.7,3.9 0.8,2.45 0.8,5.45 l 0,16 -5.15,0 0,-15.65 q 0,-1.9 -0.5,-3.4 -0.5,-1.5 -1.7,-2.35 -1.2,-0.85 -3.35,-0.7 -2,0 -3.55,0.85 -1.55,0.85 -2.45,2.25 -0.9,1.4 -0.9,3.1 l 0,15.9 -5.15,0 0,-37 5.15,0 0,14.9 q 1.2,-1.85 3.5,-3.25 2.3,-1.45 5.1,-1.45 z"
         style=""
         id="path4228" />
      <path
         d="m 196.15782,998.99725 0,-37 5.15,0 0,22.5 11.85,-11.75 6.95,0 -12.3,11.55 12.65,14.7 -6.6,0 -9.7,-11.3 -2.85,2.7 0,8.6 -5.15,0 z"
         style=""
         id="path4230" />
      <path
         d="m 228.02578,967.04725 q -1.75,0 -2.6,-0.9 -0.85,-0.9 -0.85,-2.35 0,-1.25 0.85,-2.25 0.85,-1 2.6,-1 1.75,0 2.6,0.9 0.85,0.9 0.85,2.35 0,1.25 -0.85,2.25 -0.85,1 -2.6,1 z m 2.65,31.95 -5.15,0 0,-26.25 5.15,0 0,26.25 z"
         style=""
         id="path4232" />
      <path
         d="m 252.19297,972.19725 q 3.55,0 5.5,1.45 1.95,1.45 2.7,3.9 0.8,2.45 0.8,5.45 l 0,16 -5.15,0 0,-15.65 q 0,-1.9 -0.5,-3.4 -0.5,-1.5 -1.7,-2.35 -1.2,-0.85 -3.35,-0.7 -2,0 -3.55,0.85 -1.55,0.85 -2.45,2.25 -0.9,1.4 -0.9,3.1 l 0,15.9 -5.15,0 0,-26.25 5.15,0 0,4.15 q 1.2,-1.85 3.5,-3.25 2.3,-1.45 5.1,-1.45 z"
         style=""
         id="path4234" />
    </g>
  </g>
</svg>
