<?xml version="1.0" encoding="UTF-8" standalone="no"?>
<svg
   xmlns:dc="http://purl.org/dc/elements/1.1/"
   xmlns:cc="http://creativecommons.org/ns#"
   xmlns:rdf="http://www.w3.org/1999/02/22-rdf-syntax-ns#"
   xmlns:svg="http://www.w3.org/2000/svg"
   xmlns="http://www.w3.org/2000/svg"
   xmlns:sodipodi="http://sodipodi.sourceforge.net/DTD/sodipodi-0.dtd"
   xmlns:inkscape="http://www.inkscape.org/namespaces/inkscape"
   width="297.28571"
   height="111.57143"
   viewBox="0 0 297.28571 111.57143"
   id="svg2"
   version="1.1"
   inkscape:version="0.91 r13725"
   sodipodi:docname="crp_lobby_icon.svg">
  <sodipodi:namedview
     pagecolor="#ffffff"
     bordercolor="#666666"
     borderopacity="1"
     objecttolerance="10"
     gridtolerance="10"
     guidetolerance="10"
     inkscape:pageopacity="0"
     inkscape:pageshadow="2"
     inkscape:window-width="1920"
     inkscape:window-height="983"
     id="namedview16"
     showgrid="false"
     inkscape:zoom="0.27835175"
     inkscape:cx="396.39415"
     inkscape:cy="335.53485"
     inkscape:window-x="0"
     inkscape:window-y="0"
     inkscape:window-maximized="1"
     inkscape:current-layer="layer1" />
  <defs
     id="defs4" />
  <metadata
     id="metadata7">
    <rdf:RDF>
      <cc:Work
         rdf:about="">
        <dc:format>image/svg+xml</dc:format>
        <dc:type
           rdf:resource="http://purl.org/dc/dcmitype/StillImage" />
        <dc:title></dc:title>
      </cc:Work>
    </rdf:RDF>
  </metadata>
  <g
     id="layer1"
     transform="translate(-1.3571429,-925.14789)">
    <rect
       style="color:#000000;clip-rule:nonzero;display:inline;overflow:visible;visibility:visible;opacity:1;isolation:auto;mix-blend-mode:normal;color-interpolation:sRGB;color-interpolation-filters:linearRGB;solid-color:#000000;solid-opacity:1;fill:#9a0d0e;fill-opacity:1;fill-rule:nonzero;stroke:#ffffff;stroke-width:3;stroke-linecap:butt;stroke-linejoin:miter;stroke-miterlimit:4;stroke-dasharray:none;stroke-dashoffset:0;stroke-opacity:1;color-rendering:auto;image-rendering:auto;shape-rendering:auto;text-rendering:auto;enable-background:accumulate"
       id="rect4140"
       width="294.28571"
       height="108.57143"
       x="2.8571429"
       y="926.64789"
       ry="10.7143" />
    <g
       style="font-weight:bold;font-size:31.47672272px;line-height:125%;font-family:'Lexend Deca';-inkscape-font-specification:'Lexend Deca Bold';letter-spacing:0px;word-spacing:0px;writing-mode:lr-tb;fill:#000000;fill-opacity:1;stroke:none;stroke-width:1px;stroke-linecap:butt;stroke-linejoin:miter;stroke-opacity:1"
       id="text4220">
      <path
         d="m 40.541427,987.1882 q -0.661011,0.75545 -1.857126,1.44793 -1.164639,0.69249 -2.706998,1.13317 -1.510883,0.44067 -3.242103,0.44067 -2.958812,0 -5.351043,-1.38498 -2.360754,-1.41645 -3.777207,-3.96606 -1.384975,-2.54962 -1.384975,-5.98058 0,-2.42371 0.849871,-4.46969 0.849872,-2.04599 2.360754,-3.55687 1.510883,-1.51089 3.46244,-2.32928 1.951557,-0.84987 4.123451,-0.84987 1.794173,0 3.336532,0.56658 1.573836,0.5351 2.738475,1.41645 1.196116,0.84987 1.857127,1.82565 l -2.266324,2.36075 q -1.164639,-1.19611 -2.581092,-1.98303 -1.416452,-0.78692 -3.084718,-0.78692 -1.888604,0 -3.588347,0.9443 -1.668266,0.94431 -2.706998,2.707 -1.038732,1.73122 -1.038732,4.15493 0,2.64404 1.038732,4.40674 1.070209,1.7627 2.801428,2.64405 1.762697,0.84987 3.777207,0.84987 1.857127,0 3.273579,-0.72397 1.416453,-0.75544 2.266324,-1.63679 l 1.699743,2.76995 z"
         style=""
         id="path4225" />
      <path
         d="m 60.204542,981.61682 q 0,2.51814 -1.133162,4.4697 -1.101685,1.92008 -3.021765,3.02176 -1.888603,1.10169 -4.249358,1.10169 -2.360754,0 -4.280834,-1.10169 -1.92008,-1.10168 -3.053242,-3.02176 -1.101685,-1.95156 -1.101685,-4.4697 0,-2.51813 1.101685,-4.43821 1.133162,-1.95156 3.053242,-3.05325 1.92008,-1.10168 4.280834,-1.10168 2.360755,0 4.249358,1.10168 1.92008,1.10169 3.021765,3.05325 1.133162,1.92008 1.133162,4.43821 z m -3.305056,0 q 0.03148,-1.66826 -0.661011,-2.92733 -0.661011,-1.29055 -1.82565,-1.98303 -1.164638,-0.72397 -2.612568,-0.72397 -1.447929,0 -2.644044,0.72397 -1.164639,0.69248 -1.857127,1.98303 -0.661011,1.25907 -0.629534,2.92733 -0.03148,1.63679 0.629534,2.92734 0.692488,1.25907 1.857127,1.98303 1.196115,0.72397 2.644044,0.72397 1.44793,0 2.612568,-0.72397 1.164639,-0.72396 1.82565,-1.98303 0.692488,-1.29055 0.661011,-2.92734 z"
         style=""
         id="path4227" />
      <path
         d="m 65.814775,981.61682 q 0,1.63679 0.723965,2.92734 0.755441,1.25907 1.951556,2.01451 1.227593,0.72396 2.612568,0.72396 1.573837,0 2.738475,-0.81839 1.164639,-0.81839 1.888604,-1.69974 l 1.794173,2.20337 q -0.598058,0.84987 -1.63679,1.60531 -1.038732,0.72396 -2.360754,1.19612 -1.322022,0.44067 -2.769951,0.44067 -2.266325,0 -4.091974,-1.13316 -1.82565,-1.13316 -2.895859,-3.08472 -1.038732,-1.95156 -1.038732,-4.37527 0,-2.45518 1.038732,-4.37526 1.070209,-1.95156 2.895859,-3.08472 1.825649,-1.13316 4.091974,-1.13316 2.2978,0 4.091973,0.9443 1.794174,0.91283 2.675522,2.39223 l -1.794173,2.20337 q -0.723965,-1.07021 -2.077464,-1.82565 -1.322022,-0.78692 -2.581091,-0.78692 -1.479406,0 -2.675522,0.75545 -1.196115,0.72396 -1.888603,2.01451 -0.692488,1.25906 -0.692488,2.89585 z"
         style=""
         id="path4229" />
      <path
         d="m 80.582278,989.8952 0,-23.29277 3.242103,0 0,14.16452 7.459983,-7.39703 4.375264,0 -7.743273,7.27113 7.96361,9.25415 -4.154927,0 -6.106484,-7.11374 -1.794173,1.69975 0,5.41399 -3.242103,0 z"
         style=""
         id="path4231" />
      <path
         d="m 107.72652,976.86384 q -0.31477,-0.15738 -0.78692,-0.25181 -0.44067,-0.12591 -0.9443,-0.12591 -1.00725,0 -1.98303,0.5351 -0.97578,0.50363 -1.63679,1.47941 -0.62954,0.9443 -0.62954,2.26632 l 0,9.12825 -3.273575,0 0,-16.52528 3.273575,0 0,3.1162 q 0.69249,-1.51088 2.07747,-2.48666 1.41645,-0.97578 2.95881,-0.97578 1.16464,0 1.79417,0.31477 l -0.84987,3.52539 z"
         style=""
         id="path4233" />
      <path
         d="m 126.29336,981.61682 q 0,2.51814 -1.13316,4.4697 -1.10169,1.92008 -3.02177,3.02176 -1.8886,1.10169 -4.24935,1.10169 -2.36076,0 -4.28084,-1.10169 -1.92008,-1.10168 -3.05324,-3.02176 -1.10168,-1.95156 -1.10168,-4.4697 0,-2.51813 1.10168,-4.43821 1.13316,-1.95156 3.05324,-3.05325 1.92008,-1.10168 4.28084,-1.10168 2.36075,0 4.24935,1.10168 1.92008,1.10169 3.02177,3.05325 1.13316,1.92008 1.13316,4.43821 z m -3.30505,0 q 0.0315,-1.66826 -0.66102,-2.92733 -0.66101,-1.29055 -1.82565,-1.98303 -1.16463,-0.72397 -2.61256,-0.72397 -1.44793,0 -2.64405,0.72397 -1.16464,0.69248 -1.85712,1.98303 -0.66102,1.25907 -0.62954,2.92733 -0.0315,1.63679 0.62954,2.92734 0.69248,1.25907 1.85712,1.98303 1.19612,0.72397 2.64405,0.72397 1.44793,0 2.61256,-0.72397 1.16464,-0.72396 1.82565,-1.98303 0.69249,-1.29055 0.66102,-2.92734 z"
         style=""
         id="path4235" />
      <path
         d="m 145.21826,973.36992 0,16.52528 -3.27358,0 0,-2.54961 q -0.75544,1.03873 -2.23485,1.95155 -1.4794,0.91283 -3.43096,0.91283 -2.07747,0 -3.80868,-1.10169 -1.69975,-1.10168 -2.707,-3.05324 -1.00726,-1.95155 -1.00726,-4.46969 0,-2.51814 1.03873,-4.43822 1.03874,-1.95156 2.86439,-3.02177 1.82565,-1.10168 4.15492,-1.10168 1.73122,0 3.02177,0.75544 1.32202,0.75544 2.10894,1.7627 l 0,-2.1719 3.27358,0 z m -8.18395,13.84976 q 1.51088,0 2.64404,-0.72396 1.13317,-0.75544 1.7627,-2.01451 0.62954,-1.29055 0.62954,-2.89586 0,-1.57384 -0.62954,-2.83291 -0.62953,-1.25907 -1.7627,-1.98303 -1.13316,-0.75544 -2.64404,-0.75544 -1.44793,0 -2.58109,0.72396 -1.13316,0.72397 -1.7627,1.98304 -0.62953,1.25906 -0.62953,2.86438 0,1.60531 0.62953,2.89586 0.62954,1.25907 1.7627,2.01451 1.13316,0.72396 2.58109,0.72396 z"
         style=""
         id="path4237" />
      <path
         d="m 151.82247,981.61682 q 0,1.63679 0.72396,2.92734 0.75544,1.25907 1.95156,2.01451 1.22759,0.72396 2.61256,0.72396 1.57384,0 2.73848,-0.81839 1.16464,-0.81839 1.8886,-1.69974 l 1.79418,2.20337 q -0.59806,0.84987 -1.63679,1.60531 -1.03874,0.72396 -2.36076,1.19612 -1.32202,0.44067 -2.76995,0.44067 -2.26632,0 -4.09197,-1.13316 -1.82565,-1.13316 -2.89586,-3.08472 -1.03873,-1.95156 -1.03873,-4.37527 0,-2.45518 1.03873,-4.37526 1.07021,-1.95156 2.89586,-3.08472 1.82565,-1.13316 4.09197,-1.13316 2.2978,0 4.09197,0.9443 1.79418,0.91283 2.67553,2.39223 l -1.79418,2.20337 q -0.72396,-1.07021 -2.07746,-1.82565 -1.32202,-0.78692 -2.58109,-0.78692 -1.47941,0 -2.67552,0.75545 -1.19612,0.72396 -1.88861,2.01451 -0.69248,1.25906 -0.69248,2.89585 z"
         style=""
         id="path4239" />
      <path
         d="m 175.24606,973.02368 q 2.23485,0 3.46244,0.91282 1.2276,0.91283 1.69975,2.45519 0.50362,1.54236 0.50362,3.43096 l 0,10.07255 -3.2421,0 0,-9.85221 q 0,-1.19612 -0.31477,-2.14042 -0.31476,-0.9443 -1.0702,-1.4794 -0.75545,-0.53511 -2.10894,-0.44068 -1.25907,0 -2.23485,0.53511 -0.97578,0.5351 -1.54236,1.41645 -0.56658,0.88135 -0.56658,1.95155 l 0,10.0096 -3.24211,0 0,-23.29277 3.24211,0 0,9.38006 q 0.75544,-1.16464 2.20337,-2.04599 1.44793,-0.91282 3.21062,-0.91282 z"
         style=""
         id="path4241" />
      <path
         d="m 202.75672,973.08663 q 2.20337,0 3.93459,1.10169 1.76269,1.07021 2.76995,2.99029 1.00725,1.92008 1.00725,4.43821 0,2.48667 -1.00725,4.43822 -1.00726,1.92008 -2.73848,3.02177 -1.73122,1.10168 -3.87163,1.10168 -1.7627,0 -3.21063,-0.75544 -1.41645,-0.75544 -2.23485,-1.73122 l 0,9.12825 -3.27358,0 0,-23.48163 3.27358,0 0,2.4237 q 0.72397,-1.03873 2.1719,-1.85712 1.44793,-0.8184 3.17915,-0.8184 z m -0.44068,2.99029 q -1.4794,0 -2.64404,0.72397 -1.13316,0.72396 -1.79418,1.98303 -0.62953,1.22759 -0.62953,2.8329 0,1.57384 0.62953,2.83291 0.66102,1.25907 1.79418,2.01451 1.16464,0.72396 2.64404,0.72396 1.47941,0 2.61257,-0.72396 1.13316,-0.75544 1.7627,-2.01451 0.66101,-1.25907 0.66101,-2.83291 0,-1.60531 -0.66101,-2.8329 -0.62954,-1.25907 -1.7627,-1.98303 -1.13316,-0.72397 -2.61257,-0.72397 z"
         style=""
         id="path4243" />
      <path
         d="m 229.82228,981.61682 q 0,2.51814 -1.13316,4.4697 -1.10169,1.92008 -3.02177,3.02176 -1.8886,1.10169 -4.24936,1.10169 -2.36075,0 -4.28083,-1.10169 -1.92008,-1.10168 -3.05324,-3.02176 -1.10169,-1.95156 -1.10169,-4.4697 0,-2.51813 1.10169,-4.43821 1.13316,-1.95156 3.05324,-3.05325 1.92008,-1.10168 4.28083,-1.10168 2.36076,0 4.24936,1.10168 1.92008,1.10169 3.02177,3.05325 1.13316,1.92008 1.13316,4.43821 z m -3.30506,0 q 0.0315,-1.66826 -0.66101,-2.92733 -0.66101,-1.29055 -1.82565,-1.98303 -1.16464,-0.72397 -2.61257,-0.72397 -1.44793,0 -2.64404,0.72397 -1.16464,0.69248 -1.85713,1.98303 -0.66101,1.25907 -0.62953,2.92733 -0.0315,1.63679 0.62953,2.92734 0.69249,1.25907 1.85713,1.98303 1.19611,0.72397 2.64404,0.72397 1.44793,0 2.61257,-0.72397 1.16464,-0.72396 1.82565,-1.98303 0.69249,-1.29055 0.66101,-2.92734 z"
         style=""
         id="path4245" />
      <path
         d="m 233.35504,989.8952 0,-23.29277 3.2421,0 0,14.16452 7.45999,-7.39703 4.37526,0 -7.74327,7.27113 7.96361,9.25415 -4.15493,0 -6.10648,-7.11374 -1.79418,1.69975 0,5.41399 -3.2421,0 z"
         style=""
         id="path4247" />
      <path
         d="m 264.76488,987.72331 -0.0315,0 q -1.00725,0.97578 -2.76995,1.73122 -1.7627,0.75544 -3.68278,0.75544 -2.58109,0 -4.56412,-1.07021 -1.95156,-1.10168 -3.05324,-2.99029 -1.10169,-1.92008 -1.10169,-4.34379 0,-2.76995 1.16464,-4.7215 1.16464,-1.98304 3.08472,-3.02177 1.92008,-1.07021 4.1864,-1.07021 2.07747,0 3.77721,1.03873 1.69974,1.00726 2.707,2.80143 1.00725,1.79418 1.00725,4.18641 l -0.0315,1.38497 -12.65365,0 q 0.2833,2.23485 1.82565,3.55687 1.57384,1.29055 3.96607,1.29055 1.73122,0 2.80143,-0.62954 1.07021,-0.66101 1.7627,-1.25907 l 1.60531,2.36076 z m -6.7675,-11.74082 q -1.85712,0 -3.2421,0.88135 -1.38497,0.84987 -1.82565,2.95881 l 9.25416,0 0,-0.22034 q -0.0944,-1.0702 -0.72397,-1.8886 -0.59805,-0.81839 -1.51088,-1.25907 -0.91282,-0.47215 -1.95156,-0.47215 z"
         style=""
         id="path4249" />
      <path
         d="m 278.26642,976.86384 q -0.31476,-0.15738 -0.78691,-0.25181 -0.44068,-0.12591 -0.94431,-0.12591 -1.00725,0 -1.98303,0.5351 -0.97578,0.50363 -1.63679,1.47941 -0.62953,0.9443 -0.62953,2.26632 l 0,9.12825 -3.27358,0 0,-16.52528 3.27358,0 0,3.1162 q 0.69248,-1.51088 2.07746,-2.48666 1.41645,-0.97578 2.95881,-0.97578 1.16464,0 1.79418,0.31477 l -0.84988,3.52539 z"
         style=""
         id="path4251" />
    </g>
  </g>
</svg>
